<svg width="102" height="20" viewBox="0 0 102 20" fill="none" xmlns="http://www.w3.org/2000/svg">
<g clip-path="url(#clip0_1_1015)">
<path fill-rule="evenodd" clip-rule="evenodd" d="M98.8901 15.1993C98.9512 15.8956 99.5081 16.7819 100.473 16.7819H101.038C101.257 16.7819 101.436 16.6025 101.436 16.3835V3.96653H101.433C101.422 3.75735 101.249 3.5898 101.038 3.5898H99.2882C99.0767 3.5898 98.9039 3.75735 98.8923 3.96653H98.8901V4.97549C97.8182 3.65424 96.1282 3.10583 94.4336 3.10583C90.5814 3.10583 87.4587 6.23093 87.4587 10.0862C87.4587 13.9416 90.5814 17.0667 94.4336 17.0667V17.0671C96.1282 17.0671 97.975 16.4092 98.8898 15.1977L98.8901 15.1993ZM94.4404 14.6237C91.9905 14.6237 90.0042 12.5924 90.0042 10.0862C90.0042 7.58038 91.9905 5.54892 94.4404 5.54892C96.8902 5.54892 98.8761 7.58038 98.8761 10.0862C98.8761 12.5924 96.8902 14.6237 94.4404 14.6237Z" fill="white"/>
<path fill-rule="evenodd" clip-rule="evenodd" d="M85.247 15.6264L85.2462 9.20112H85.2464C85.2464 5.57924 82.9632 3.13586 79.3224 3.13586C77.5844 3.13586 76.1597 4.14164 75.6565 5.00562C75.5477 4.33006 75.1894 3.61994 74.078 3.61994H73.5115C73.2924 3.61994 73.1134 3.79946 73.1134 4.0185V15.2304C73.1134 15.2307 73.1134 15.2316 73.1134 15.2321V16.4365H73.1156C73.1271 16.6454 73.3002 16.8131 73.5117 16.8131H75.2612C75.2879 16.8131 75.3142 16.8099 75.3396 16.805C75.3512 16.8027 75.362 16.7982 75.3732 16.795C75.3862 16.791 75.3998 16.7879 75.4121 16.7828C75.4277 16.7764 75.4418 16.7677 75.4563 16.7596C75.4634 16.7553 75.4708 16.7522 75.4776 16.7476C75.4951 16.7364 75.5112 16.7228 75.5266 16.709C75.5292 16.7064 75.5322 16.7048 75.5347 16.7024C75.5521 16.6856 75.5679 16.667 75.5821 16.6477C75.5822 16.6474 75.5822 16.6474 75.5822 16.6474C75.626 16.5872 75.6526 16.5148 75.6569 16.4365H75.6592V9.10151C75.6592 7.1563 77.235 5.57924 79.179 5.57924C81.1227 5.57924 82.6986 7.1563 82.6986 9.10151L82.7002 15.2325L82.7006 15.2304C82.7006 15.2359 82.7015 15.2414 82.7015 15.2473V16.4365H82.7038C82.7153 16.6454 82.8881 16.8131 83.0997 16.8131H84.8493C84.8761 16.8131 84.9023 16.8099 84.9276 16.805C84.938 16.803 84.9475 16.7989 84.9576 16.7961C84.972 16.7919 84.9866 16.7883 85.0005 16.7828C85.0147 16.7769 85.0277 16.7686 85.0413 16.761C85.0496 16.7564 85.0583 16.7529 85.0662 16.7476C85.0823 16.7371 85.0971 16.7243 85.1116 16.7115C85.1153 16.7081 85.1195 16.7056 85.123 16.702C85.1396 16.6861 85.1543 16.6688 85.1678 16.6507C85.1688 16.6493 85.1699 16.6482 85.1709 16.6469C85.214 16.5872 85.2404 16.5153 85.2449 16.4376C85.2449 16.4371 85.2451 16.4365 85.2451 16.4365H85.2474V15.6266L85.247 15.6264Z" fill="white"/>
<path fill-rule="evenodd" clip-rule="evenodd" d="M67.027 15.1993C67.0882 15.8956 67.6452 16.7819 68.61 16.7819H69.1747C69.3936 16.7819 69.5727 16.6025 69.5727 16.3835V3.96653H69.5704C69.559 3.75735 69.386 3.5898 69.1747 3.5898H67.4252C67.2137 3.5898 67.0408 3.75735 67.029 3.96653H67.027V4.97549C65.955 3.65424 64.2651 3.10583 62.5703 3.10583C58.7183 3.10583 55.5957 6.23093 55.5957 10.0862C55.5957 13.9416 58.7183 17.0667 62.5703 17.0667V17.0671C64.2651 17.0671 66.1121 16.4092 67.0268 15.1977L67.027 15.1993ZM62.5771 14.6237C60.1274 14.6237 58.1413 12.5924 58.1413 10.0862C58.1413 7.58038 60.1274 5.54892 62.5771 5.54892C65.0271 5.54892 67.0129 7.58038 67.0129 10.0862C67.0129 12.5924 65.0271 14.6237 62.5771 14.6237Z" fill="white"/>
<path fill-rule="evenodd" clip-rule="evenodd" d="M45.2498 13.421C46.4176 14.2307 47.6925 14.6239 48.9175 14.6239C50.0846 14.6239 51.2912 14.0184 51.2912 12.9645C51.2912 11.5574 48.6621 11.3385 47.0102 10.7766C45.358 10.2148 43.9351 9.05334 43.9351 7.17246C43.9351 4.29439 46.4975 3.10571 48.8892 3.10571C50.4045 3.10571 51.968 3.60579 52.9817 4.32216C53.3308 4.58687 53.1181 4.89079 53.1181 4.89079L52.1506 6.27382C52.0418 6.4296 51.8517 6.56419 51.5787 6.39558C51.3057 6.22709 50.3482 5.54887 48.8892 5.54887C47.43 5.54887 46.551 6.22328 46.551 7.05918C46.551 8.06155 47.6934 8.37682 49.0315 8.71847C51.3633 9.34751 53.907 10.1036 53.907 12.9645C53.907 15.5003 51.5369 17.0674 48.9175 17.0674C46.9325 17.0674 45.2425 16.5011 43.825 15.4601C43.5298 15.1644 43.736 14.8898 43.736 14.8898L44.6989 13.5138C44.8947 13.2565 45.1418 13.3462 45.2498 13.421Z" fill="white"/>
<path fill-rule="evenodd" clip-rule="evenodd" d="M38.5242 15.1993C38.5854 15.8956 39.1424 16.7819 40.1073 16.7819H40.6719C40.8907 16.7819 41.0701 16.6025 41.0701 16.3835V3.96653H41.0677C41.0563 3.75735 40.8835 3.5898 40.6719 3.5898H38.9225C38.7109 3.5898 38.5381 3.75735 38.5263 3.96653H38.5242V4.97549C37.4524 3.65424 35.7624 3.10583 34.0677 3.10583C30.2157 3.10583 27.093 6.23093 27.093 10.0862C27.093 13.9416 30.2157 17.0667 34.0677 17.0667V17.0671C35.7624 17.0671 37.6092 16.4092 38.524 15.1977L38.5242 15.1993ZM34.0746 14.6237C31.6247 14.6237 29.6385 12.5924 29.6385 10.0862C29.6385 7.58038 31.6247 5.54892 34.0746 5.54892C36.5244 5.54892 38.5102 7.58038 38.5102 10.0862C38.5102 12.5924 36.5244 14.6237 34.0746 14.6237Z" fill="white"/>
<path fill-rule="evenodd" clip-rule="evenodd" d="M17.3145 10.561C14.7222 10.561 12.6208 12.6625 12.6208 15.2549C12.6208 17.8473 14.7222 19.9488 17.3145 19.9488C19.9068 19.9488 22.0082 17.8473 22.0082 15.2549C22.0082 12.6625 19.9068 10.561 17.3145 10.561ZM5.11967 10.5614C2.5274 10.5614 0.425903 12.6625 0.425903 15.2549C0.425903 17.8473 2.5274 19.9488 5.11967 19.9488C7.71206 19.9488 9.81365 17.8473 9.81365 15.2549C9.81365 12.6625 7.71206 10.5614 5.11967 10.5614ZM15.9108 4.69367C15.9108 7.28615 13.8093 9.38786 11.2171 9.38786C8.6247 9.38786 6.52331 7.28615 6.52331 4.69367C6.52331 2.1017 8.6247 0 11.2171 0C13.8093 0 15.9108 2.1017 15.9108 4.69367Z" fill="white"/>
</g>
<defs>
<clipPath id="clip0_1_1015">
<rect width="101.01" height="20" fill="white" transform="translate(0.425903)"/>
</clipPath>
</defs>
</svg>
