<svg width="123" height="20" viewBox="0 0 123 20" fill="none" xmlns="http://www.w3.org/2000/svg">
<g clip-path="url(#clip0_1_1043)">
<path d="M5.37073 9.35133C5.14742 9.10502 4.81244 9.12745 4.65611 9.4185L1.03835 16.6944C0.904354 16.9855 1.10534 17.3213 1.41799 17.3213H6.465C6.62132 17.3213 6.77765 17.2318 6.84464 17.0751C7.96123 14.8139 7.29129 11.3886 5.37073 9.35133Z" fill="white"/>
<path d="M8.02845 2.72418C5.99627 5.948 6.13026 9.50764 7.47016 12.1941C8.81011 14.8807 9.83733 16.9179 9.90438 17.0746C9.97136 17.2314 10.1277 17.3209 10.284 17.3209H15.331C15.6436 17.3209 15.867 16.9851 15.7106 16.694C15.7106 16.694 8.92177 3.08238 8.74307 2.74656C8.63141 2.43314 8.22945 2.41075 8.02845 2.72418Z" fill="white"/>
<path d="M76.6321 13.7178C76.6321 11.591 75.4932 10.5835 72.3218 9.88956C70.5577 9.50898 70.1333 9.10596 70.1333 8.5463C70.1333 7.85228 70.759 7.53886 71.9204 7.53886C73.3271 7.53886 74.7115 7.96422 76.0294 8.56869V5.77024C75.1135 5.30009 73.6844 4.94189 72.0092 4.94189C68.8608 4.94189 67.2304 6.30754 67.2304 8.56869C67.2304 10.3597 68.0568 11.7925 71.317 12.4193C73.26 12.8223 73.662 13.1358 73.662 13.785C73.662 14.4118 73.26 14.8148 71.8756 14.8148C70.2899 14.8148 68.3917 14.2776 67.1633 13.5388V16.4715C68.1463 16.9641 69.4412 17.5013 71.8533 17.5013C75.2701 17.5013 76.6321 15.979 76.6321 13.7178Z" fill="white"/>
<path d="M110.979 5.12146V17.3227H113.569V8.03185L114.664 10.4945L118.326 17.3227H121.587V5.12146H118.996V13.0019L118.013 10.7184L115.066 5.12146H110.979Z" fill="white"/>
<path d="M94.5208 5.12146H91.6843V17.3004H94.5208V5.12146Z" fill="white"/>
<path d="M88.4014 13.7178C88.4014 11.591 87.2625 10.5835 84.0911 9.88956C82.3271 9.50898 81.9027 9.10596 81.9027 8.5463C81.9027 7.85228 82.5284 7.53886 83.6891 7.53886C85.0965 7.53886 86.4808 7.96422 87.7987 8.56869V5.77024C86.8828 5.30009 85.4537 4.94189 83.7786 4.94189C80.6302 4.94189 78.9997 6.30754 78.9997 8.56869C78.9997 10.3597 79.8261 11.7925 83.0864 12.4193C85.0293 12.8223 85.4314 13.1358 85.4314 13.785C85.4314 14.4118 85.0293 14.8148 83.645 14.8148C82.0593 14.8148 80.161 14.2776 78.9326 13.5388V16.4715C79.915 16.9641 81.2105 17.5013 83.6226 17.5013C87.0612 17.5013 88.4014 15.979 88.4014 13.7178Z" fill="white"/>
<path d="M45.2563 5.12146V17.3227H51.0626L51.9782 14.681H48.0925V5.12146H45.2563Z" fill="white"/>
<path d="M33.7551 5.12146V7.76321H36.9039V17.3228H39.7401V7.76321H43.1122V5.12146H33.7551Z" fill="white"/>
<path d="M29.6238 5.12085H25.8944L21.6513 17.2997H24.8894L25.4924 15.24C26.207 15.4416 26.9663 15.5759 27.7703 15.5759C28.5519 15.5759 29.3112 15.4639 30.0481 15.24L30.6511 17.2997H33.8892L29.6238 5.12085ZM27.748 13.0685C27.212 13.0685 26.676 12.9789 26.1847 12.8446L27.748 7.51633L29.3112 12.8446C28.8199 12.9789 28.3063 13.0685 27.748 13.0685Z" fill="white"/>
<path d="M61.112 5.12085H57.3826L53.1395 17.2998H56.3777L56.9806 15.2401C57.6952 15.4415 58.4545 15.5759 59.2584 15.5759C60.0401 15.5759 60.7994 15.464 61.5363 15.2401L62.1393 17.2998H65.3774L61.112 5.12085ZM59.2361 13.0685C58.7002 13.0685 58.1642 12.9789 57.6729 12.8446L59.2361 7.51633L60.7993 12.8446C60.3081 12.9789 59.7721 13.0685 59.2361 13.0685Z" fill="white"/>
<path d="M104.704 5.12085H100.974L96.7314 17.2998H99.9693L100.572 15.2401C101.287 15.4415 102.047 15.5759 102.85 15.5759C103.632 15.5759 104.391 15.464 105.128 15.2401L105.731 17.2998H108.969L104.704 5.12085ZM102.85 13.0685C102.314 13.0685 101.778 12.9789 101.287 12.8446L102.85 7.51633L104.413 12.8446C103.9 12.9789 103.386 13.0685 102.85 13.0685Z" fill="white"/>
</g>
<defs>
<clipPath id="clip0_1_1043">
<rect width="121.875" height="20" fill="white" transform="translate(0.371155)"/>
</clipPath>
</defs>
</svg>
