<svg width="25" height="24" viewBox="0 0 25 24" fill="none" xmlns="http://www.w3.org/2000/svg">
<g clip-path="url(#clip0_1_2848)">
<path d="M7.263 10.0362C7.263 10.3322 7.295 10.5712 7.351 10.7462C7.415 10.9222 7.495 11.1142 7.607 11.3222C7.647 11.3852 7.663 11.4492 7.663 11.5052C7.663 11.5852 7.615 11.6652 7.511 11.7452L7.008 12.0802C6.9472 12.1241 6.87488 12.1491 6.8 12.1522C6.72 12.1522 6.64 12.1122 6.561 12.0402C6.45357 11.9247 6.35747 11.7991 6.274 11.6652C6.18461 11.5119 6.10186 11.3547 6.026 11.1942C5.404 11.9282 4.621 12.2952 3.679 12.2952C3.009 12.2952 2.474 12.1042 2.083 11.7212C1.692 11.3372 1.493 10.8272 1.493 10.1882C1.493 9.51022 1.732 8.95822 2.219 8.54422C2.706 8.12922 3.352 7.92122 4.174 7.92122C4.446 7.92122 4.725 7.94522 5.02 7.98522C5.316 8.02522 5.62 8.08922 5.938 8.16122V7.57822C5.938 6.97122 5.811 6.54822 5.563 6.30122C5.308 6.05322 4.877 5.93422 4.263 5.93422C3.983 5.93422 3.695 5.96522 3.4 6.03722C3.105 6.10922 2.817 6.19722 2.538 6.30922C2.44703 6.34995 2.3535 6.38469 2.258 6.41322C2.21687 6.42647 2.17416 6.43421 2.131 6.43622C2.019 6.43622 1.963 6.35622 1.963 6.18922V5.79822C1.963 5.67022 1.979 5.57422 2.019 5.51822C2.0794 5.44562 2.15617 5.38838 2.243 5.35122C2.522 5.20722 2.857 5.08722 3.248 4.99122C3.65502 4.88702 4.07387 4.83626 4.494 4.84022C5.444 4.84022 6.138 5.05622 6.585 5.48722C7.024 5.91722 7.247 6.57222 7.247 7.45022V10.0362H7.263ZM4.023 11.2502C4.286 11.2502 4.557 11.2022 4.845 11.1062C5.132 11.0102 5.388 10.8352 5.603 10.5962C5.731 10.4442 5.827 10.2762 5.875 10.0842C5.922 9.89322 5.955 9.66122 5.955 9.39022V9.05522C5.71274 8.99616 5.46735 8.95076 5.22 8.91922C4.97124 8.88761 4.72075 8.87158 4.47 8.87122C3.935 8.87122 3.544 8.97522 3.28 9.19122C3.017 9.40622 2.89 9.70922 2.89 10.1082C2.89 10.4832 2.985 10.7632 3.185 10.9542C3.376 11.1542 3.655 11.2502 4.023 11.2502ZM10.433 12.1122C10.289 12.1122 10.193 12.0882 10.129 12.0322C10.065 11.9842 10.009 11.8722 9.961 11.7212L8.086 5.55022C8.04952 5.44675 8.02536 5.33934 8.014 5.23022C8.014 5.10222 8.078 5.03022 8.205 5.03022H8.988C9.139 5.03022 9.243 5.05522 9.298 5.11022C9.363 5.15822 9.411 5.27022 9.458 5.42222L10.8 10.7062L12.045 5.42222C12.085 5.26222 12.133 5.15822 12.196 5.11022C12.2919 5.05138 12.4037 5.02345 12.516 5.03022H13.154C13.306 5.03022 13.41 5.05522 13.474 5.11022C13.537 5.15822 13.594 5.27022 13.625 5.42222L14.886 10.7702L16.267 5.42222C16.315 5.26222 16.371 5.15822 16.427 5.11022C16.5196 5.05141 16.6285 5.02341 16.738 5.03022H17.481C17.608 5.03022 17.681 5.09522 17.681 5.23022C17.681 5.27022 17.672 5.31022 17.664 5.35822C17.6515 5.42645 17.6327 5.4934 17.608 5.55822L15.685 11.7282C15.637 11.8882 15.581 11.9912 15.517 12.0392C15.4269 12.097 15.3209 12.125 15.214 12.1192H14.527C14.376 12.1192 14.272 12.0952 14.207 12.0392C14.144 11.9832 14.088 11.8792 14.057 11.7192L12.819 6.57122L11.589 11.7112C11.549 11.8712 11.502 11.9752 11.439 12.0312C11.374 12.0872 11.262 12.1112 11.119 12.1112L10.433 12.1122ZM20.689 12.3272C20.274 12.3272 19.859 12.2792 19.46 12.1842C19.061 12.0882 18.75 11.9842 18.542 11.8642C18.414 11.7932 18.327 11.7132 18.295 11.6412C18.2638 11.5706 18.2475 11.4944 18.247 11.4172V11.0102C18.247 10.8432 18.311 10.7632 18.43 10.7632C18.478 10.7632 18.526 10.7712 18.574 10.7872C18.622 10.8032 18.694 10.8352 18.774 10.8672C19.045 10.9872 19.34 11.0822 19.652 11.1462C19.971 11.2102 20.282 11.2422 20.602 11.2422C21.104 11.2422 21.496 11.1542 21.767 10.9782C21.8969 10.8997 22.0037 10.7883 22.0766 10.6551C22.1495 10.522 22.1859 10.3719 22.182 10.2202C22.1849 10.1175 22.1674 10.0151 22.1305 9.91917C22.0936 9.82322 22.038 9.73554 21.967 9.66122C21.823 9.51022 21.551 9.37422 21.16 9.24622L20.003 8.88622C19.42 8.70322 18.989 8.43222 18.726 8.07322C18.4686 7.7419 18.328 7.33477 18.326 6.91522C18.326 6.58022 18.399 6.28522 18.542 6.02922C18.686 5.77422 18.877 5.55022 19.117 5.37522C19.357 5.19122 19.627 5.05522 19.947 4.96022C20.267 4.86422 20.602 4.82422 20.953 4.82422C21.128 4.82422 21.312 4.83222 21.488 4.85622C21.671 4.88022 21.838 4.91222 22.006 4.94422C22.166 4.98422 22.318 5.02422 22.461 5.07122C22.605 5.11922 22.717 5.16722 22.797 5.21522C22.8912 5.26266 22.9733 5.33108 23.037 5.41522C23.0885 5.49287 23.1135 5.58517 23.108 5.67822V6.05322C23.108 6.22122 23.044 6.30922 22.924 6.30922C22.8178 6.29704 22.7149 6.26444 22.621 6.21322C22.1388 6.00019 21.6161 5.89409 21.089 5.90222C20.634 5.90222 20.274 5.97322 20.027 6.12522C19.779 6.27722 19.652 6.50822 19.652 6.83522C19.652 7.05922 19.732 7.25122 19.892 7.40222C20.051 7.55422 20.346 7.70622 20.769 7.84222L21.903 8.20022C22.477 8.38422 22.893 8.64022 23.14 8.96722C23.387 9.29422 23.507 9.66922 23.507 10.0842C23.507 10.4272 23.435 10.7392 23.3 11.0102C23.156 11.2822 22.964 11.5212 22.717 11.7132C22.469 11.9132 22.174 12.0562 21.831 12.1602C21.471 12.2712 21.097 12.3272 20.689 12.3272ZM22.198 16.2072C19.572 18.1472 15.756 19.1762 12.476 19.1762C7.878 19.1762 3.736 17.4762 0.605998 14.6502C0.358998 14.4272 0.581998 14.1232 0.877998 14.2992C4.262 16.2622 8.437 17.4522 12.755 17.4522C15.669 17.4522 18.869 16.8452 21.815 15.6002C22.254 15.4002 22.629 15.8872 22.198 16.2072ZM23.292 14.9612C22.956 14.5312 21.072 14.7542 20.218 14.8582C19.963 14.8902 19.923 14.6662 20.155 14.4982C21.655 13.4452 24.122 13.7482 24.409 14.0992C24.696 14.4592 24.329 16.9252 22.924 18.1062C22.709 18.2902 22.501 18.1942 22.597 17.9552C22.917 17.1652 23.627 15.3852 23.292 14.9612Z" fill="white"/>
</g>
<defs>
<clipPath id="clip0_1_2848">
<rect width="24" height="24" fill="white" transform="translate(0.5)"/>
</clipPath>
</defs>
</svg>
