<svg width="44" height="44" viewBox="0 0 44 44" fill="none" xmlns="http://www.w3.org/2000/svg">
<rect width="44" height="44" rx="22" fill="url(#paint0_linear_2047_1489)" fill-opacity="0.15"/>
<rect x="0.5" y="0.5" width="43" height="43" rx="21.5" stroke="url(#paint1_linear_2047_1489)" stroke-opacity="0.2"/>
<rect x="0.5" y="0.5" width="43" height="43" rx="21.5" stroke="url(#paint2_linear_2047_1489)" stroke-opacity="0.3"/>
<path fill-rule="evenodd" clip-rule="evenodd" d="M17.5 16V16.75H15.5129C14.5533 16.75 13.7486 17.4744 13.6482 18.4287L12.385 30.4287C12.2685 31.5358 13.1365 32.5 14.2497 32.5H29.7504C30.8636 32.5 31.7317 31.5358 31.6151 30.4287L30.352 18.4287C30.2515 17.4744 29.4468 16.75 28.4873 16.75H26.5V16C26.5 13.5147 24.4853 11.5 22 11.5C19.5147 11.5 17.5 13.5147 17.5 16ZM22 13C20.3431 13 19 14.3431 19 16V16.75H25V16C25 14.3431 23.6569 13 22 13ZM19 21.25C19 22.9069 20.3431 24.25 22 24.25C23.6569 24.25 25 22.9069 25 21.25V20.5C25 20.0858 25.3358 19.75 25.75 19.75C26.1642 19.75 26.5 20.0858 26.5 20.5V21.25C26.5 23.7353 24.4853 25.75 22 25.75C19.5147 25.75 17.5 23.7353 17.5 21.25V20.5C17.5 20.0858 17.8358 19.75 18.25 19.75C18.6642 19.75 19 20.0858 19 20.5V21.25Z" fill="white"/>
<defs>
<linearGradient id="paint0_linear_2047_1489" x1="58.0345" y1="-13.6552" x2="-1.72956e-06" y2="44" gradientUnits="userSpaceOnUse">
<stop offset="0.545273" stop-color="white" stop-opacity="0"/>
<stop offset="1" stop-color="white"/>
</linearGradient>
<linearGradient id="paint1_linear_2047_1489" x1="44" y1="-2.6226e-06" x2="-2.6226e-06" y2="44" gradientUnits="userSpaceOnUse">
<stop stop-color="white"/>
<stop offset="0.419845" stop-color="white" stop-opacity="0"/>
</linearGradient>
<linearGradient id="paint2_linear_2047_1489" x1="44" y1="-2.6226e-06" x2="-2.6226e-06" y2="44" gradientUnits="userSpaceOnUse">
<stop offset="0.710304" stop-color="white" stop-opacity="0"/>
<stop offset="0.89681" stop-color="white"/>
</linearGradient>
</defs>
</svg>
