<svg width="25" height="20" viewBox="0 0 25 20" fill="none" xmlns="http://www.w3.org/2000/svg">
<path fill-rule="evenodd" clip-rule="evenodd" d="M5.48488 0C4.11546 0 3.10217 1.19858 3.14753 2.49844C3.19105 3.74725 3.13451 5.36461 2.72732 6.68359C2.31892 8.0064 1.6282 8.8444 0.5 8.952V10.1666C1.6282 10.2742 2.31892 11.1122 2.72732 12.4351C3.13451 13.754 3.19105 15.3714 3.14753 16.6202C3.10217 17.9199 4.11546 19.1186 5.48508 19.1186H19.5169C20.8864 19.1186 21.8995 17.9201 21.8541 16.6202C21.8106 15.3714 21.8671 13.754 22.2743 12.4351C22.6829 11.1122 23.3718 10.2742 24.5 10.1666V8.952C23.3718 8.8444 22.6829 8.0064 22.2743 6.68359C21.8671 5.36481 21.8106 3.74725 21.8541 2.49844C21.8995 1.19878 20.8864 0 19.5169 0H5.48488ZM16.7712 11.7687C16.7712 13.5586 15.4361 14.6441 13.2206 14.6441H9.44915C9.34127 14.6441 9.2378 14.6012 9.16152 14.5249C9.08523 14.4486 9.04237 14.3452 9.04237 14.2373V4.88136C9.04237 4.77347 9.08523 4.67001 9.16152 4.59372C9.2378 4.51743 9.34127 4.47458 9.44915 4.47458H13.1991C15.0464 4.47458 16.2588 5.47525 16.2588 7.01166C16.2588 8.09 15.4433 9.0555 14.4041 9.2245V9.2809C15.8187 9.4361 16.7712 10.4156 16.7712 11.7687ZM12.8094 5.76407H10.6589V8.8015H12.4701C13.8702 8.8015 14.6423 8.2377 14.6423 7.2299C14.6423 6.28556 13.9784 5.76407 12.8094 5.76407ZM10.6589 10.0068V13.3542H12.8885C14.3462 13.3542 15.1184 12.7692 15.1184 11.6699C15.1184 10.5704 14.3246 10.0066 12.7947 10.0066L10.6589 10.0068Z" fill="white"/>
</svg>
