<svg width="238" height="200" viewBox="0 0 238 200" fill="none" xmlns="http://www.w3.org/2000/svg">
<g opacity="0.7">
<path opacity="0.3" d="M90.9905 -0.717166C90.8166 -0.604051 90.7672 -0.371058 90.88 -0.196756C90.9928 -0.0224541 91.2253 0.0271593 91.3991 -0.0859561C91.573 -0.199071 91.6225 -0.432074 91.5097 -0.606376C91.3968 -0.780679 91.1644 -0.830281 90.9905 -0.717166Z" fill="white"/>
<path d="M60.0723 18.9462C59.8113 19.116 59.737 19.4657 59.9064 19.7273C60.0757 19.9889 60.4246 20.0633 60.6856 19.8936C60.9465 19.7238 61.0208 19.3741 60.8514 19.1125C60.6821 18.8509 60.3332 18.7764 60.0723 18.9462Z" fill="white"/>
<path opacity="0.3" d="M109.199 0.449003C108.851 0.675426 108.752 1.14181 108.978 1.49071C109.204 1.83961 109.669 1.9389 110.017 1.71247C110.365 1.48605 110.464 1.01966 110.238 0.670755C110.012 0.321854 109.547 0.222579 109.199 0.449003Z" fill="white"/>
<path opacity="0.11" d="M82.5478 -0.612049C82.1998 -0.385625 82.1007 0.0807565 82.3266 0.429658C82.5525 0.778559 83.0177 0.877861 83.3658 0.651437C83.7139 0.425014 83.8129 -0.041395 83.587 -0.390296C83.3612 -0.739197 82.8959 -0.838472 82.5478 -0.612049Z" fill="white"/>
<path opacity="0.11" d="M155.33 88.178C154.982 88.4044 154.883 88.8708 155.109 89.2197C155.334 89.5686 155.8 89.6679 156.148 89.4415C156.496 89.215 156.595 88.7486 156.369 88.3997C156.143 88.0508 155.678 87.9516 155.33 88.178Z" fill="white"/>
<path d="M151.035 86.0356C150.775 86.2053 150.7 86.5551 150.87 86.8167C151.039 87.0783 151.388 87.1527 151.649 86.9829C151.91 86.8132 151.984 86.4635 151.815 86.2019C151.645 85.9403 151.296 85.8658 151.035 86.0356Z" fill="white"/>
<path d="M144.932 99.4281C144.671 99.5978 144.597 99.9475 144.766 100.209C144.935 100.471 145.284 100.545 145.545 100.375C145.806 100.206 145.88 99.8559 145.711 99.5943C145.542 99.3327 145.193 99.2583 144.932 99.4281Z" fill="white"/>
<path d="M172.116 82.6435C171.855 82.8133 171.781 83.163 171.95 83.4246C172.12 83.6862 172.469 83.7606 172.729 83.5908C172.99 83.4211 173.065 83.0714 172.895 82.8098C172.726 82.5482 172.377 82.4737 172.116 82.6435Z" fill="white"/>
<path opacity="0.11" d="M182.803 64.9219C182.455 65.1483 182.356 65.6147 182.582 65.9636C182.808 66.3125 183.273 66.4118 183.621 66.1854C183.969 65.9589 184.069 65.4925 183.843 65.1436C183.617 64.7947 183.152 64.6955 182.803 64.9219Z" fill="white"/>
<path d="M193.283 67.9754C193.109 68.0885 193.06 68.3215 193.173 68.4958C193.285 68.6701 193.518 68.7197 193.692 68.6065C193.866 68.4934 193.915 68.2604 193.802 68.0861C193.689 67.9118 193.457 67.8622 193.283 67.9754Z" fill="white"/>
<path d="M148.306 75.248C148.132 75.3612 148.083 75.5942 148.196 75.7685C148.308 75.9428 148.541 75.9924 148.715 75.8793C148.889 75.7661 148.938 75.5331 148.825 75.3588C148.712 75.1845 148.48 75.1349 148.306 75.248Z" fill="white"/>
<path d="M79.6363 119.917C79.4624 120.03 79.4129 120.263 79.5258 120.438C79.6386 120.612 79.8711 120.661 80.0449 120.548C80.2188 120.435 80.2683 120.202 80.1555 120.028C80.0426 119.854 79.8102 119.804 79.6363 119.917Z" fill="white"/>
<path d="M56.3434 159.303C56.1695 159.417 56.12 159.65 56.2328 159.824C56.3457 159.998 56.5781 160.048 56.752 159.935C56.9259 159.822 56.9754 159.589 56.8625 159.414C56.7497 159.24 56.5172 159.19 56.3434 159.303Z" fill="white"/>
<path d="M29.1343 144.244C28.9605 144.358 28.911 144.59 29.0238 144.765C29.1367 144.939 29.3691 144.989 29.543 144.876C29.7169 144.762 29.7663 144.529 29.6535 144.355C29.5407 144.181 29.3082 144.131 29.1343 144.244Z" fill="white"/>
<path opacity="0.11" d="M193.462 62.0271C193.288 62.1402 193.239 62.3732 193.352 62.5475C193.464 62.7218 193.697 62.7714 193.871 62.6583C194.045 62.5452 194.094 62.3122 193.981 62.1379C193.868 61.9636 193.636 61.914 193.462 62.0271Z" fill="white"/>
<path opacity="0.11" d="M141.572 63.4713C141.399 63.5844 141.349 63.8174 141.462 63.9917C141.575 64.166 141.807 64.2156 141.981 64.1025C142.155 63.9894 142.204 63.7564 142.092 63.5821C141.979 63.4078 141.746 63.3582 141.572 63.4713Z" fill="white"/>
<path opacity="0.11" d="M83.1431 105.972C82.9692 106.085 82.9197 106.318 83.0325 106.492C83.1454 106.666 83.3778 106.716 83.5517 106.603C83.7256 106.49 83.7751 106.257 83.6622 106.082C83.5494 105.908 83.3169 105.858 83.1431 105.972Z" fill="white"/>
<path d="M187.519 96.4071C187.345 96.5202 187.295 96.7532 187.408 96.9275C187.521 97.1018 187.753 97.1514 187.927 97.0383C188.101 96.9252 188.151 96.6922 188.038 96.5179C187.925 96.3436 187.692 96.294 187.519 96.4071Z" fill="white"/>
<path d="M139.419 128.594C139.245 128.707 139.196 128.94 139.309 129.114C139.421 129.288 139.654 129.338 139.828 129.225C140.002 129.112 140.051 128.879 139.938 128.705C139.825 128.53 139.593 128.481 139.419 128.594Z" fill="white"/>
<path d="M190.131 53.4237C189.957 53.5368 189.907 53.7698 190.02 53.9441C190.133 54.1184 190.365 54.168 190.539 54.0549C190.713 53.9418 190.763 53.7088 190.65 53.5345C190.537 53.3602 190.304 53.3106 190.131 53.4237Z" fill="white"/>
<path opacity="0.3" d="M212.18 39.0798C212.006 39.193 211.957 39.426 212.07 39.6003C212.183 39.7746 212.415 39.8242 212.589 39.711C212.763 39.5979 212.812 39.3649 212.699 39.1906C212.587 39.0163 212.354 38.9667 212.18 39.0798Z" fill="white"/>
<path opacity="0.3" d="M176.939 92.5179C176.765 92.6311 176.716 92.864 176.829 93.0384C176.941 93.2127 177.174 93.2623 177.348 93.1492C177.522 93.036 177.571 92.803 177.458 92.6287C177.345 92.4544 177.113 92.4048 176.939 92.5179Z" fill="white"/>
<path opacity="0.3" d="M180.889 50.9082C180.716 51.0213 180.666 51.2543 180.779 51.4286C180.892 51.6029 181.124 51.6525 181.298 51.5394C181.472 51.4263 181.521 51.1933 181.409 51.019C181.296 50.8447 181.063 50.7951 180.889 50.9082Z" fill="white"/>
<path opacity="0.3" d="M216.961 22.9569C216.787 23.07 216.737 23.303 216.85 23.4773C216.963 23.6516 217.195 23.7012 217.369 23.5881C217.543 23.475 217.593 23.242 217.48 23.0677C217.367 22.8934 217.135 22.8438 216.961 22.9569Z" fill="white"/>
<path opacity="0.3" d="M44.4846 166.568C44.3107 166.682 44.2613 166.915 44.3741 167.089C44.4869 167.263 44.7194 167.313 44.8933 167.2C45.0671 167.087 45.1166 166.854 45.0038 166.679C44.8909 166.505 44.6585 166.455 44.4846 166.568Z" fill="white"/>
<path opacity="0.11" d="M103.578 146.525C103.405 146.638 103.355 146.871 103.468 147.045C103.581 147.219 103.813 147.269 103.987 147.156C104.161 147.043 104.21 146.81 104.098 146.635C103.985 146.461 103.752 146.411 103.578 146.525Z" fill="white"/>
<path opacity="0.11" d="M44.199 147.46C44.0252 147.573 43.9757 147.806 44.0885 147.98C44.2014 148.155 44.4338 148.204 44.6077 148.091C44.7816 147.978 44.831 147.745 44.7182 147.571C44.6054 147.396 44.3729 147.347 44.199 147.46Z" fill="white"/>
<path opacity="0.3" d="M122.052 92.775C121.703 93.0014 121.604 93.4678 121.83 93.8167C122.056 94.1656 122.521 94.2649 122.87 94.0385C123.218 93.8121 123.317 93.3457 123.091 92.9968C122.865 92.6479 122.4 92.5486 122.052 92.775Z" fill="white"/>
<path opacity="0.11" d="M109.599 114.337C109.251 114.564 109.152 115.03 109.378 115.379C109.603 115.728 110.069 115.827 110.417 115.601C110.765 115.374 110.864 114.908 110.638 114.559C110.412 114.21 109.947 114.111 109.599 114.337Z" fill="white"/>
<path d="M116.908 125.286C116.647 125.456 116.573 125.806 116.742 126.068C116.912 126.329 117.26 126.404 117.521 126.234C117.782 126.064 117.857 125.714 117.687 125.453C117.518 125.191 117.169 125.117 116.908 125.286Z" fill="white"/>
<path d="M117.178 77.9945C116.917 78.1642 116.843 78.5139 117.013 78.7755C117.182 79.0371 117.531 79.1116 117.792 78.9418C118.053 78.772 118.127 78.4223 117.958 78.1607C117.788 77.8991 117.439 77.8247 117.178 77.9945Z" fill="white"/>
<path d="M8.51562 139.708C8.25465 139.878 8.1804 140.228 8.34976 140.49C8.51912 140.751 8.86795 140.826 9.12892 140.656C9.38989 140.486 9.46418 140.136 9.29482 139.875C9.12546 139.613 8.77659 139.539 8.51562 139.708Z" fill="white"/>
<path d="M216.419 12.0914C216.158 12.2611 216.084 12.6108 216.253 12.8724C216.423 13.134 216.772 13.2085 217.033 13.0387C217.294 12.869 217.368 12.5192 217.199 12.2576C217.029 11.996 216.68 11.9216 216.419 12.0914Z" fill="white"/>
<path d="M127.937 109.136C127.676 109.305 127.602 109.655 127.771 109.917C127.94 110.178 128.289 110.253 128.55 110.083C128.811 109.913 128.885 109.563 128.716 109.302C128.547 109.04 128.198 108.966 127.937 109.136Z" fill="white"/>
<path d="M167.619 50.1173C167.358 50.287 167.284 50.6367 167.454 50.8983C167.623 51.1599 167.972 51.2344 168.233 51.0646C168.494 50.8948 168.568 50.5451 168.399 50.2835C168.229 50.0219 167.88 49.9475 167.619 50.1173Z" fill="white"/>
<path d="M79.4529 88.176C79.1919 88.3457 79.1177 88.6954 79.287 88.957C79.4564 89.2186 79.8052 89.2931 80.0662 89.1233C80.3271 88.9535 80.4014 88.6038 80.2321 88.3422C80.0627 88.0806 79.7138 88.0062 79.4529 88.176Z" fill="white"/>
<path d="M9.88446 163.948C9.62349 164.118 9.54924 164.467 9.71859 164.729C9.88795 164.991 10.2368 165.065 10.4978 164.895C10.7587 164.726 10.833 164.376 10.6636 164.114C10.4943 163.853 10.1454 163.778 9.88446 163.948Z" fill="white"/>
<path d="M13.5664 186.231C13.3054 186.401 13.2312 186.75 13.4005 187.012C13.5699 187.273 13.9187 187.348 14.1797 187.178C14.4407 187.008 14.5149 186.659 14.3456 186.397C14.1762 186.135 13.8274 186.061 13.5664 186.231Z" fill="white"/>
<path opacity="0.3" d="M90.7151 141.877C90.367 142.103 90.268 142.57 90.4939 142.918C90.7197 143.267 91.185 143.367 91.5331 143.14C91.8811 142.914 91.9802 142.447 91.7543 142.098C91.5284 141.75 91.0632 141.65 90.7151 141.877Z" fill="white"/>
<path d="M105.231 164.293C104.883 164.52 104.784 164.986 105.01 165.335C105.236 165.684 105.701 165.783 106.049 165.557C106.398 165.331 106.497 164.864 106.271 164.515C106.045 164.166 105.58 164.067 105.231 164.293Z" fill="white"/>
<path d="M69.9967 145.482C69.7358 145.652 69.6615 146.002 69.8309 146.263C70.0002 146.525 70.3491 146.599 70.61 146.43C70.871 146.26 70.9453 145.91 70.7759 145.649C70.6066 145.387 70.2577 145.312 69.9967 145.482Z" fill="white"/>
<path opacity="0.3" d="M62.6913 167.735C62.3432 167.961 62.2442 168.428 62.47 168.777C62.6959 169.125 63.1612 169.225 63.5092 168.998C63.8573 168.772 63.9563 168.306 63.7305 167.957C63.5046 167.608 63.0393 167.508 62.6913 167.735Z" fill="white"/>
<path opacity="0.3" d="M16.9964 165.602C16.6484 165.829 16.5493 166.295 16.7752 166.644C17.0011 166.993 17.4663 167.092 17.8144 166.866C18.1625 166.639 18.2615 166.173 18.0356 165.824C17.8098 165.475 17.3445 165.376 16.9964 165.602Z" fill="white"/>
<path opacity="0.3" d="M53.4407 140.997C53.0927 141.224 52.9936 141.69 53.2195 142.039C53.4453 142.388 53.9106 142.487 54.2587 142.261C54.6067 142.034 54.7058 141.568 54.4799 141.219C54.254 140.87 53.7888 140.771 53.4407 140.997Z" fill="white"/>
<path opacity="0.3" d="M230.768 18.0129C230.42 18.2394 230.321 18.7058 230.546 19.0547C230.772 19.4036 231.238 19.5029 231.586 19.2764C231.934 19.05 232.033 18.5836 231.807 18.2347C231.581 17.8858 231.116 17.7865 230.768 18.0129Z" fill="white"/>
<path opacity="0.11" d="M36.042 166.673C35.6939 166.9 35.5949 167.366 35.8207 167.715C36.0466 168.064 36.5119 168.163 36.8599 167.937C37.208 167.71 37.307 167.244 37.0812 166.895C36.8553 166.546 36.39 166.447 36.042 166.673Z" fill="white"/>
<path opacity="0.3" d="M229.435 58.8167C229.087 59.0431 228.988 59.5095 229.214 59.8584C229.44 60.2073 229.905 60.3066 230.253 60.0801C230.601 59.8537 230.7 59.3873 230.474 59.0384C230.248 58.6895 229.783 58.5902 229.435 58.8167Z" fill="white"/>
<path opacity="0.3" d="M231.462 37.7531C231.114 37.9795 231.015 38.4459 231.241 38.7948C231.467 39.1437 231.932 39.243 232.28 39.0165C232.629 38.7901 232.728 38.3237 232.502 37.9748C232.276 37.6259 231.811 37.5266 231.462 37.7531Z" fill="white"/>
<path d="M211.984 50.8751C211.723 51.0448 211.648 51.3945 211.818 51.6561C211.987 51.9177 212.336 51.9922 212.597 51.8224C212.858 51.6526 212.932 51.303 212.763 51.0414C212.593 50.7798 212.245 50.7053 211.984 50.8751Z" fill="white"/>
<path d="M60.6497 73.1821C60.4759 73.2952 60.4264 73.5282 60.5392 73.7025C60.6521 73.8768 60.8845 73.9265 61.0584 73.8133C61.2323 73.7002 61.2818 73.4672 61.1689 73.2929C61.0561 73.1186 60.8236 73.069 60.6497 73.1821Z" fill="white"/>
<path opacity="0.11" d="M76.4093 87.1597C76.2355 87.2728 76.186 87.5058 76.2988 87.6801C76.4117 87.8544 76.6441 87.904 76.818 87.7909C76.9919 87.6778 77.0413 87.4448 76.9285 87.2705C76.8157 87.0962 76.5832 87.0466 76.4093 87.1597Z" fill="white"/>
<path opacity="0.11" d="M85.2506 71.0865C85.0767 71.1997 85.0272 71.4327 85.14 71.607C85.2529 71.7813 85.4853 71.8309 85.6592 71.7178C85.8331 71.6046 85.8826 71.3716 85.7697 71.1973C85.6569 71.023 85.4244 70.9734 85.2506 71.0865Z" fill="white"/>
<path opacity="0.11" d="M62.5916 58.9031C62.4178 59.0162 62.3683 59.2492 62.4811 59.4235C62.594 59.5978 62.8264 59.6474 63.0003 59.5343C63.1742 59.4212 63.2236 59.1882 63.1108 59.0139C62.998 58.8396 62.7655 58.79 62.5916 58.9031Z" fill="white"/>
<path opacity="0.3" d="M51.2679 90.5026C51.094 90.6157 51.0445 90.8487 51.1573 91.023C51.2702 91.1973 51.5026 91.2469 51.6765 91.1338C51.8504 91.0207 51.8999 90.7877 51.787 90.6134C51.6742 90.439 51.4417 90.3895 51.2679 90.5026Z" fill="white"/>
<path opacity="0.3" d="M14.5228 97.3541C14.3489 97.4672 14.2994 97.7002 14.4123 97.8745C14.5251 98.0488 14.7575 98.0984 14.9314 97.9853C15.1053 97.8722 15.1548 97.6392 15.0419 97.4649C14.9291 97.2906 14.6967 97.241 14.5228 97.3541Z" fill="white"/>
<path opacity="0.11" d="M53.0212 100.13C52.8473 100.243 52.7979 100.476 52.9107 100.65C53.0235 100.824 53.256 100.874 53.4298 100.761C53.6037 100.648 53.6532 100.415 53.5404 100.241C53.4275 100.066 53.1951 100.017 53.0212 100.13Z" fill="white"/>
<path opacity="0.3" d="M19.3032 81.2313C19.1293 81.3444 19.0798 81.5774 19.1927 81.7517C19.3055 81.926 19.5379 81.9757 19.7118 81.8625C19.8857 81.7494 19.9352 81.5164 19.8224 81.3421C19.7095 81.1678 19.4771 81.1182 19.3032 81.2313Z" fill="white"/>
<path opacity="0.3" d="M42.1315 96.4432C41.9576 96.5563 41.9082 96.7893 42.021 96.9636C42.1339 97.1379 42.3663 97.1876 42.5402 97.0744C42.7141 96.9613 42.7635 96.7283 42.6507 96.554C42.5378 96.3797 42.3054 96.3301 42.1315 96.4432Z" fill="white"/>
<path d="M18.76 70.3655C18.499 70.5353 18.4248 70.885 18.5941 71.1466C18.7635 71.4082 19.1123 71.4827 19.3733 71.3129C19.6342 71.1431 19.7085 70.7934 19.5392 70.5318C19.3698 70.2702 19.0209 70.1958 18.76 70.3655Z" fill="white"/>
<path d="M65.3515 50.3759C65.0905 50.5457 65.0162 50.8954 65.1856 51.157C65.3549 51.4186 65.7038 51.493 65.9648 51.3233C66.2257 51.1535 66.3 50.8038 66.1306 50.5422C65.9613 50.2806 65.6124 50.2062 65.3515 50.3759Z" fill="white"/>
<path d="M78.8837 59.5223C78.6227 59.6921 78.5484 60.0418 78.7178 60.3034C78.8871 60.565 79.236 60.6394 79.497 60.4696C79.7579 60.2999 79.8322 59.9502 79.6628 59.6886C79.4935 59.427 79.1446 59.3525 78.8837 59.5223Z" fill="white"/>
<path opacity="0.3" d="M33.1101 76.2872C32.7621 76.5137 32.663 76.98 32.8889 77.3289C33.1148 77.6779 33.58 77.7772 33.9281 77.5507C34.2762 77.3243 34.3752 76.8579 34.1493 76.509C33.9235 76.1601 33.4582 76.0608 33.1101 76.2872Z" fill="white"/>
<path opacity="0.3" d="M69.8705 77.0543C69.5224 77.2808 69.4234 77.7472 69.6493 78.0961C69.8751 78.445 70.3404 78.5442 70.6884 78.3178C71.0365 78.0914 71.1356 77.625 70.9097 77.2761C70.6838 76.9272 70.2185 76.8279 69.8705 77.0543Z" fill="white"/>
<path opacity="0.3" d="M31.7755 117.092C31.4274 117.318 31.3284 117.784 31.5543 118.133C31.7802 118.482 32.2454 118.581 32.5935 118.355C32.9415 118.129 33.0406 117.662 32.8147 117.313C32.5888 116.964 32.1236 116.865 31.7755 117.092Z" fill="white"/>
<path opacity="0.11" d="M44.3692 117.874C44.0211 118.1 43.9221 118.567 44.1479 118.916C44.3738 119.265 44.8391 119.364 45.1871 119.138C45.5352 118.911 45.6342 118.445 45.4084 118.096C45.1825 117.747 44.7172 117.648 44.3692 117.874Z" fill="white"/>
<path opacity="0.3" d="M33.805 96.028C33.4569 96.2544 33.3579 96.7208 33.5838 97.0697C33.8096 97.4186 34.2749 97.5179 34.623 97.2915C34.971 97.065 35.0701 96.5986 34.8442 96.2497C34.6183 95.9008 34.153 95.8016 33.805 96.028Z" fill="white"/>
<path d="M14.326 109.15C14.065 109.319 13.9908 109.669 14.1601 109.931C14.3295 110.192 14.6783 110.267 14.9393 110.097C15.2003 109.927 15.2745 109.577 15.1052 109.316C14.9358 109.054 14.587 108.98 14.326 109.15Z" fill="white"/>
</g>
</svg>
