<svg width="25" height="24" viewBox="0 0 25 24" fill="none" xmlns="http://www.w3.org/2000/svg">
<path d="M2 4.32693C2 2.76565 3.26565 1.5 4.82693 1.5H20.1731C21.7343 1.5 23 2.76565 23 4.32693V19.6731C23 21.2343 21.7343 22.5 20.1731 22.5H4.82693C3.26565 22.5 2 21.2343 2 19.6731V4.32693ZM4.82693 3.92307C4.60388 3.92307 4.42307 4.10388 4.42307 4.32693V19.6731C4.42307 19.8962 4.60388 20.0769 4.82693 20.0769H13.3077V9.57693C13.3077 8.90781 13.8501 8.36538 14.5192 8.36538C15.1883 8.36538 15.7307 8.90781 15.7307 9.57693V20.0769H20.1731C20.3962 20.0769 20.5769 19.8962 20.5769 19.6731V4.32693C20.5769 4.10388 20.3962 3.92307 20.1731 3.92307H4.82693Z" fill="white"/>
</svg>
