<svg width="25" height="24" viewBox="0 0 25 24" fill="none" xmlns="http://www.w3.org/2000/svg">
<path d="M14.6555 7.45118L12.95 4.18793C12.863 4.02518 12.6942 3.91568 12.5 3.91568C12.3057 3.91568 12.137 4.02443 12.0515 4.18493L12.05 4.18793L4.56123 17.6084L14.6555 7.45118ZM20.639 18.9014L18.53 5.78018C18.491 5.53643 18.2817 5.35193 18.0297 5.35193C17.888 5.35193 17.7605 5.40968 17.6682 5.50343L4.36023 18.9022L11.723 23.0512C11.9375 23.1734 12.194 23.2462 12.467 23.2462C12.74 23.2462 12.9972 23.1742 13.2185 23.0474L13.211 23.0512L20.639 18.9014ZM4.89873 15.4417L7.11498 1.18568C7.15323 0.93968 7.36323 0.75293 7.61748 0.75293C7.81098 0.75293 7.97973 0.86093 8.06523 1.02068L8.06673 1.02368L10.4502 5.49518L4.89873 15.4417Z" fill="white"/>
</svg>
