<svg width="24" height="24" viewBox="0 0 24 24" fill="none" xmlns="http://www.w3.org/2000/svg">
<path d="M13.5374 12.2277C13.5374 15.9984 10.5069 19.0552 6.76883 19.0552C3.03073 19.0552 0 15.9977 0 12.2277C0 8.45768 3.0305 5.40001 6.76883 5.40001C10.5072 5.40001 13.5374 8.45699 13.5374 12.2277Z" fill="white"/>
<path d="M20.9628 12.2277C20.9628 15.777 19.4476 18.6555 17.5784 18.6555C15.7092 18.6555 14.194 15.777 14.194 12.2277C14.194 8.67839 15.709 5.79996 17.5782 5.79996C19.4473 5.79996 20.9626 8.67747 20.9626 12.2277" fill="white"/>
<path d="M24 12.2277C24 15.407 23.4671 17.986 22.8096 17.986C22.1522 17.986 21.6196 15.4077 21.6196 12.2277C21.6196 9.04771 22.1524 6.46947 22.8096 6.46947C23.4669 6.46947 24 9.04748 24 12.2277Z" fill="white"/>
</svg>
