<svg width="44" height="44" viewBox="0 0 44 44" fill="none" xmlns="http://www.w3.org/2000/svg">
<rect width="44" height="44" rx="22" fill="url(#paint0_linear_2047_1120)" fill-opacity="0.15"/>
<rect x="0.5" y="0.5" width="43" height="43" rx="21.5" stroke="url(#paint1_linear_2047_1120)" stroke-opacity="0.2"/>
<rect x="0.5" y="0.5" width="43" height="43" rx="21.5" stroke="url(#paint2_linear_2047_1120)" stroke-opacity="0.3"/>
<path fill-rule="evenodd" clip-rule="evenodd" d="M22 11.5C22.4142 11.5 22.75 11.8358 22.75 12.25V14.5C22.75 14.9142 22.4142 15.25 22 15.25C21.5858 15.25 21.25 14.9142 21.25 14.5V12.25C21.25 11.8358 21.5858 11.5 22 11.5ZM15.636 14.136C15.9289 13.8431 16.4038 13.8431 16.6967 14.136L18.2877 15.727C18.5806 16.0199 18.5806 16.4948 18.2877 16.7877C17.9948 17.0806 17.5199 17.0806 17.227 16.7877L15.636 15.1967C15.3431 14.9038 15.3431 14.4289 15.636 14.136ZM28.364 14.136C28.6569 14.4289 28.6569 14.9038 28.364 15.1967L26.773 16.7877C26.4801 17.0806 26.0052 17.0806 25.7123 16.7877C25.4194 16.4948 25.4194 16.0199 25.7123 15.727L27.3033 14.136C27.5962 13.8431 28.0711 13.8431 28.364 14.136ZM21.5484 18.6318C21.8602 18.5482 22.1905 18.6736 22.3684 18.943L27.5955 26.8599C27.7627 27.113 27.7609 27.4419 27.591 27.6932C27.421 27.9445 27.1165 28.0687 26.8193 28.0079L24.722 27.5787L25.7668 31.4777C25.874 31.8778 25.6365 32.289 25.2364 32.3963C24.8363 32.5035 24.4251 32.266 24.3179 31.8659L23.2732 27.967L21.6717 29.3872C21.4447 29.5884 21.1189 29.6332 20.8461 29.5005C20.5733 29.3678 20.4073 29.0839 20.4254 28.7811L20.9939 19.3113C21.0132 18.9891 21.2366 18.7153 21.5484 18.6318ZM13 20.5C13 20.0858 13.3358 19.75 13.75 19.75H16C16.4142 19.75 16.75 20.0858 16.75 20.5C16.75 20.9142 16.4142 21.25 16 21.25H13.75C13.3358 21.25 13 20.9142 13 20.5ZM27.25 20.5C27.25 20.0858 27.5858 19.75 28 19.75H30.25C30.6642 19.75 31 20.0858 31 20.5C31 20.9142 30.6642 21.25 30.25 21.25H28C27.5858 21.25 27.25 20.9142 27.25 20.5ZM18.2877 24.2123C18.5806 24.5052 18.5806 24.9801 18.2877 25.273L16.6967 26.864C16.4038 27.1569 15.9289 27.1569 15.636 26.864C15.3431 26.5711 15.3431 26.0962 15.636 25.8033L17.227 24.2123C17.5199 23.9194 17.9948 23.9194 18.2877 24.2123Z" fill="white"/>
<defs>
<linearGradient id="paint0_linear_2047_1120" x1="58.0345" y1="-13.6552" x2="-1.72956e-06" y2="44" gradientUnits="userSpaceOnUse">
<stop offset="0.545273" stop-color="white" stop-opacity="0"/>
<stop offset="1" stop-color="white"/>
</linearGradient>
<linearGradient id="paint1_linear_2047_1120" x1="44" y1="-2.6226e-06" x2="-2.6226e-06" y2="44" gradientUnits="userSpaceOnUse">
<stop stop-color="white"/>
<stop offset="0.419845" stop-color="white" stop-opacity="0"/>
</linearGradient>
<linearGradient id="paint2_linear_2047_1120" x1="44" y1="-2.6226e-06" x2="-2.6226e-06" y2="44" gradientUnits="userSpaceOnUse">
<stop offset="0.710304" stop-color="white" stop-opacity="0"/>
<stop offset="0.89681" stop-color="white"/>
</linearGradient>
</defs>
</svg>
