<svg width="115" height="20" viewBox="0 0 115 20" fill="none" xmlns="http://www.w3.org/2000/svg">
<g clip-path="url(#clip0_1_1074)">
<path d="M30.7794 15.8925C29.9725 16.4291 28.6949 16.6527 27.3501 16.6527C23.0916 16.6527 20.6934 14.1038 20.6934 10.0123C20.6934 6.07731 23.0916 3.32727 27.3277 3.32727C28.5829 3.32727 29.8604 3.57321 30.7794 4.22159V5.94316C29.8604 5.36185 28.8294 5.04884 27.3277 5.04884C24.2795 5.04884 22.4864 7.06109 22.4864 10.0347C22.4864 13.0083 24.3691 14.9758 27.4397 14.9758C28.807 14.9758 29.8604 14.6628 30.8017 14.1933V15.8925H30.7794Z" fill="white"/>
<path d="M32.0121 11.5327C32.0121 8.58143 33.738 6.43506 36.6965 6.43506C39.6326 6.43506 41.3585 8.58143 41.3585 11.5327C41.3585 14.484 39.6326 16.6751 36.6965 16.6751C33.7603 16.6527 32.0121 14.484 32.0121 11.5327ZM33.6707 11.5327C33.6707 13.4108 34.5896 15.0876 36.7189 15.0876C38.8033 15.0876 39.7223 13.3884 39.7223 11.5327C39.7223 9.677 38.8258 8.00012 36.7189 8.00012C34.5896 8.00012 33.6707 9.65462 33.6707 11.5327Z" fill="white"/>
<path d="M51.7134 16.4738H50.01V10.5266C50.01 8.76027 49.2928 7.97771 47.679 7.97771C46.1101 7.97771 45.0118 9.02858 45.0118 11.0185V16.4961H43.3085V6.65858H45.0118V8.2684C45.6394 7.10577 46.8049 6.4574 48.1273 6.4574C50.391 6.4574 51.691 8.02246 51.691 10.7278V16.4738H51.7134Z" fill="white"/>
<path d="M58.9977 6.63625V8.20131H56.4426V16.4738H54.784V8.20131H53.1926V6.63625H54.784V5.56305C54.784 3.72969 55.815 2.5 57.9219 2.5C58.4374 2.5 58.7736 2.58943 59.0649 2.65651V4.22157C58.7736 4.15449 58.3925 4.13214 57.9891 4.13214C56.9357 4.13214 56.4202 4.73581 56.4202 5.63012V6.63625H58.9977Z" fill="white"/>
<path d="M63.4579 16.5185C61.8441 16.5185 60.8131 15.7583 60.8131 13.9473V2.52234H62.5165V13.7461C62.5165 14.6404 63.0992 14.9534 63.8391 14.9534C64.0185 14.9534 64.1304 14.9534 64.3322 14.931V16.4514C64.1754 16.4961 63.8835 16.5185 63.4579 16.5185Z" fill="white"/>
<path d="M65.7667 6.63623H67.4699V12.5835C67.4699 14.3497 68.1873 15.1323 69.8011 15.1323C71.3698 15.1323 72.468 14.0814 72.468 12.0916V6.63623H74.1717V16.4737H72.468V14.864C71.8405 16.0266 70.6748 16.675 69.3523 16.675C67.0886 16.675 65.7892 15.1099 65.7892 12.4046V6.63623H65.7667Z" fill="white"/>
<path d="M81.4336 16.6527C77.7355 16.6527 76.1217 14.5287 76.1217 11.5103C76.1217 8.53672 77.7798 6.41272 80.7836 6.41272C83.8317 6.41272 85.0417 8.51434 85.0417 11.5103V12.2705H77.8473C78.0936 13.9473 79.1698 15.0205 81.5005 15.0205C82.6436 15.0205 83.6073 14.797 84.5042 14.484V16.049C83.6748 16.4962 82.4198 16.6527 81.4336 16.6527ZM77.8023 10.8396H83.3161C83.2267 9.00622 82.3973 7.97778 80.6936 7.97778C78.9005 7.97778 77.9817 9.11803 77.8023 10.8396Z" fill="white"/>
<path d="M95.4192 16.4738H93.716V10.5266C93.716 8.76027 92.9985 7.97771 91.3848 7.97771C89.816 7.97771 88.7179 9.02858 88.7179 11.0185V16.4961H87.0142V6.65858H88.7179V8.2684C89.3454 7.10577 90.511 6.4574 91.8329 6.4574C94.0967 6.4574 95.3967 8.02246 95.3967 10.7278V16.4738H95.4192Z" fill="white"/>
<path d="M104.765 16.2055C104.183 16.5185 103.264 16.6527 102.367 16.6527C98.8485 16.6527 97.2123 14.5287 97.2123 11.5103C97.2123 8.53672 98.8485 6.41272 102.367 6.41272C103.264 6.41272 103.936 6.52447 104.721 6.88222V8.44728C104.093 8.1566 103.421 7.97778 102.502 7.97778C99.9467 7.97778 98.8935 9.58753 98.8935 11.5103C98.8935 13.4331 99.9692 15.0429 102.547 15.0429C103.555 15.0429 104.183 14.9087 104.788 14.6852V16.2055H104.765Z" fill="white"/>
<path d="M111.4 16.6527C107.702 16.6527 106.088 14.5287 106.088 11.5103C106.088 8.53672 107.747 6.41272 110.75 6.41272C113.798 6.41272 115.009 8.51434 115.009 11.5103V12.2705H107.814C108.06 13.9473 109.136 15.0205 111.467 15.0205C112.61 15.0205 113.574 14.797 114.47 14.484V16.049C113.641 16.4962 112.409 16.6527 111.4 16.6527ZM107.792 10.8396H113.305C113.215 9.00622 112.386 7.97778 110.683 7.97778C108.867 7.97778 107.97 9.11803 107.792 10.8396Z" fill="white"/>
<path d="M1.12676 13.686C0.992283 13.936 0.812977 14.2087 0.678497 14.4359C0.544017 14.6404 0.611257 14.9131 0.83539 15.0495L3.74912 16.8674C3.97325 17.0037 4.24221 16.9356 4.37669 16.7083C4.48876 16.5038 4.64565 16.2539 4.80254 15.9812C5.96803 14.0496 7.11111 14.2769 9.21798 15.2994L12.1093 16.6856C12.3334 16.7992 12.6024 16.6856 12.7144 16.4584L14.104 13.277C14.1937 13.0497 14.104 12.7771 13.8799 12.6862C13.2748 12.3907 12.0644 11.8226 10.9662 11.2772C7.02148 9.36843 3.68187 9.48205 1.12676 13.686Z" fill="white"/>
<path d="M14.1937 6.48241C14.3282 6.23246 14.5075 5.95976 14.6419 5.73252C14.7764 5.52801 14.7092 5.25531 14.4851 5.11897L11.5713 3.30104C11.3472 3.16469 11.0783 3.23286 10.9438 3.4601C10.8317 3.66462 10.6748 3.91459 10.5179 4.18728C9.35245 6.11883 8.20939 5.89159 6.1025 4.869L3.2336 3.4601C3.00947 3.34649 2.74051 3.4601 2.62845 3.68735L1.23882 6.86872C1.14917 7.09597 1.23882 7.36865 1.46296 7.45953C2.06812 7.75497 3.27843 8.32309 4.37669 8.86847C8.29901 10.8 11.6386 10.6864 14.1937 6.48241Z" fill="white"/>
</g>
<defs>
<clipPath id="clip0_1_1074">
<rect width="114.375" height="20" fill="white" transform="translate(0.633545)"/>
</clipPath>
</defs>
</svg>
