<svg width="25" height="24" viewBox="0 0 25 24" fill="none" xmlns="http://www.w3.org/2000/svg">
<path d="M23.1458 0.0234375L21.1494 21.6475L12.4999 23.9765L3.85017 21.6475L1.85419 0.0234375H23.1458ZM19.123 4.42036H12.4921H5.74373L6.06647 7.03167H12.4921H12.853L12.4921 7.18191L6.30131 9.76031L6.50663 12.3128L12.4921 12.3322L15.7001 12.3424L15.4948 15.7458L12.492 16.5912V16.5885L12.4674 16.5953L9.56756 15.8633L9.39159 13.7506H9.38198H6.6922H6.68273L7.03481 17.8291L12.4921 19.443V19.44L12.502 19.443L17.9301 17.8585L18.6342 9.76031H12.4921H12.477L12.4921 9.75375L18.8592 7.03167L19.123 4.42036Z" fill="white"/>
</svg>
