<svg width="25" height="24" viewBox="0 0 25 24" fill="none" xmlns="http://www.w3.org/2000/svg">
<g clip-path="url(#clip0_1_2821)">
<path d="M24.629 23.412L24.121 22.928C23.87 22.597 23.603 22.304 23.312 22.037L23.307 22.033C23.0083 21.7616 22.698 21.5036 22.376 21.259C22.118 21.0816 21.7633 20.868 21.312 20.618C20.941 20.451 20.651 20.158 20.494 19.794L20.49 19.784L20.442 19.76C20.654 19.739 20.848 19.7 21.034 19.645L21.011 19.651L21.581 19.494C21.817 19.42 22.09 19.372 22.373 19.361H22.379C22.677 19.349 22.958 19.301 23.226 19.222L23.201 19.228C23.3303 19.196 23.4633 19.1596 23.6 19.119C23.7366 19.0783 23.8536 19.042 23.951 19.01V18.841C23.8543 18.6963 23.7373 18.531 23.6 18.345C23.469 18.167 23.322 18.012 23.157 17.877L23.152 17.873C22.7326 17.5023 22.2983 17.1436 21.849 16.797C21.453 16.488 21.004 16.173 20.538 15.881L20.47 15.841C20.224 15.679 19.942 15.529 19.645 15.406L19.611 15.394C19.3123 15.2726 19.018 15.1396 18.728 14.995C18.631 14.947 18.518 14.905 18.401 14.876L18.39 14.874C18.273 14.85 18.173 14.79 18.1 14.705L18.099 14.704C17.961 14.522 17.84 14.315 17.744 14.095L17.736 14.075C17.6393 13.849 17.5346 13.632 17.422 13.424C17.18 12.956 16.946 12.4803 16.72 11.997C16.494 11.5136 16.277 11.0296 16.069 10.545C15.9243 10.2223 15.7913 9.89998 15.67 9.57798C15.536 9.22398 15.385 8.92098 15.209 8.63597L15.222 8.65898C14.79 7.92298 14.359 7.29498 13.891 6.69798L13.919 6.73598C13.456 6.15198 12.976 5.62998 12.46 5.14598L12.452 5.13898C11.943 4.66098 11.395 4.20498 10.82 3.78298L10.771 3.74798C10.1736 3.31398 9.5203 2.88664 8.81097 2.46598C8.52597 2.29798 8.19497 2.16098 7.84597 2.07298L7.81997 2.06698L6.70697 1.78898L6.07797 1.74098C5.86864 1.72498 5.65897 1.71698 5.44897 1.71698C5.30097 1.63898 5.17397 1.54598 5.06197 1.43798C4.95197 1.33298 4.83297 1.23398 4.70897 1.14298L4.69897 1.13598C4.09397 0.782977 3.39097 0.459977 2.65597 0.205977L2.57097 0.179977C2.37797 0.0669766 2.14597 0.000976562 1.89897 0.000976562C1.72297 0.000976562 1.55397 0.0349766 1.39997 0.0959766L1.40897 0.0929766C1.02897 0.243977 0.738972 0.550977 0.613972 0.932977L0.610972 0.942977C0.537972 1.11498 0.495972 1.31398 0.495972 1.52398C0.495972 1.89198 0.625972 2.22898 0.842972 2.49198L0.840972 2.48898C1.20364 2.97231 1.48164 3.35231 1.67497 3.62898C1.81964 3.82298 1.96897 4.02464 2.12297 4.23398C2.26397 4.42198 2.38897 4.63698 2.48997 4.86398L2.49797 4.88498C2.55397 5.00398 2.60297 5.14598 2.63897 5.29198L2.64197 5.30798C2.67397 5.44531 2.7143 5.59464 2.76297 5.75598C2.90764 6.12664 3.04464 6.50664 3.17397 6.89598C3.31497 7.32098 3.47097 7.68098 3.65197 8.02398L3.63297 7.98398C3.72964 8.16131 3.82664 8.33464 3.92397 8.50397C4.02131 8.67331 4.12597 8.83864 4.23797 8.99998C4.30297 9.09798 4.38497 9.17898 4.47897 9.24197L4.48197 9.24398C4.58097 9.31598 4.64597 9.42898 4.65097 9.55698C4.53697 9.72498 4.45997 9.92698 4.43397 10.144L4.43297 10.15C4.39797 10.403 4.34797 10.628 4.27997 10.845L4.28797 10.815C4.06497 11.481 3.93697 12.249 3.93697 13.046C3.93697 13.304 3.94997 13.558 3.97697 13.809L3.97397 13.778C4.03397 14.736 4.32297 15.616 4.78597 16.378L4.77197 16.353C4.96897 16.648 5.17997 16.905 5.41297 17.14C5.58097 17.328 5.82497 17.446 6.09697 17.446C6.24897 17.446 6.39297 17.409 6.51897 17.343L6.51397 17.345C6.86397 17.219 7.11297 16.899 7.13097 16.518V16.516C7.17897 16.042 7.25097 15.618 7.34997 15.204L7.33697 15.271C7.36097 15.208 7.37497 15.136 7.37497 15.06C7.37497 15.045 7.37397 15.03 7.37297 15.015V15.017C7.36497 14.9443 7.40931 14.8756 7.50597 14.811V14.859C7.60264 15.085 7.70331 15.3106 7.80797 15.536C7.91264 15.7613 8.02131 15.987 8.13397 16.213C8.42897 16.662 8.74197 17.054 9.08597 17.415L9.08297 17.412C9.42797 17.784 9.80397 18.118 10.21 18.413L10.232 18.428C10.444 18.59 10.63 18.765 10.798 18.956L10.802 18.96C10.96 19.146 11.149 19.299 11.362 19.414L11.372 19.419V19.395H11.42C11.381 19.308 11.318 19.238 11.24 19.19L11.238 19.189C11.159 19.145 11.091 19.101 11.027 19.053L11.032 19.056C10.8873 18.9113 10.738 18.75 10.584 18.572C10.43 18.394 10.289 18.2246 10.161 18.064C9.8223 17.596 9.4993 17.107 9.19197 16.597C8.88464 16.087 8.59431 15.5686 8.32097 15.042C8.19164 14.784 8.06664 14.518 7.94597 14.244C7.82531 13.97 7.7083 13.704 7.59497 13.446C7.54597 13.347 7.51197 13.233 7.49897 13.112V13.107C7.49297 12.992 7.42697 12.893 7.33097 12.842L7.32897 12.841C7.20797 13.047 7.07397 13.225 6.92097 13.386L6.92197 13.385C6.76297 13.552 6.63297 13.749 6.53997 13.965L6.53497 13.978C6.39397 14.32 6.29097 14.717 6.24597 15.132L6.24397 15.151C6.19597 15.5783 6.14764 16.0176 6.09897 16.469L6.05097 16.493L6.02697 16.517C5.76697 16.464 5.55297 16.298 5.43697 16.074L5.43497 16.069C5.31364 15.835 5.20497 15.605 5.10897 15.379C4.86097 14.742 4.70697 14.005 4.68597 13.235V13.226C4.67697 13.104 4.67297 12.961 4.67297 12.818C4.67297 12.152 4.77797 11.51 4.97197 10.908L4.95997 10.952C5.00797 10.7746 5.11264 10.476 5.27397 10.056C5.43531 9.63597 5.46764 9.34564 5.37097 9.18498C5.32097 9.01998 5.22797 8.88097 5.10597 8.77497L5.10497 8.77398C4.98297 8.66798 4.87197 8.55698 4.76997 8.43898L4.76697 8.43498C4.65431 8.27231 4.54564 8.09898 4.44097 7.91498C4.3363 7.73098 4.24364 7.54964 4.16297 7.37098C3.99797 6.98898 3.82897 6.50998 3.68897 6.01798L3.66697 5.92898C3.50797 5.36398 3.33097 4.88598 3.12097 4.42598L3.14697 4.48998C3.03597 4.23798 2.90697 4.01998 2.75697 3.82098L2.76297 3.82898C2.60031 3.61164 2.45497 3.40598 2.32697 3.21198C2.1643 3.00264 2.00297 2.80098 1.84297 2.60698C1.67997 2.40998 1.53497 2.18798 1.41697 1.94998L1.40797 1.92998C1.35997 1.83298 1.31797 1.71998 1.28897 1.60298L1.28697 1.59198C1.27597 1.55698 1.26997 1.51598 1.26997 1.47498C1.26997 1.39298 1.29397 1.31598 1.33597 1.25198L1.33497 1.25398C1.34597 1.19798 1.37197 1.14898 1.40797 1.10898C1.44697 1.07398 1.49697 1.04798 1.55097 1.03698H1.55297C1.63797 0.981976 1.74097 0.948977 1.85297 0.948977C1.93697 0.948977 2.01797 0.967976 2.08897 1.00198L2.08597 1.00098C2.30497 1.06298 2.48197 1.12498 2.65497 1.19598L2.61897 1.18298C2.92497 1.31231 3.2073 1.43731 3.46597 1.55798C3.76397 1.69998 4.01797 1.84998 4.25797 2.01698L4.23997 2.00498C4.3693 2.08564 4.4983 2.17431 4.62697 2.27098C4.75564 2.36764 4.89264 2.46464 5.03797 2.56198H5.37697C5.63497 2.56198 5.90897 2.57431 6.19897 2.59898C6.49197 2.62198 6.76297 2.67698 7.02097 2.76298L6.99697 2.75598C7.47797 2.89898 7.89097 3.06798 8.28297 3.27098L8.24197 3.25198C8.63731 3.45331 9.0123 3.66698 9.36697 3.89298C9.95597 4.25998 10.465 4.63598 10.944 5.04698L10.927 5.03298C11.427 5.46098 11.881 5.89998 12.307 6.36398L12.317 6.37598C12.733 6.82998 13.13 7.32298 13.493 7.83998L13.524 7.88698C13.858 8.35898 14.195 8.90497 14.498 9.47097L14.54 9.55597C14.621 9.70998 14.703 9.89898 14.774 10.092L14.785 10.125C14.8496 10.3103 14.922 10.5003 15.002 10.695C15.1793 11.0983 15.3693 11.5053 15.572 11.916C15.7746 12.3266 15.9646 12.726 16.142 13.114L16.674 14.275C16.861 14.681 17.07 15.031 17.313 15.354L17.302 15.339C17.505 15.556 17.776 15.708 18.08 15.761L18.088 15.762C18.456 15.854 18.766 15.958 19.066 16.081L19.019 16.064C19.162 16.129 19.346 16.198 19.535 16.259L19.575 16.27C19.787 16.335 19.971 16.421 20.14 16.529L20.131 16.524C20.458 16.707 20.735 16.887 20.999 17.083L20.978 17.068C21.252 17.2693 21.526 17.4593 21.8 17.638C21.9293 17.7346 22.1463 17.8756 22.451 18.061C22.7556 18.2463 22.917 18.4196 22.935 18.581C22.821 18.577 22.686 18.574 22.551 18.574C22.059 18.574 21.575 18.606 21.101 18.668L21.157 18.662C20.621 18.734 20.135 18.865 19.678 19.052L19.718 19.038C19.605 19.087 19.47 19.132 19.33 19.167L19.311 19.171C19.169 19.192 19.059 19.306 19.045 19.448C19.106 19.524 19.155 19.613 19.188 19.709L19.19 19.715C19.224 19.817 19.265 19.905 19.315 19.987L19.312 19.981C19.431 20.192 19.559 20.374 19.703 20.542L19.699 20.537C19.84 20.711 19.999 20.862 20.175 20.991L20.182 20.996C20.3446 21.1253 20.514 21.2583 20.69 21.395C20.851 21.521 21.033 21.645 21.222 21.757L21.246 21.77C21.53 21.944 21.86 22.11 22.204 22.249L22.25 22.265C22.624 22.415 22.945 22.589 23.243 22.796L23.227 22.785C23.421 22.8976 23.6143 23.0226 23.807 23.16C23.9996 23.2973 24.185 23.4303 24.363 23.559C24.436 23.631 24.5 23.711 24.554 23.798L24.557 23.803C24.648 23.907 24.774 23.978 24.917 23.996H24.92V23.948C24.832 23.881 24.767 23.788 24.736 23.681L24.735 23.677C24.71 23.575 24.673 23.486 24.623 23.404L24.625 23.408L24.629 23.412ZM6.05297 4.20698C5.92364 4.20698 5.80264 4.21098 5.68997 4.21898C5.57497 4.22698 5.46797 4.24798 5.36697 4.28198L5.37597 4.27898V4.30298H5.42397C5.48864 4.39964 5.56997 4.50831 5.66797 4.62898C5.76597 4.74964 5.85464 4.86664 5.93397 4.97998L6.32097 5.77798L6.36897 5.75398C6.48197 5.67198 6.56897 5.56198 6.62097 5.43298L6.62297 5.42798C6.67497 5.28898 6.70497 5.12698 6.70497 4.95898C6.70497 4.94098 6.70497 4.92298 6.70397 4.90498V4.90798C6.65897 4.86398 6.62197 4.81198 6.59597 4.75398L6.59497 4.75098L6.51397 4.56898C6.46097 4.48498 6.38697 4.41898 6.29997 4.37698L6.29697 4.37598C6.20297 4.33098 6.12297 4.27398 6.05297 4.20698Z" fill="white"/>
</g>
<defs>
<clipPath id="clip0_1_2821">
<rect width="24" height="24" fill="white" transform="translate(0.5)"/>
</clipPath>
</defs>
</svg>
