<svg width="120" height="121" viewBox="0 0 120 121" fill="none" xmlns="http://www.w3.org/2000/svg">
<line x1="60.5" y1="90.5" x2="60.5" y2="120.5" stroke="url(#paint0_linear_2047_1923)" stroke-opacity="0.15"/>
<line x1="-1" y1="60" x2="29" y2="60" stroke="url(#paint1_linear_2047_1923)" stroke-opacity="0.15"/>
<line x1="60.5" y1="0.5" x2="60.5" y2="30.5" stroke="url(#paint2_linear_2047_1923)" stroke-opacity="0.15"/>
<line x1="90" y1="60.5" x2="120" y2="60.5" stroke="url(#paint3_linear_2047_1923)" stroke-opacity="0.15"/>
<rect x="29.2266" y="29.7266" width="61.5469" height="61.5469" rx="30.7734" stroke="white" stroke-opacity="0.15" stroke-width="1.54688"/>
<rect x="38" y="38.5" width="44" height="44" rx="22" fill="url(#paint4_linear_2047_1923)" fill-opacity="0.15"/>
<rect x="38.5" y="39" width="43" height="43" rx="21.5" stroke="url(#paint5_linear_2047_1923)" stroke-opacity="0.2"/>
<rect x="38.5" y="39" width="43" height="43" rx="21.5" stroke="url(#paint6_linear_2047_1923)" stroke-opacity="0.3"/>
<path d="M63 52.25H57V68.75H63V52.25Z" fill="white"/>
<path d="M64.5 68.75H67.875C68.9105 68.75 69.75 67.9105 69.75 66.875V54.125C69.75 53.0895 68.9105 52.25 67.875 52.25H64.5V68.75Z" fill="white"/>
<path d="M52.125 52.25H55.5V68.75H52.125C51.0895 68.75 50.25 67.9105 50.25 66.875V54.125C50.25 53.0895 51.0895 52.25 52.125 52.25Z" fill="white"/>
<defs>
<linearGradient id="paint0_linear_2047_1923" x1="60" y1="90.5" x2="60" y2="120.5" gradientUnits="userSpaceOnUse">
<stop stop-color="white"/>
<stop offset="1" stop-color="white" stop-opacity="0"/>
</linearGradient>
<linearGradient id="paint1_linear_2047_1923" x1="-1" y1="60.5" x2="29" y2="60.5" gradientUnits="userSpaceOnUse">
<stop stop-color="white" stop-opacity="0"/>
<stop offset="1" stop-color="white"/>
</linearGradient>
<linearGradient id="paint2_linear_2047_1923" x1="60" y1="0.5" x2="60" y2="30.5" gradientUnits="userSpaceOnUse">
<stop stop-color="white" stop-opacity="0"/>
<stop offset="1" stop-color="white"/>
</linearGradient>
<linearGradient id="paint3_linear_2047_1923" x1="90" y1="61" x2="120" y2="61" gradientUnits="userSpaceOnUse">
<stop stop-color="white"/>
<stop offset="1" stop-color="white" stop-opacity="0"/>
</linearGradient>
<linearGradient id="paint4_linear_2047_1923" x1="96.0345" y1="24.8448" x2="38" y2="82.5" gradientUnits="userSpaceOnUse">
<stop offset="0.545273" stop-color="white" stop-opacity="0"/>
<stop offset="1" stop-color="white"/>
</linearGradient>
<linearGradient id="paint5_linear_2047_1923" x1="82" y1="38.5" x2="38" y2="82.5" gradientUnits="userSpaceOnUse">
<stop stop-color="white"/>
<stop offset="0.419845" stop-color="white" stop-opacity="0"/>
</linearGradient>
<linearGradient id="paint6_linear_2047_1923" x1="82" y1="38.5" x2="38" y2="82.5" gradientUnits="userSpaceOnUse">
<stop offset="0.710304" stop-color="white" stop-opacity="0"/>
<stop offset="0.89681" stop-color="white"/>
</linearGradient>
</defs>
</svg>
