<svg width="23" height="24" viewBox="0 0 23 24" fill="none" xmlns="http://www.w3.org/2000/svg">
<path d="M5.06125 5.50823C8.39875 2.19698 12.706 0.240231 14.3605 1.90898C16.012 3.57473 14.2623 7.63073 10.918 10.9405C7.57825 14.251 3.3235 16.3142 1.6735 14.6492C0.0182529 12.9835 1.7155 8.82248 5.059 5.51123L5.06125 5.50823ZM19.144 0.83123C21.1825 1.02248 22.765 2.72498 22.765 4.79723C22.765 4.97498 22.753 5.15048 22.7305 5.32223L22.7328 5.30198L22.747 5.27273L21.4675 22.0382L4.85125 23.1782C4.7035 23.197 4.53175 23.2082 4.35775 23.2082C2.08075 23.2082 0.234253 21.3625 0.234253 19.0847C0.234253 18.9467 0.241003 18.8095 0.254503 18.6752L0.253003 18.6925L1.795 15.8807L4.90825 23.152L7.537 14.5817L7.50925 14.5885L7.52425 14.5607L16.198 17.3312L14.89 12.241L13.9623 8.58548L22.2288 8.05223L21.652 7.57448L15.7173 2.73623L19.1463 0.82373L19.144 0.83123Z" fill="white"/>
</svg>
