<svg width="25" height="24" viewBox="0 0 25 24" fill="none" xmlns="http://www.w3.org/2000/svg">
<g clip-path="url(#clip0_1_2842)">
<path d="M24.4949 14.339C24.4846 14.5679 24.182 14.8241 23.5597 15.149C22.2783 15.8159 15.6431 18.5493 14.2314 19.2813C13.7266 19.6404 13.0966 19.8556 12.4177 19.8556C11.8683 19.8556 11.3523 19.715 10.9023 19.4681L10.9186 19.4767C9.80086 18.9436 2.74229 16.091 1.47029 15.4833C0.835143 15.1833 0.511143 14.9236 0.5 14.6836V17.1093C0.5 17.351 0.834286 17.609 1.47029 17.909C2.74229 18.5167 9.80343 21.3693 10.9186 21.9024C11.3506 22.1399 11.8657 22.2796 12.4134 22.2796C13.0949 22.2796 13.7257 22.0636 14.2409 21.6959L14.2314 21.7027C15.6431 20.9664 22.2783 18.239 23.5597 17.5704C24.2111 17.231 24.4991 16.9704 24.4991 16.7287C24.4991 16.487 24.4991 14.3364 24.4991 14.3364L24.4949 14.339Z" fill="white"/>
<path d="M24.4931 10.3843C24.482 10.6131 24.1803 10.8686 23.5589 11.1934C22.2774 11.8603 15.6423 14.5937 14.2306 15.3257C13.7249 15.6866 13.094 15.9017 12.4126 15.9017C11.8649 15.9017 11.3497 15.762 10.9014 15.5168L10.9177 15.5254C9.8 14.988 2.74143 12.1354 1.46943 11.5277C0.834288 11.2277 0.510288 10.968 0.499146 10.728V13.1537C0.499146 13.3954 0.833431 13.6534 1.46943 13.9534C2.74143 14.5611 9.80172 17.4137 10.9177 17.9468C11.3514 18.1851 11.8674 18.3257 12.4169 18.3257C13.0966 18.3257 13.7257 18.1106 14.2409 17.7454L14.2314 17.7523C15.6431 17.016 22.2783 14.2868 23.5597 13.62C24.2111 13.2797 24.4991 13.02 24.4991 12.7766C24.4991 12.5331 24.4991 10.3843 24.4991 10.3843H24.4931Z" fill="white"/>
<path d="M24.4932 6.28207C24.5052 6.03778 24.1863 5.82436 23.5443 5.58778C22.3006 5.13093 15.6998 2.5055 14.438 2.04264C13.9855 1.83521 13.4575 1.71436 12.9003 1.71436C12.2712 1.71436 11.678 1.86864 11.156 2.14121L11.1766 2.13093C9.6929 2.66407 2.67033 5.41807 1.42147 5.90664C0.796616 6.15264 0.490616 6.37978 0.501758 6.6215V9.04721C0.501758 9.28893 0.836044 9.54693 1.47204 9.84693C2.74404 10.4546 9.80433 13.3081 10.9203 13.8412C11.3523 14.0786 11.8675 14.2175 12.4152 14.2175C13.0966 14.2175 13.7275 14.0015 14.2435 13.6346L14.234 13.6415C15.6458 12.9052 22.2809 10.1761 23.5623 9.50921C24.2138 9.16893 24.5018 8.90921 24.5018 8.66578C24.5018 8.42235 24.5018 6.2735 24.5018 6.2735H24.494L24.4932 6.28207ZM9.0929 8.58264L14.654 7.72893L12.974 10.1924L9.0929 8.58264ZM21.3938 6.36436L17.7483 7.80436L14.4612 6.49893L18.1006 5.05978L21.3903 6.36007L21.3938 6.36436ZM11.738 3.97721L11.1998 2.9855L12.878 3.64121L14.4603 3.1235L14.0326 4.14864L15.6449 4.74864L13.5655 4.96464L13.1 6.08836L12.3466 4.8395L9.94662 4.6235L11.7389 3.97721H11.738ZM7.60062 5.37607C9.2429 5.37607 10.5723 5.89207 10.5723 6.52807C10.5723 7.16407 9.23604 7.68007 7.60062 7.68007C5.96519 7.68007 4.6229 7.16321 4.6229 6.52807C4.6229 5.89293 5.95404 5.37607 7.60062 5.37607Z" fill="white"/>
</g>
<defs>
<clipPath id="clip0_1_2842">
<rect width="24" height="24" fill="white" transform="translate(0.5)"/>
</clipPath>
</defs>
</svg>
