<svg width="107" height="20" viewBox="0 0 107 20" fill="none" xmlns="http://www.w3.org/2000/svg">
<path d="M35.9044 4.19263H41.5707C42.9364 4.19263 44.0918 4.40572 45.0368 4.8319C45.907 5.19771 46.6458 5.81859 47.156 6.61272C47.6336 7.39722 47.8783 8.30132 47.8617 9.21961C47.8722 10.1421 47.6179 11.0483 47.129 11.8307C46.5836 12.6571 45.8038 13.3018 44.8895 13.682C43.8877 14.1387 42.6458 14.3663 41.1639 14.3649H35.9044V4.19263ZM41.1057 11.7767C42.0259 11.7767 42.733 11.547 43.227 11.0876C43.4774 10.8447 43.6731 10.5511 43.8009 10.2264C43.9287 9.90176 43.9856 9.55354 43.9679 9.20508C43.9833 8.88162 43.9328 8.55841 43.8193 8.25511C43.7058 7.95181 43.5318 7.67478 43.3079 7.44086C42.8651 7.00085 42.1989 6.78015 41.3091 6.77876H39.5366V11.7767H41.1057Z" fill="white"/>
<path d="M56.3465 14.3483C55.599 14.161 54.8839 13.8622 54.2253 13.4621V11.0503C54.8003 11.4685 55.4477 11.7767 56.1348 11.9594C56.8865 12.1887 57.6673 12.3083 58.4532 12.3143C58.7244 12.3288 58.9954 12.2819 59.2461 12.1773C59.4245 12.086 59.5138 11.9697 59.5138 11.8494C59.5157 11.7821 59.5038 11.7152 59.4788 11.6527C59.4538 11.5902 59.4163 11.5335 59.3685 11.4861C59.2027 11.3586 59.0081 11.2738 58.8019 11.2392L57.0584 10.8469C56.0594 10.6144 55.3502 10.2927 54.931 9.88174C54.7205 9.66946 54.5565 9.41574 54.4493 9.13668C54.3421 8.85763 54.2941 8.55933 54.3083 8.26074C54.3013 7.71959 54.4984 7.19566 54.8604 6.79333C55.2896 6.33935 55.8308 6.00646 56.4295 5.82819C57.2 5.58601 58.0047 5.47035 58.8123 5.48573C59.5661 5.47865 60.3178 5.56651 61.0497 5.74725C61.6409 5.88731 62.2086 6.11243 62.7351 6.41558V8.69868C62.2413 8.41223 61.7105 8.19503 61.1576 8.05318C60.5586 7.89256 59.941 7.81161 59.3208 7.81242C58.4103 7.81242 57.9551 7.9674 57.9551 8.27734C57.9535 8.34636 57.9724 8.4143 58.0093 8.47263C58.0463 8.53097 58.0996 8.57711 58.1626 8.60528C58.4114 8.71105 58.672 8.78631 58.9389 8.82944L60.3918 9.09096C61.3354 9.257 62.0391 9.54758 62.5026 9.96269C62.9661 10.3778 63.1986 10.9852 63.2 11.785C63.2074 12.2056 63.1045 12.6207 62.9017 12.9892C62.6989 13.3577 62.4032 13.6667 62.0439 13.8855C61.2787 14.3988 60.1863 14.6548 58.7666 14.6534C57.9502 14.6547 57.137 14.5522 56.3465 14.3483Z" fill="white"/>
<path d="M66.6329 14.0432C65.8562 13.6863 65.2015 13.1089 64.7504 12.3828C64.3296 11.6707 64.1141 10.8561 64.1277 10.0291C64.1152 9.20263 64.3423 8.39019 64.7815 7.68997C65.2497 6.97527 65.9162 6.41265 66.6994 6.07104C67.6515 5.65615 68.6831 5.45495 69.7214 5.48159C71.1742 5.48159 72.3801 5.78669 73.339 6.3969V9.05984C72.9742 8.8146 72.5757 8.62373 72.156 8.49321C71.6861 8.34487 71.1958 8.27133 70.7031 8.27528C69.8023 8.27528 69.0973 8.43994 68.5881 8.76926C68.3592 8.89701 68.1682 9.08311 68.0346 9.30863C67.901 9.53416 67.8295 9.79105 67.8274 10.0532C67.8253 10.3153 67.8926 10.5733 68.0226 10.801C68.1526 11.0286 68.3405 11.2177 68.5674 11.3492C69.0613 11.6826 69.7781 11.8494 70.7176 11.8494C71.2026 11.8505 71.6851 11.7806 72.1498 11.6418C72.5736 11.5203 72.9807 11.3467 73.3619 11.125V13.6987C72.2388 14.3535 70.9567 14.6853 69.657 14.6576C68.6153 14.686 67.5809 14.4759 66.6329 14.0432Z" fill="white"/>
<path d="M76.9567 14.0431C76.1712 13.6845 75.505 13.1082 75.0368 12.3827C74.5956 11.6723 74.3666 10.8506 74.3768 10.0145C74.3627 9.18821 74.5923 8.3761 75.0368 7.67948C75.5075 6.97237 76.1708 6.41489 76.9484 6.07301C78.8584 5.29809 80.9952 5.29809 82.9052 6.07301C83.6797 6.41228 84.3404 6.96703 84.8085 7.67118C85.2501 8.37037 85.4774 9.18351 85.4623 10.0103C85.4726 10.8457 85.2459 11.6668 84.8085 12.3785C84.3455 13.1046 83.6823 13.6812 82.899 14.039C81.9602 14.4416 80.9494 14.6492 79.9279 14.6492C78.9064 14.6492 77.8955 14.4416 76.9567 14.039V14.0431ZM81.3714 11.4653C81.5509 11.28 81.6906 11.0599 81.782 10.8186C81.8734 10.5774 81.9145 10.3199 81.9027 10.0622C81.9153 9.80689 81.8745 9.55174 81.783 9.31304C81.6916 9.07433 81.5514 8.85729 81.3714 8.67575C81.1762 8.4967 80.947 8.3587 80.6974 8.26992C80.4478 8.18115 80.183 8.1434 79.9185 8.15893C79.6542 8.14503 79.3898 8.18354 79.1405 8.27224C78.8911 8.36093 78.6618 8.49807 78.4656 8.67575C78.2864 8.85769 78.1467 9.07485 78.0556 9.31349C77.9645 9.55213 77.9239 9.80708 77.9364 10.0622C77.9247 10.3198 77.9657 10.577 78.0567 10.8182C78.1476 11.0594 78.2868 11.2796 78.4656 11.4653C78.6599 11.6466 78.8886 11.7868 79.1382 11.8778C79.3878 11.9687 79.6532 12.0084 79.9185 11.9946C80.184 12.01 80.4498 11.971 80.6996 11.88C80.9495 11.789 81.1781 11.6479 81.3714 11.4653Z" fill="white"/>
<path d="M94.1942 6.01911V9.16149C93.7604 8.90266 93.2604 8.7764 92.7558 8.79827C91.9816 8.79827 91.3839 9.03488 90.9688 9.50395C90.5537 9.97303 90.3461 10.7015 90.3461 11.6895V14.3628H86.7865V5.86344H90.2735V8.56165C90.4672 7.57369 90.7799 6.84517 91.2116 6.3761C91.4209 6.14544 91.6777 5.9629 91.9644 5.84107C92.2511 5.71925 92.5607 5.66102 92.872 5.67041C93.337 5.65773 93.7959 5.77875 94.1942 6.01911Z" fill="white"/>
<path d="M106.021 3.90198V14.3627H102.461V12.4532C102.193 13.133 101.71 13.7071 101.087 14.0888C100.399 14.4808 99.6163 14.6761 98.8247 14.6533C98.0798 14.6707 97.3465 14.4662 96.718 14.0659C96.1094 13.6706 95.6245 13.1116 95.3191 12.4532C94.9858 11.7265 94.8199 10.9343 94.8334 10.1349C94.81 9.30602 94.9865 8.48374 95.3482 7.73759C95.6806 7.05417 96.1993 6.47857 96.8446 6.07715C97.508 5.67527 98.2713 5.46879 99.0468 5.48147C100.74 5.48147 101.879 6.2176 102.461 7.68986V3.90198H106.021ZM101.938 11.4155C102.119 11.2369 102.262 11.0225 102.356 10.7859C102.45 10.5494 102.493 10.2958 102.484 10.0415C102.492 9.7947 102.447 9.54911 102.353 9.32086C102.259 9.09262 102.117 8.8869 101.938 8.71725C101.531 8.3857 101.022 8.20467 100.497 8.20467C99.9714 8.20467 99.4623 8.3857 99.0551 8.71725C98.8762 8.89079 98.7359 9.10006 98.6433 9.33144C98.5507 9.56281 98.5078 9.8111 98.5175 10.0601C98.5084 10.3115 98.5521 10.562 98.6458 10.7954C98.7394 11.0289 98.881 11.2401 99.0613 11.4155C99.252 11.5927 99.4762 11.7301 99.7207 11.8196C99.9652 11.909 100.225 11.9488 100.485 11.9364C100.75 11.9511 101.015 11.9125 101.264 11.823C101.514 11.7335 101.743 11.595 101.938 11.4155Z" fill="white"/>
<path d="M22.7973 1.67497C21.0635 0.881212 19.2332 0.318094 17.3531 0C17.0959 0.459917 16.8631 0.933111 16.6558 1.4176C14.6531 1.11582 12.6165 1.11582 10.6138 1.4176C10.4064 0.933161 10.1736 0.459973 9.91644 0C8.03513 0.32078 6.20362 0.885235 4.46812 1.67912C1.02271 6.77667 0.0887103 11.7476 0.555709 16.648C2.57343 18.1388 4.83183 19.2725 7.23275 20C7.77337 19.2729 8.25175 18.5015 8.66281 17.6941C7.88206 17.4025 7.12849 17.0427 6.41084 16.6189C6.59971 16.4819 6.78444 16.3408 6.96293 16.2038C9.05114 17.1859 11.3303 17.695 13.6379 17.695C15.9455 17.695 18.2247 17.1859 20.3129 16.2038C20.4934 16.3512 20.6782 16.4923 20.865 16.6189C20.1459 17.0434 19.391 17.4038 18.6088 17.6961C19.0194 18.5032 19.4978 19.2739 20.0389 20C22.4419 19.2755 24.702 18.1422 26.7201 16.6501C27.268 10.9672 25.784 6.04193 22.7973 1.67497ZM9.25434 13.6343C7.95297 13.6343 6.87784 12.4533 6.87784 11.0004C6.87784 9.54753 7.91561 8.35616 9.25019 8.35616C10.5848 8.35616 11.6516 9.54753 11.6288 11.0004C11.6059 12.4533 10.5806 13.6343 9.25434 13.6343ZM18.0215 13.6343C16.718 13.6343 15.647 12.4533 15.647 11.0004C15.647 9.54753 16.6848 8.35616 18.0215 8.35616C19.3581 8.35616 20.4166 9.54753 20.3938 11.0004C20.371 12.4533 19.3477 13.6343 18.0215 13.6343Z" fill="white"/>
<path d="M50.8629 6.76837C51.843 6.76837 52.6375 6.0547 52.6375 5.17434C52.6375 4.29399 51.843 3.58032 50.8629 3.58032C49.8828 3.58032 49.0883 4.29399 49.0883 5.17434C49.0883 6.0547 49.8828 6.76837 50.8629 6.76837Z" fill="white"/>
<path d="M49.0862 7.86633C49.6484 8.1026 50.2521 8.2243 50.8619 8.2243C51.4717 8.2243 52.0753 8.1026 52.6375 7.86633V14.4085H49.0862V7.86633Z" fill="white"/>
</svg>
