<svg width="25" height="24" viewBox="0 0 25 24" fill="none" xmlns="http://www.w3.org/2000/svg">
<path d="M15.5647 0.0234375H11.6481V5.99555C11.063 5.84306 10.58 5.7922 9.94402 5.7922C5.84953 5.7922 3.20428 8.38627 3.20428 12.3791C3.20428 16.5247 5.69691 18.6864 10.4784 18.6864C12.0799 18.6864 13.5552 18.5339 15.5647 18.1524V0.0234375H15.5647ZM11.6481 15.4314C11.0885 15.5075 10.7325 15.5327 10.3002 15.5327C8.29093 15.5327 7.19724 14.3886 7.19724 12.3029C7.19724 10.1666 8.3416 8.94586 10.3258 8.94586C10.8088 8.94586 11.19 8.99667 11.6481 9.1492V15.4314ZM21.7957 0.0444844V4.06289H17.879V0.0444844H21.7957ZM17.879 6.07181H21.7957V15.1515C21.7957 18.2797 21.5665 19.78 20.8799 21.0773C20.2443 22.3237 19.4049 23.1118 17.6753 23.9766L14.0383 22.2471C15.7675 21.4334 16.6075 20.7217 17.1413 19.6275C17.7007 18.5085 17.879 17.2114 17.879 13.8032V6.07181Z" fill="white"/>
</svg>
