<svg width="25" height="24" viewBox="0 0 25 24" fill="none" xmlns="http://www.w3.org/2000/svg">
<g clip-path="url(#clip0_1_2825)">
<path d="M17.6293 0C16.6956 0.00825 15.7701 0.141 14.8716 0.402L14.8093 0.42225C14.2461 0.324 13.6723 0.27 13.1023 0.258C11.9226 0.23775 10.9101 0.52275 10.0941 0.99975C9.28931 0.723 7.62131 0.23775 5.86331 0.336C4.64156 0.402 3.30506 0.77325 2.31206 1.82025C1.32806 2.8635 0.805309 4.4805 0.914059 6.684C0.944809 7.28925 1.11731 8.277 1.40606 9.56175C1.69106 10.8435 2.09381 12.3435 2.59781 13.7145C3.10181 15.0818 3.65156 16.3118 4.51181 17.1473C4.94081 17.565 5.53481 17.9213 6.23381 17.8905C6.72281 17.8703 7.16381 17.6558 7.54706 17.3393C7.73381 17.5853 7.93406 17.6903 8.11331 17.7885C8.34431 17.9138 8.56256 17.9993 8.79356 18.0548C9.20756 18.1598 9.91481 18.297 10.7428 18.156C11.0241 18.1088 11.3211 18.0158 11.6181 17.8868C11.6301 18.2145 11.6421 18.5385 11.6533 18.867C11.6961 19.902 11.7246 20.859 12.0321 21.699C12.0831 21.8363 12.2203 22.539 12.7588 23.1638C13.3018 23.7885 14.3556 24.1755 15.5631 23.9175C16.4113 23.7375 17.4928 23.4098 18.2121 22.3868C18.9231 21.3788 19.2433 19.9298 19.3063 17.5778C19.3213 17.4488 19.3416 17.3438 19.3603 17.2418L19.5283 17.2575H19.5486C20.4546 17.2965 21.4393 17.1675 22.2636 16.7843C22.9896 16.4483 23.5408 16.1085 23.9428 15.5033C24.0411 15.354 24.1536 15.171 24.1821 14.8583C24.2128 14.55 24.0328 14.061 23.7358 13.8353C23.1426 13.3823 22.7676 13.554 22.3648 13.6403C21.9711 13.7265 21.5676 13.7723 21.1656 13.7843C22.3213 11.8395 23.1493 9.7695 23.6226 7.94025C23.9038 6.858 24.0606 5.862 24.0718 4.99125C24.0876 4.1205 24.0141 3.351 23.4936 2.6835C21.8608 0.6015 19.5673 0.0225 17.7943 0.00375C17.7396 0.00375 17.6856 0.00375 17.6301 0.00375L17.6293 0ZM17.5821 0.64125C19.2583 0.6255 21.4018 1.09425 22.9408 3.06225C23.2888 3.504 23.3908 4.14825 23.3788 4.9455C23.3668 5.74275 23.2191 6.6915 22.9491 7.73475C22.4301 9.759 21.4408 12.1095 20.0548 14.2238C20.1021 14.259 20.1561 14.2898 20.2108 14.31C20.4996 14.4308 21.1596 14.532 22.4796 14.2628C22.8118 14.1915 23.0548 14.1458 23.3083 14.337C23.4336 14.442 23.4996 14.5988 23.4913 14.763C23.4763 14.8838 23.4336 15.0008 23.3586 15.099C23.1043 15.4808 22.6018 15.8453 21.9568 16.146C21.3868 16.4108 20.5656 16.548 19.8441 16.5563C19.4773 16.56 19.1413 16.5323 18.8548 16.4423L18.8398 16.4393C18.7296 17.4975 18.4768 19.5915 18.3118 20.544C18.1798 21.3128 17.9488 21.927 17.5078 22.3838C17.0661 22.845 16.4451 23.118 15.6051 23.298C14.5663 23.5208 13.8118 23.2823 13.3243 22.872C12.8368 22.4618 12.6133 21.915 12.4806 21.5828C12.3876 21.3525 12.3403 21.0555 12.2938 20.6565C12.2466 20.2583 12.2158 19.7738 12.1918 19.2233C12.1611 18.3833 12.1491 17.5433 12.1611 16.6995C11.7283 17.0985 11.1891 17.3595 10.6101 17.4615C9.91931 17.5785 9.30581 17.4615 8.93906 17.3715C8.75906 17.3243 8.58281 17.2583 8.41931 17.1683C8.24756 17.0783 8.08706 16.977 7.97831 16.773C7.91531 16.656 7.89656 16.5203 7.92356 16.3913C7.95431 16.2585 8.03231 16.1453 8.13881 16.059C8.33756 15.8978 8.60006 15.8093 8.99381 15.7268C9.71306 15.5775 9.96656 15.477 10.1188 15.3548C10.2478 15.2535 10.3971 15.0428 10.6536 14.7338C10.6536 14.7225 10.6536 14.7068 10.6498 14.6948C10.1856 14.6798 9.73181 14.559 9.32156 14.3355C9.17381 14.4915 8.40356 15.3045 7.47056 16.4295C7.07981 16.8975 6.64631 17.1675 6.18581 17.1878C5.72906 17.2065 5.31356 16.977 4.96256 16.6365C4.25981 15.9525 3.69656 14.7765 3.20831 13.4483C2.72006 12.12 2.32556 10.6403 2.04056 9.3825C1.75931 8.12025 1.59131 7.10475 1.56731 6.6165C1.46231 4.5345 1.95056 3.13275 2.78606 2.2455C3.62156 1.35825 4.76681 1.02675 5.88431 0.96075C7.88831 0.8475 9.79406 1.5465 10.1773 1.695C10.9191 1.191 11.8761 0.879 13.0716 0.89775C13.6386 0.906 14.2003 0.9795 14.7516 1.11675L14.7718 1.10475C15.0141 1.023 15.2601 0.94875 15.5098 0.89475C16.1901 0.7335 16.8846 0.65175 17.5798 0.6405L17.5821 0.64125ZM17.7343 1.30875H17.5866C17.0166 1.3155 16.4413 1.383 15.8833 1.50375C17.1291 2.055 18.0703 2.90175 18.7341 3.75375C19.1953 4.3395 19.5741 4.98375 19.8628 5.6715C19.9768 5.93775 20.0511 6.15975 20.0901 6.3315C20.1133 6.41775 20.1253 6.49125 20.1328 6.5655C20.1328 6.6045 20.1366 6.64425 20.1171 6.71025C20.1171 6.714 20.1133 6.72225 20.1133 6.726C20.1456 7.60125 19.9266 8.19375 19.8981 9.03C19.8793 9.636 20.0353 10.347 20.0743 11.124C20.1096 11.8538 20.0203 12.6548 19.5471 13.4438C19.5861 13.491 19.6213 13.5375 19.6603 13.5885C20.9143 11.6115 21.8203 9.42825 22.3011 7.5645C22.5591 6.56025 22.6948 5.6505 22.7068 4.93275C22.7188 4.2135 22.5861 3.69 22.4136 3.47175C21.0696 1.7565 19.2538 1.3185 17.7336 1.308L17.7343 1.30875ZM12.9411 1.566C11.7621 1.56975 10.9138 1.926 10.2703 2.46075C9.60506 3.01575 9.16031 3.7695 8.87156 4.5465C8.52356 5.4645 8.40281 6.35475 8.35556 6.96075L8.37131 6.9525C8.72756 6.75375 9.19556 6.5505 9.69956 6.43725C10.1998 6.3195 10.7428 6.28425 11.2303 6.47625C11.7231 6.663 12.1251 7.11225 12.2736 7.788C12.9778 11.046 12.0553 12.2573 11.7156 13.1708C11.5866 13.503 11.4733 13.839 11.3833 14.1825C11.4261 14.1743 11.4696 14.1623 11.5123 14.1585C11.7546 14.1398 11.9413 14.2178 12.0516 14.2643C12.3958 14.4083 12.6298 14.7053 12.7588 15.045C12.7896 15.135 12.8128 15.228 12.8286 15.33C12.8406 15.369 12.8488 15.4118 12.8488 15.4553C12.8098 16.701 12.8128 17.9475 12.8601 19.1933C12.8841 19.7325 12.9193 20.205 12.9621 20.58C13.0048 20.9513 13.0633 21.2363 13.1031 21.3338C13.2313 21.654 13.4188 22.0718 13.7593 22.3568C14.0953 22.6425 14.5791 22.83 15.4663 22.6425C16.2351 22.4745 16.7083 22.2473 17.0241 21.9195C17.3413 21.5873 17.5281 21.1305 17.6488 20.4315C17.8326 19.3808 18.1956 16.3335 18.2391 15.7635C18.2203 15.3293 18.2818 14.9978 18.4228 14.7435C18.5631 14.4855 18.7821 14.3258 18.9741 14.2395C19.0671 14.1968 19.1571 14.1698 19.2313 14.1458C19.1533 14.037 19.0716 13.9275 18.9891 13.8218C18.7161 13.4895 18.4888 13.119 18.3208 12.7245C18.2428 12.5595 18.1566 12.3953 18.0628 12.2393C17.9308 12.0015 17.7628 11.7 17.5866 11.3603C17.2348 10.6883 16.8523 9.8685 16.6528 9.07125C16.4541 8.274 16.4271 7.4505 16.9348 6.87225C17.3841 6.35625 18.1768 6.1425 19.3596 6.26325C19.3243 6.1575 19.3056 6.0675 19.2463 5.931C18.9771 5.298 18.6253 4.704 18.2031 4.16475C17.1988 2.88 15.5698 1.60575 13.0588 1.563L12.9411 1.566ZM6.30131 1.617C6.17606 1.617 6.04706 1.62075 5.92256 1.629C4.91081 1.68825 3.95756 1.98 3.27356 2.703C2.59031 3.42975 2.14181 4.61325 2.23856 6.57825C2.25881 6.95325 2.41856 7.992 2.69531 9.23025C2.97356 10.4693 3.36731 11.9265 3.84056 13.215C4.31231 14.4998 4.88381 15.621 5.43056 16.152C5.70356 16.4138 5.94131 16.5233 6.15656 16.5158C6.37181 16.5038 6.63356 16.3785 6.95381 15.996C7.53581 15.2933 8.13806 14.613 8.76281 13.9493C7.86356 13.164 7.42256 11.9775 7.59881 10.797C7.70006 10.059 7.71581 9.36675 7.70006 8.82C7.68881 8.289 7.65281 7.938 7.65281 7.71525C7.65281 7.707 7.65281 7.70325 7.65281 7.695V7.69125L7.64906 7.6845C7.64906 6.53175 7.85306 5.39175 8.24306 4.3095C8.52431 3.5625 8.93906 2.8095 9.56306 2.19525C8.95031 1.992 7.85981 1.68825 6.68081 1.629C6.55556 1.62075 6.42581 1.617 6.30131 1.617ZM18.6988 6.89775C18.0201 6.90975 17.6406 7.086 17.4381 7.31175C17.1561 7.6365 17.1291 8.2065 17.3053 8.91C17.4801 9.61275 17.8446 10.398 18.1843 11.0513C18.3523 11.379 18.5166 11.6723 18.6486 11.91C18.7858 12.1523 18.8833 12.3203 18.9418 12.4688C18.9966 12.6015 19.0596 12.7185 19.1218 12.828C19.3836 12.273 19.4308 11.73 19.4031 11.16C19.3678 10.4573 19.2043 9.738 19.2313 9.012C19.2591 8.16 19.4271 7.605 19.4391 6.94875C19.1961 6.918 18.9463 6.89775 18.7003 6.89775H18.6988ZM10.4653 7.01625C10.2583 7.01625 10.0513 7.04325 9.84806 7.0905C9.44531 7.18875 9.05906 7.3365 8.69531 7.53975C8.57456 7.60575 8.45756 7.68075 8.34806 7.767L8.32406 7.78575C8.33231 7.935 8.35931 8.286 8.37131 8.8095C8.38331 9.3795 8.37131 10.1055 8.26256 10.8915C8.02031 12.6023 9.26231 14.0168 10.7196 14.0205C10.8058 13.6688 10.9453 13.3125 11.0863 12.9383C11.4921 11.844 12.2893 11.0475 11.6173 7.9305C11.5086 7.42275 11.2896 7.21575 10.9881 7.09875C10.8201 7.0395 10.6453 7.0125 10.4653 7.017V7.01625ZM18.3831 7.21875H18.4341C18.4963 7.2225 18.5593 7.227 18.6133 7.242C18.6643 7.254 18.7116 7.26975 18.7506 7.29675C18.7896 7.32 18.8166 7.359 18.8248 7.4055V7.41375C18.8248 7.461 18.8128 7.5075 18.7896 7.551C18.7588 7.605 18.7236 7.656 18.6808 7.69875C18.5788 7.812 18.4416 7.887 18.2938 7.9095C18.1491 7.92975 18.0051 7.89075 17.8836 7.80825C17.8363 7.77225 17.7898 7.73325 17.7546 7.6905C17.7193 7.65525 17.6998 7.60875 17.6916 7.5615C17.6886 7.51575 17.6998 7.4685 17.7306 7.43325C17.7666 7.39725 17.8056 7.3665 17.8483 7.34325C17.9451 7.2885 18.0741 7.2495 18.2233 7.22925C18.2773 7.2225 18.3321 7.218 18.3831 7.21425V7.21875ZM10.5621 7.38675C10.6131 7.38675 10.6723 7.3905 10.7271 7.398C10.8831 7.422 11.0158 7.461 11.1208 7.52325C11.1718 7.54725 11.2191 7.58625 11.2536 7.629C11.2926 7.67625 11.3113 7.734 11.3083 7.797C11.2963 7.85475 11.2723 7.91025 11.2333 7.953C11.1906 8.004 11.1441 8.04675 11.0893 8.082C10.9603 8.17575 10.8006 8.21475 10.6401 8.19525C10.4788 8.16825 10.3311 8.09025 10.2223 7.9695C10.1751 7.9185 10.1361 7.86375 10.1046 7.80525C10.0693 7.7505 10.0543 7.68825 10.0618 7.62525C10.0776 7.52025 10.1676 7.461 10.2538 7.43025C10.3521 7.398 10.4571 7.3875 10.5621 7.39125V7.38675ZM19.6213 14.73H19.6176C19.4736 14.7848 19.3528 14.805 19.2508 14.8523C19.1458 14.8913 19.0626 14.9693 19.0131 15.066C18.9463 15.18 18.8961 15.3833 18.9111 15.7298C18.9538 15.762 19.0048 15.7845 19.0603 15.801C19.2283 15.852 19.5171 15.8873 19.8373 15.8828C20.4741 15.8745 21.2593 15.7268 21.6771 15.531C22.0168 15.375 22.3371 15.1643 22.6183 14.9183C21.2241 15.2033 20.4396 15.129 19.9543 14.9303C19.8373 14.8793 19.7233 14.8125 19.6213 14.73ZM11.5903 14.8238H11.5701C11.5161 14.8275 11.4411 14.8478 11.2888 15.012C10.9408 15.402 10.8201 15.648 10.5351 15.8753C10.2463 16.1055 9.87506 16.227 9.12881 16.3793C8.89481 16.4265 8.75756 16.4805 8.66756 16.5233C8.69456 16.5473 8.69456 16.5555 8.73731 16.5743C8.84756 16.6373 8.98706 16.6883 9.10106 16.719C9.42131 16.797 9.94406 16.8908 10.4953 16.797C11.0421 16.7033 11.6121 16.4408 12.1011 15.7583C12.1873 15.6413 12.1941 15.465 12.1243 15.2775C12.0546 15.0945 11.9016 14.9303 11.7966 14.8875C11.7298 14.8553 11.6593 14.8365 11.5896 14.8245L11.5903 14.8238Z" fill="white"/>
</g>
<defs>
<clipPath id="clip0_1_2825">
<rect width="24" height="24" fill="white" transform="translate(0.5)"/>
</clipPath>
</defs>
</svg>
