<svg width="25" height="24" viewBox="0 0 25 24" fill="none" xmlns="http://www.w3.org/2000/svg">
<g clip-path="url(#clip0_1_2838)">
<path d="M18.0118 6.53564C18.008 6.53939 17.762 6.78989 17.621 6.94214C17.258 7.34039 16.703 7.91865 16.3123 8.0634H16.3085C16.2538 8.04764 16.2028 8.02814 16.148 8.01239L16.8515 6.59039L16.844 6.6024C16.8208 6.64515 16.1255 8.01614 15.1798 7.81739L15.176 7.82115C15.1603 7.8174 15.149 7.82114 15.137 7.81739C15.59 7.23914 15.7663 6.70439 15.7663 6.70439C15.7663 6.70439 15.0125 7.91939 14.075 7.59089C14.0555 7.58339 14.036 7.56764 14.0278 7.54364C14.0203 7.51664 14.0203 7.4889 14.0278 7.46565C14.0353 7.4229 14.0668 7.37189 14.0945 7.32464C14.1883 7.14914 14.3525 6.95339 14.3525 6.95339C14.3525 6.95339 14.1965 7.10564 13.985 7.25039L13.9813 7.25414C13.8253 7.35989 13.6378 7.46114 13.4615 7.48889C13.4068 7.49639 13.352 7.49639 13.2973 7.48889C13.0828 7.44989 13.0865 7.23915 13.145 7.03215C13.2073 6.8289 13.3205 6.63389 13.3205 6.63389C13.3205 6.63389 13.1293 6.9309 12.9223 7.21965C12.7618 7.4424 12.6095 7.61414 12.5083 7.69214L12.3875 7.69589C12.3253 7.52039 12.485 6.94215 12.485 6.9384C12.3913 7.09065 12.2855 7.23914 12.1723 7.38389C12.0748 7.51289 11.9615 7.62614 11.8325 7.71989H11.8055C11.7238 7.72739 11.645 7.73939 11.567 7.75139C11.5318 7.71989 11.5085 7.67339 11.5048 7.62614C11.462 7.35689 11.6255 6.86865 11.63 6.86415C11.6263 6.8679 11.5363 7.12214 11.4193 7.36439V7.36814C11.3878 7.43865 11.3488 7.48889 11.3098 7.54814C11.2235 7.68464 11.1343 7.79039 11.0518 7.76714C10.9228 7.72814 10.8485 7.56389 10.8058 7.41164C10.7585 7.25939 10.7473 7.11089 10.7473 7.11089C10.7473 7.11089 10.7158 7.36514 10.6303 7.59914C10.5988 7.69289 10.5485 7.78289 10.4855 7.86089C10.4623 7.88789 10.427 7.89989 10.3993 7.91564C9.50077 8.07614 8.62177 8.33339 7.78177 8.68139C7.55902 8.76314 7.33627 8.84189 7.10602 8.93939C6.35602 9.25964 5.57902 9.66239 4.76602 10.1851C3.86377 10.7671 3.00802 11.4196 2.20327 12.1306C1.75777 12.5251 1.29727 12.9511 0.828518 13.4199C4.38727 11.5059 5.79727 8.67764 12.461 8.4279C17.504 8.23665 19.8598 10.5646 20.6405 10.5961C22.5935 10.6779 23.8948 9.1974 24.3125 8.65065C24.422 8.50964 24.488 8.41215 24.4925 8.40464C24.485 8.41664 24.164 8.77964 23.7155 9.12764L23.708 9.13139C23.2468 9.48314 22.6573 9.81089 22.1338 9.73289H22.13C22.0633 9.72089 21.9935 9.72539 21.9268 9.69764C22.6693 9.26414 23.1613 8.51039 23.4073 8.10389C23.4853 7.97864 23.642 7.74464 23.642 7.74464C23.642 7.74464 21.896 9.53339 20.5948 9.41264C20.54 9.40889 20.489 9.42014 20.4388 9.40889C21.005 8.96339 21.4235 8.36564 21.716 7.86164V7.85789H21.7198C22.0363 7.31114 22.2005 6.87314 22.2005 6.86564C22.1968 6.87314 21.8765 7.3614 21.4348 7.90065L21.4273 7.91264C20.9855 8.45189 20.4275 9.0339 19.9625 9.21315C19.892 9.2364 19.8215 9.27539 19.7593 9.28364C20.8415 8.32289 21.2983 6.96315 21.2983 6.96315C21.2983 6.96315 20.2003 8.55689 19.271 8.85014C19.2163 8.86589 19.1578 8.89739 19.0993 8.90489C19.6693 8.39339 19.97 7.98314 20.1575 7.66289C20.396 7.26089 20.4388 7.01414 20.4388 7.01414L20.435 7.01789C20.345 7.13115 20.255 7.24064 20.1613 7.35014L20.1455 7.36589C19.8913 7.66664 19.5013 8.10014 19.1023 8.44439L19.0985 8.44814C18.9928 8.53814 18.8878 8.61989 18.7783 8.69789C18.7468 8.71739 18.716 8.74514 18.6883 8.76464C18.602 8.81564 18.5083 8.86214 18.4145 8.90114C18.3913 8.90864 18.3718 8.92439 18.3478 8.93264C18.281 8.88539 18.2188 8.83889 18.1445 8.79614C18.0973 8.85464 18.047 8.91314 18.0035 8.97164H17.9998C17.9803 8.96789 17.957 8.96789 17.9375 8.95589C18.797 8.02214 19.379 6.83864 19.379 6.83864L19.3715 6.84239C19.364 6.84989 18.1798 8.45189 17.645 8.54939C17.5745 8.51414 17.504 8.47889 17.4305 8.44814C17.4343 8.39339 17.45 8.33864 17.4733 8.28389C17.594 8.00264 17.9383 7.56914 17.9383 7.56914C17.9383 7.56914 17.8445 7.63964 17.813 7.66289C17.7155 7.74914 17.6135 7.82714 17.5123 7.90139C17.4538 7.94414 17.3953 7.97564 17.3405 8.01089C17.2738 8.04989 17.2115 8.08889 17.1493 8.11664C17.0713 8.16389 16.9813 8.19089 16.8875 8.20289C16.8448 8.20289 16.8058 8.19914 16.778 8.17589C17.231 7.89839 18.0043 6.54689 18.0125 6.53939L18.0118 6.53564ZM13.2185 8.69939C12.914 8.69564 12.6088 8.69564 12.308 8.70689C12.0193 8.71889 11.7575 8.73839 11.4875 8.76164C11.2063 8.88689 10.9408 9.03089 10.7023 9.22289C10.7255 9.27389 10.7375 9.33239 10.7375 9.39089C10.7375 9.45764 10.7218 9.51989 10.6903 9.57839L11.5768 10.2226L11.6 10.2069L11.237 8.94089L11.8618 10.0584C11.8813 10.0509 11.9045 10.0426 11.924 10.0351L11.9045 8.80064L12.3028 9.96464L12.7753 8.81264L12.7948 10.0824C12.7985 10.0861 12.8023 10.0899 12.8068 10.0899L13.5178 9.08564L13.1548 10.3044L13.1623 10.3119L14.2055 9.62039L13.448 10.6711V10.6786L14.3975 10.3389C14.4095 10.3194 14.429 10.3074 14.4403 10.2879C14.2055 9.99914 14.4718 9.57689 14.8348 9.65864C14.9518 9.41264 15.0455 9.15464 15.104 8.88914C14.4793 8.77964 13.85 8.71739 13.2215 8.69789L13.2185 8.69939ZM10.715 8.83589H10.6918C10.3873 8.87114 10.0865 8.91389 9.80077 8.96114C9.51502 9.00839 9.23827 9.06239 8.97652 9.12164H8.96452C9.07777 9.51239 9.25777 9.87914 9.49177 10.2039C9.60127 9.96539 9.73777 9.74265 9.89377 9.54014C9.76477 9.1884 10.1128 8.84489 10.4638 8.98514C10.5418 8.92664 10.6318 8.88764 10.7135 8.83664L10.715 8.83589ZM15.1723 8.92589C15.1565 9.20714 15.1018 9.48464 15.0118 9.75389C15.3005 10.0156 15.0665 10.4919 14.6833 10.4334C14.5273 10.6636 14.3435 10.8789 14.1328 11.0626L14.7928 11.0979L13.8005 11.3326C13.7735 11.3521 13.7533 11.3754 13.7263 11.3911C14.2925 11.4811 14.8243 11.7196 15.2653 12.0826C15.5855 11.5081 15.7693 10.8481 15.7693 10.1409C15.7693 9.60539 15.5308 9.21539 15.1753 8.92589H15.1723ZM8.85577 9.15239C8.55877 9.22289 8.27377 9.30089 8.00452 9.38264C7.86802 9.60914 7.79377 9.87464 7.79377 10.1401C7.79377 11.7654 8.76277 13.1559 10.1495 13.7806L10.1533 13.7686C9.91852 13.5384 9.72352 13.2729 9.57127 12.9796C8.93077 13.0696 8.65702 12.1906 9.23527 11.9011C9.18052 11.4324 9.22777 10.9599 9.37627 10.5106C9.09877 10.1041 8.92327 9.63989 8.85652 9.15089L8.85577 9.15239ZM16.4848 9.18014C16.6258 9.59039 16.7113 10.0201 16.7113 10.4731C16.7113 12.9106 14.5078 14.8914 11.789 14.8914C9.07402 14.8914 6.87127 12.9106 6.87127 10.4731C6.87127 10.2346 6.89452 10.0044 6.93352 9.77789C6.15652 10.1064 5.48452 10.4851 4.85902 10.8909C4.64452 11.2779 4.53877 11.6836 4.57402 12.0901C4.66027 13.0749 5.52727 13.8946 6.85102 14.4534L6.59302 14.3866C4.30402 13.7379 2.48752 14.8869 0.499268 13.8909C0.960518 14.2539 1.48402 14.6094 2.99527 14.6139C3.51127 14.6139 5.15527 14.5321 5.45977 14.8014C5.76052 15.0631 4.43602 16.3134 4.43602 16.3134C4.43602 16.3134 6.67852 14.4151 6.89302 15.0631C7.02952 15.4651 6.25252 16.5399 6.25252 16.5399C6.25252 16.5399 7.03402 15.4816 7.61602 15.2544C8.01427 15.0984 8.35027 15.1179 8.63977 15.5199C8.82727 15.7816 7.72927 17.0709 7.72927 17.0709C7.72927 17.0709 9.20602 15.6331 9.46777 15.7074C9.73327 15.7816 9.46777 17.0709 9.46777 17.0709C9.46777 17.0709 10.0145 15.7659 10.304 15.6684C10.7023 15.5356 9.39352 18.6999 9.39352 18.6999C9.39352 18.6999 10.991 15.7741 11.288 15.7074C11.7995 15.5941 12.1393 17.7504 12.1393 17.7504C12.1393 17.7504 11.8895 15.8634 12.1588 15.7426C13.8538 14.9769 12.8773 19.0006 12.8773 19.0006C12.8773 19.0006 13.9865 16.2699 13.307 15.6646C15.104 16.8564 14.885 19.0006 14.885 19.0006C14.885 19.0006 15.3538 17.9814 14.0293 15.4696C14.7478 15.4344 15.83 17.3371 15.83 17.3371C15.83 17.3371 14.654 15.2551 15.4513 15.2161C17.0293 15.1419 17.1898 17.9821 17.1898 17.9821C17.1898 17.9821 17.666 17.5839 16.397 14.8021C17.2055 14.2824 19.1585 17.3724 19.1585 17.3724C19.1585 17.3724 17.3578 14.3566 17.6465 14.1534C17.9353 13.9539 18.9943 15.1141 18.9943 15.1141C18.9943 15.1141 18.1895 14.0049 18.4003 13.8916C18.6148 13.7784 20.7635 16.0989 20.7635 16.0989C20.7635 16.0989 18.869 13.8294 19.1968 13.5481C19.5253 13.2706 20.9113 14.3334 20.9113 14.3334C20.9113 14.3334 18.7783 12.9346 19.1968 12.7164C19.775 12.4156 21.431 13.4349 21.431 13.4349C21.431 13.4349 20.435 12.6144 20.5993 12.4156C20.7635 12.2124 22.7203 13.7011 22.7203 13.7011C22.7203 13.7011 20.99 12.3376 20.9 11.9979C20.8138 11.6581 22.2635 12.1111 22.2635 12.1111C22.2635 12.1111 20.6623 11.3686 20.6383 11.1541C20.6113 10.9396 21.6965 11.3926 21.6965 11.3926C21.6965 11.3926 20.2085 10.1701 19.841 11.1661C19.7593 11.3266 19.6535 11.4669 19.5598 11.6154C19.6498 11.3461 19.6925 11.0724 19.6693 10.7949C19.6573 10.7011 19.6423 10.6074 19.6145 10.5174C18.935 10.1499 17.915 9.58364 16.4818 9.18164L16.4848 9.18014ZM10.6565 9.63314C10.547 9.80114 10.3363 9.86789 10.1488 9.79739C10.094 9.87164 10.0475 9.94964 10.0003 10.0276L11.2775 10.4964C11.2895 10.4844 11.297 10.4694 11.309 10.4536L10.6565 9.63314ZM9.99577 10.0276C9.90202 10.1836 9.81577 10.3441 9.75352 10.5196C9.87427 10.6449 10.0153 10.7544 10.148 10.8594L11.0698 10.8324L11.0735 10.8286L9.99577 10.0276ZM14.1838 10.5706L13.5785 11.0319L13.6333 11.0356C13.8328 10.9029 14.0158 10.7469 14.1838 10.5706ZM9.64852 10.8594C9.64852 10.8714 9.64477 10.8826 9.64102 10.8946C9.57052 11.2111 9.55477 11.5351 9.59377 11.8554C9.82852 11.9026 10.0078 12.0901 10.043 12.3279L10.9805 11.7264C10.8943 11.6949 10.8088 11.6679 10.7308 11.6326L9.68002 11.5546L10.3168 11.4136C10.0708 11.2614 9.84802 11.0739 9.64852 10.8586V10.8594ZM10.4413 11.0701C10.5823 11.1564 10.7225 11.2306 10.871 11.2966L10.988 11.2696C10.988 11.2539 10.9918 11.2344 10.9918 11.2149L10.4413 11.0701ZM13.5628 11.7541L14.4808 12.6526L13.2815 12.1876L13.985 13.2661L12.911 12.4344L12.899 12.4381L13.247 13.7191L12.6493 12.5821L12.5555 13.9104L12.149 12.5859L11.6803 13.8474L11.7935 12.4876L11.7778 12.4801L10.9655 13.6321L11.2625 12.5229C10.9145 12.8551 10.6453 13.2609 10.4698 13.7146C10.5635 13.8159 10.6648 13.9096 10.7705 14.0034C12.4348 14.4369 14.1883 13.7574 15.122 12.3121C14.7433 12.0504 14.3173 11.8666 13.8643 11.7729L13.5628 11.7541ZM11.129 11.9769L10.0505 12.3639C10.0505 12.3834 10.058 12.3991 10.058 12.4149C10.058 12.5754 9.99127 12.7276 9.87427 12.8371C9.97552 13.0561 10.1008 13.2594 10.2493 13.4506C10.331 13.2279 10.4405 13.0171 10.5695 12.8176L10.2725 13.0561L11.129 11.9769ZM14.762 14.7661C14.5745 14.8134 14.3908 14.8636 14.1995 14.9026C14.3908 14.8636 14.5745 14.8126 14.762 14.7661ZM13.6723 15.0001C13.559 15.0196 13.4458 15.0474 13.3325 15.0624C13.1293 15.0939 12.9418 15.1051 12.7468 15.1246C13.0633 15.0931 13.3715 15.0511 13.6723 15.0001ZM12.32 15.1719C12.2105 15.1794 12.1055 15.1756 11.996 15.1839C12.1093 15.1764 12.2105 15.1801 12.32 15.1719Z" fill="white"/>
</g>
<defs>
<clipPath id="clip0_1_2838">
<rect width="24" height="24" fill="white" transform="translate(0.5)"/>
</clipPath>
</defs>
</svg>
