<svg width="74" height="74" viewBox="0 0 74 74" fill="none" xmlns="http://www.w3.org/2000/svg">
<g filter="url(#filter0_i_1_2497)">
<rect x="2" y="2" width="70" height="70" rx="35" fill="#A0D113"/>
<rect x="1.22656" y="1.22656" width="71.5469" height="71.5469" rx="35.7734" stroke="url(#paint0_linear_1_2497)" stroke-width="1.54688"/>
<path d="M24.9091 36.9092L36.9091 24.9092L48.9091 36.9092L36.9091 48.9092L24.9091 36.9092Z" fill="white"/>
<path d="M56.9091 28.9092L48.9091 36.9092V24.9092H36.9091L44.9091 16.9092H56.9091V28.9092Z" fill="white"/>
<path d="M56.9091 44.9092L48.9091 36.9092V48.9092H36.9091L44.9091 56.9092H56.9091V44.9092Z" fill="white"/>
<path d="M16.9091 44.9092L24.9091 36.9092V48.9092H36.9091L28.9091 56.9092H16.9091L16.9091 44.9092Z" fill="white"/>
<path d="M16.9091 28.9092L24.9091 36.9092V24.9092H36.9091L28.9091 16.9092H16.9091L16.9091 28.9092Z" fill="white"/>
</g>
<defs>
<filter id="filter0_i_1_2497" x="0.453125" y="0.453125" width="73.0938" height="73.0938" filterUnits="userSpaceOnUse" color-interpolation-filters="sRGB">
<feFlood flood-opacity="0" result="BackgroundImageFix"/>
<feBlend mode="normal" in="SourceGraphic" in2="BackgroundImageFix" result="shape"/>
<feColorMatrix in="SourceAlpha" type="matrix" values="0 0 0 0 0 0 0 0 0 0 0 0 0 0 0 0 0 0 127 0" result="hardAlpha"/>
<feMorphology radius="12.375" operator="erode" in="SourceAlpha" result="effect1_innerShadow_1_2497"/>
<feOffset/>
<feGaussianBlur stdDeviation="10.0547"/>
<feComposite in2="hardAlpha" operator="arithmetic" k2="-1" k3="1"/>
<feColorMatrix type="matrix" values="0 0 0 0 1 0 0 0 0 1 0 0 0 0 1 0 0 0 0.3 0"/>
<feBlend mode="normal" in2="shape" result="effect1_innerShadow_1_2497"/>
</filter>
<linearGradient id="paint0_linear_1_2497" x1="2" y1="-1.08823" x2="72" y2="72" gradientUnits="userSpaceOnUse">
<stop stop-color="#EAE8FC"/>
<stop offset="1" stop-color="#D4D1FA" stop-opacity="0"/>
</linearGradient>
</defs>
</svg>
