<svg width="24" height="24" viewBox="0 0 24 24" fill="none" xmlns="http://www.w3.org/2000/svg">
<g clip-path="url(#clip0_1_385)">
<path d="M11.9978 2.81817C14.9895 2.81817 15.3407 2.8315 16.5231 2.88485C17.6167 2.93374 18.2079 3.116 18.6035 3.27159C19.1281 3.47607 19.5015 3.71612 19.8927 4.10731C20.2839 4.4985 20.5284 4.87191 20.7284 5.39646C20.8795 5.79209 21.0662 6.38332 21.1151 7.47687C21.1685 8.65933 21.1818 9.01051 21.1818 12.0022C21.1818 14.9939 21.1685 15.3451 21.1151 16.5276C21.0662 17.6211 20.884 18.2123 20.7284 18.608C20.5239 19.1325 20.2839 19.5059 19.8927 19.8971C19.5015 20.2883 19.1281 20.5328 18.6035 20.7328C18.2079 20.884 17.6167 21.0707 16.5231 21.1196C15.3407 21.1729 14.9895 21.1863 11.9978 21.1863C9.00607 21.1863 8.65489 21.1729 7.47243 21.1196C6.37888 21.0707 5.78765 20.8884 5.39201 20.7328C4.86746 20.5283 4.49406 20.2883 4.10287 19.8971C3.71168 19.5059 3.46719 19.1325 3.26715 18.608C3.116 18.2123 2.9293 17.6211 2.8804 16.5276C2.82706 15.3451 2.81372 14.9939 2.81372 12.0022C2.81372 9.01051 2.82706 8.65933 2.8804 7.47687C2.9293 6.38332 3.11156 5.79209 3.26715 5.39646C3.47163 4.87191 3.71168 4.4985 4.10287 4.10731C4.49406 3.71612 4.86746 3.47163 5.39201 3.27159C5.78765 3.12045 6.37888 2.93374 7.47243 2.88485C8.65489 2.82706 9.01051 2.81817 11.9978 2.81817ZM11.9978 0.799988C8.95717 0.799988 8.57487 0.813324 7.37908 0.866668C6.18773 0.920012 5.37423 1.11116 4.66298 1.38677C3.92505 1.67127 3.30271 2.05802 2.68036 2.68036C2.05802 3.30271 1.67572 3.9295 1.38677 4.66298C1.11116 5.37423 0.920012 6.18772 0.866668 7.38352C0.813324 8.57486 0.799988 8.95716 0.799988 11.9978C0.799988 15.0384 0.813324 15.4207 0.866668 16.6165C0.920012 17.8078 1.11116 18.6213 1.38677 19.337C1.67127 20.0749 2.05802 20.6973 2.68036 21.3196C3.30271 21.942 3.9295 22.3243 4.66298 22.6132C5.37423 22.8888 6.18773 23.08 7.38352 23.1333C8.57931 23.1867 8.95717 23.2 12.0022 23.2C15.0473 23.2 15.4251 23.1867 16.6209 23.1333C17.8123 23.08 18.6258 22.8888 19.3415 22.6132C20.0794 22.3287 20.7017 21.942 21.3241 21.3196C21.9464 20.6973 22.3287 20.0705 22.6177 19.337C22.8933 18.6257 23.0844 17.8123 23.1378 16.6165C23.1911 15.4207 23.2044 15.0428 23.2044 11.9978C23.2044 8.95272 23.1911 8.57486 23.1378 7.37907C23.0844 6.18772 22.8933 5.37423 22.6177 4.65853C22.3332 3.92061 21.9464 3.29826 21.3241 2.67592C20.7017 2.05357 20.0749 1.67127 19.3415 1.38233C18.6302 1.10672 17.8167 0.915566 16.6209 0.862222C15.4207 0.813324 15.0384 0.799988 11.9978 0.799988Z" fill="white"/>
<path d="M11.9978 6.24996C8.8238 6.24996 6.24551 8.8238 6.24551 12.0022C6.24551 15.1806 8.81936 17.7545 11.9978 17.7545C15.1762 17.7545 17.75 15.1806 17.75 12.0022C17.75 8.8238 15.1762 6.24996 11.9978 6.24996ZM11.9978 15.7318C9.93513 15.7318 8.26369 14.0604 8.26369 11.9978C8.26369 9.93513 9.93513 8.26369 11.9978 8.26369C14.0604 8.26369 15.7318 9.93513 15.7318 11.9978C15.7318 14.0604 14.0604 15.7318 11.9978 15.7318Z" fill="white"/>
<path d="M17.9767 7.36129C18.7182 7.36129 19.3192 6.76024 19.3192 6.0188C19.3192 5.27737 18.7182 4.67631 17.9767 4.67631C17.2353 4.67631 16.6342 5.27737 16.6342 6.0188C16.6342 6.76024 17.2353 7.36129 17.9767 7.36129Z" fill="white"/>
</g>
<defs>
<clipPath id="clip0_1_385">
<rect width="24" height="24" fill="white"/>
</clipPath>
</defs>
</svg>
