<svg width="120" height="121" viewBox="0 0 120 121" fill="none" xmlns="http://www.w3.org/2000/svg">
<line x1="60.5" y1="90.5" x2="60.5" y2="120.5" stroke="url(#paint0_linear_2047_1894)" stroke-opacity="0.15"/>
<line x1="-1" y1="60" x2="29" y2="60" stroke="url(#paint1_linear_2047_1894)" stroke-opacity="0.15"/>
<line x1="60.5" y1="0.5" x2="60.5" y2="30.5" stroke="url(#paint2_linear_2047_1894)" stroke-opacity="0.15"/>
<line x1="90" y1="60.5" x2="120" y2="60.5" stroke="url(#paint3_linear_2047_1894)" stroke-opacity="0.15"/>
<rect x="29.2266" y="29.7266" width="61.5469" height="61.5469" rx="30.7734" stroke="white" stroke-opacity="0.15" stroke-width="1.54688"/>
<rect x="38" y="38.5" width="44" height="44" rx="22" fill="url(#paint4_linear_2047_1894)" fill-opacity="0.15"/>
<rect x="38.5" y="39" width="43" height="43" rx="21.5" stroke="url(#paint5_linear_2047_1894)" stroke-opacity="0.2"/>
<rect x="38.5" y="39" width="43" height="43" rx="21.5" stroke="url(#paint6_linear_2047_1894)" stroke-opacity="0.3"/>
<path d="M66.375 50.75C65.3395 50.75 64.5 51.5895 64.5 52.625V68.375C64.5 69.4105 65.3395 70.25 66.375 70.25H67.125C68.1605 70.25 69 69.4105 69 68.375V52.625C69 51.5895 68.1605 50.75 67.125 50.75H66.375Z" fill="white"/>
<path d="M57.75 57.125C57.75 56.0895 58.5895 55.25 59.625 55.25H60.375C61.4105 55.25 62.25 56.0895 62.25 57.125V68.375C62.25 69.4105 61.4105 70.25 60.375 70.25H59.625C58.5895 70.25 57.75 69.4105 57.75 68.375V57.125Z" fill="white"/>
<path d="M51 61.625C51 60.5895 51.8395 59.75 52.875 59.75H53.625C54.6605 59.75 55.5 60.5895 55.5 61.625V68.375C55.5 69.4105 54.6605 70.25 53.625 70.25H52.875C51.8395 70.25 51 69.4105 51 68.375V61.625Z" fill="white"/>
<defs>
<linearGradient id="paint0_linear_2047_1894" x1="60" y1="90.5" x2="60" y2="120.5" gradientUnits="userSpaceOnUse">
<stop stop-color="white"/>
<stop offset="1" stop-color="white" stop-opacity="0"/>
</linearGradient>
<linearGradient id="paint1_linear_2047_1894" x1="-1" y1="60.5" x2="29" y2="60.5" gradientUnits="userSpaceOnUse">
<stop stop-color="white" stop-opacity="0"/>
<stop offset="1" stop-color="white"/>
</linearGradient>
<linearGradient id="paint2_linear_2047_1894" x1="60" y1="0.5" x2="60" y2="30.5" gradientUnits="userSpaceOnUse">
<stop stop-color="white" stop-opacity="0"/>
<stop offset="1" stop-color="white"/>
</linearGradient>
<linearGradient id="paint3_linear_2047_1894" x1="90" y1="61" x2="120" y2="61" gradientUnits="userSpaceOnUse">
<stop stop-color="white"/>
<stop offset="1" stop-color="white" stop-opacity="0"/>
</linearGradient>
<linearGradient id="paint4_linear_2047_1894" x1="96.0345" y1="24.8448" x2="38" y2="82.5" gradientUnits="userSpaceOnUse">
<stop offset="0.545273" stop-color="white" stop-opacity="0"/>
<stop offset="1" stop-color="white"/>
</linearGradient>
<linearGradient id="paint5_linear_2047_1894" x1="82" y1="38.5" x2="38" y2="82.5" gradientUnits="userSpaceOnUse">
<stop stop-color="white"/>
<stop offset="0.419845" stop-color="white" stop-opacity="0"/>
</linearGradient>
<linearGradient id="paint6_linear_2047_1894" x1="82" y1="38.5" x2="38" y2="82.5" gradientUnits="userSpaceOnUse">
<stop offset="0.710304" stop-color="white" stop-opacity="0"/>
<stop offset="0.89681" stop-color="white"/>
</linearGradient>
</defs>
</svg>
