<svg width="25" height="24" viewBox="0 0 25 24" fill="none" xmlns="http://www.w3.org/2000/svg">
<path fill-rule="evenodd" clip-rule="evenodd" d="M18.8936 22.1186C16.7996 22.1186 15.446 21.1202 14.786 19.8146L16.622 18.7512C17.1056 19.5408 17.7332 20.1205 18.8456 20.1205C19.7792 20.1205 20.3756 19.6534 20.3756 19.009C20.3756 18.0394 19.082 17.6605 18.1688 17.2693C16.5416 16.5769 15.4616 15.7069 15.4616 13.8697C15.4616 12.1789 16.7504 10.8902 18.7652 10.8902C20.198 10.8902 21.23 11.3894 21.9704 12.6938L20.2148 13.8217C19.8284 13.1293 19.4096 12.8555 18.7652 12.8555C18.104 12.8555 17.6852 13.2745 17.6852 13.8217C17.6852 14.4985 18.104 14.7722 19.0712 15.191C21.098 16.0598 22.6316 16.7424 22.6316 18.9768C22.6316 21.0072 21.0368 22.1186 18.8936 22.1186ZM13.7 18.7189C13.7 21.0553 12.2612 22.2902 10.2632 22.2902C8.45838 22.2902 7.37719 21.6 6.84559 20.4H6.82761H6.81919H6.81439L8.64918 19.1174C9.00318 19.745 9.3224 20.1902 10.0952 20.1902C10.8368 20.1902 11.3 19.8147 11.3 18.6879V10.8H13.7V18.7189ZM0.5 24H24.5V0H0.5V24Z" fill="white"/>
</svg>
