<svg width="25" height="24" viewBox="0 0 25 24" fill="none" xmlns="http://www.w3.org/2000/svg">
<path d="M20.705 16.3922C18.236 19.6812 12.964 18.5712 9.583 18.7302C9.583 18.7302 8.984 18.7642 8.382 18.8632C8.382 18.8632 8.61 18.7662 8.901 18.6652C11.275 17.8442 12.397 17.6792 13.84 16.9382C16.55 15.5502 19.248 12.5252 19.797 9.38319C18.765 12.4052 15.627 15.0062 12.77 16.0622C10.815 16.7842 7.278 17.4862 7.277 17.4862C7.22895 17.4616 7.18128 17.4363 7.134 17.4102C4.729 16.2402 4.659 11.0302 9.028 9.35119C10.944 8.61519 12.775 9.01919 14.846 8.52619C17.054 8.00119 19.612 6.34619 20.651 4.18219C21.816 7.64019 23.216 13.0482 20.705 16.3922ZM20.747 3.11219C20.4677 3.78194 20.1102 4.41634 19.682 5.00219C18.7512 4.04284 17.6372 3.28021 16.406 2.75955C15.1749 2.23889 13.8517 1.9708 12.515 1.97119C6.992 1.97119 2.5 6.46319 2.5 11.9852C2.49936 13.3626 2.78377 14.7253 3.33534 15.9874C3.88692 17.2496 4.69372 18.384 5.705 19.3192L5.925 19.5132C5.76465 19.3526 5.67464 19.1348 5.67478 18.9079C5.67492 18.6809 5.7652 18.4633 5.92575 18.3029C6.0863 18.1425 6.304 18.0524 6.53096 18.0524C6.75792 18.0525 6.97558 18.1426 7.13607 18.3031C7.29655 18.4636 7.38674 18.6813 7.38678 18.9082C7.38683 19.1352 7.29674 19.3529 7.13632 19.5134C6.9759 19.674 6.75828 19.7643 6.53131 19.7644C6.30435 19.7645 6.08662 19.6745 5.926 19.5142L6.075 19.6462C7.8754 21.1683 10.1574 22.0025 12.515 22.0002C17.793 22.0002 22.128 17.8922 22.499 12.7082C22.773 10.1692 22.023 6.94519 20.747 3.11219Z" fill="white"/>
</svg>
