<svg width="11" height="24" viewBox="0 0 11 24" fill="none" xmlns="http://www.w3.org/2000/svg">
<path d="M5.36576 17.3889C5.36576 17.3889 5.36576 9.61816 5.62376 9.61891C5.82326 9.61891 6.08276 19.6427 6.08276 19.6427C5.72576 19.6007 5.36576 17.9934 5.36576 17.3889ZM10.3668 9.70891C9.67751 6.69691 8.16776 4.10716 6.08576 2.10841L6.08051 2.10391C5.82701 1.71691 5.59526 1.27291 5.40926 0.804906L5.39126 0.753906C5.39201 0.768906 5.39201 0.786906 5.39201 0.804906C5.39201 1.22866 5.20226 1.60741 4.90301 1.86166L4.90076 1.86316C2.22026 4.13866 0.514763 7.49191 0.458513 11.2442V11.2539C0.457763 11.3004 0.457764 11.3552 0.457764 11.4099C0.457764 15.1277 2.24651 18.4277 5.01026 20.4962L5.03951 20.5172L5.10476 20.5644C5.22526 21.4564 5.32826 22.3504 5.41376 23.2464H5.86451C5.98901 22.1282 6.15701 21.1494 6.37676 20.1894L6.34226 20.3687C6.63926 20.1624 6.89876 19.9487 7.14101 19.7169L7.13876 19.7192C9.23951 17.7714 10.5505 14.9964 10.5505 11.9162C10.5505 11.8704 10.5505 11.8254 10.5498 11.7797V11.7864C10.5475 11.0507 10.4808 10.3314 10.354 9.63316L10.3653 9.70741L10.3668 9.70891Z" fill="white"/>
</svg>
