<svg width="24" height="24" viewBox="0 0 24 24" fill="none" xmlns="http://www.w3.org/2000/svg">
<path d="M20.8645 1.60001H3.13542C2.7282 1.60001 2.33765 1.76178 2.0497 2.04973C1.76175 2.33768 1.59998 2.72823 1.59998 3.13545V20.8646C1.59998 21.2718 1.76175 21.6623 2.0497 21.9503C2.33765 22.2382 2.7282 22.4 3.13542 22.4H20.8645C21.2718 22.4 21.6623 22.2382 21.9503 21.9503C22.2382 21.6623 22.4 21.2718 22.4 20.8646V3.13545C22.4 2.72823 22.2382 2.33768 21.9503 2.04973C21.6623 1.76178 21.2718 1.60001 20.8645 1.60001ZM7.79953 19.319H4.67231V9.38556H7.79953V19.319ZM6.23375 8.00901C5.87902 8.00701 5.53284 7.89998 5.23888 7.70142C4.94492 7.50285 4.71637 7.22167 4.58207 6.89334C4.44777 6.56501 4.41374 6.20425 4.48427 5.8566C4.5548 5.50895 4.72674 5.18998 4.97838 4.93995C5.23002 4.68992 5.55008 4.52004 5.89818 4.45174C6.24628 4.38344 6.60681 4.41979 6.93427 4.55619C7.26173 4.6926 7.54144 4.92295 7.73811 5.21818C7.93478 5.5134 8.03959 5.86027 8.03931 6.21501C8.04266 6.4525 7.99815 6.68824 7.90845 6.90817C7.81875 7.1281 7.68569 7.32772 7.5172 7.49513C7.34871 7.66254 7.14824 7.79432 6.92774 7.8826C6.70724 7.97089 6.47122 8.01388 6.23375 8.00901ZM19.3262 19.3277H16.2004V13.9009C16.2004 12.3005 15.5201 11.8065 14.6419 11.8065C13.7145 11.8065 12.8045 12.5056 12.8045 13.9413V19.3277H9.67731V9.39278H12.6846V10.7693H12.7251C13.027 10.1583 14.0843 9.11401 15.6978 9.11401C17.4426 9.11401 19.3276 10.1497 19.3276 13.183L19.3262 19.3277Z" fill="white"/>
</svg>
