<svg width="131" height="47" viewBox="0 0 131 47" fill="none" xmlns="http://www.w3.org/2000/svg">
<g filter="url(#filter0_i_1_599)">
<g clip-path="url(#clip0_1_599)">
<rect x="1" y="1" width="45.0002" height="45" rx="7" fill="#5547EB"/>
<mask id="mask0_1_599" style="mask-type:alpha" maskUnits="userSpaceOnUse" x="-116" y="-102" width="236" height="199">
<rect x="119.828" y="96.625" width="235.547" height="198.281" transform="rotate(180 119.828 96.625)" fill="url(#paint0_radial_1_599)"/>
</mask>
<g mask="url(#mask0_1_599)">
</g>
<g clip-path="url(#clip1_1_599)">
<g opacity="0.7">
<path opacity="0.11" d="M38.4965 18.5126C38.3495 18.6081 38.3077 18.8049 38.4031 18.952C38.4985 19.0992 38.6951 19.1411 38.8421 19.0456C38.9892 18.9501 39.031 18.7533 38.9356 18.6061C38.8401 18.4589 38.6436 18.4171 38.4965 18.5126Z" fill="white"/>
<path d="M36.6823 17.6088C36.5721 17.6804 36.5407 17.8279 36.6122 17.9383C36.6838 18.0487 36.8312 18.0801 36.9414 18.0084C37.0517 17.9368 37.083 17.7893 37.0115 17.6789C36.94 17.5686 36.7926 17.5372 36.6823 17.6088Z" fill="white"/>
<path d="M34.1038 23.2587C33.9935 23.3303 33.9622 23.4778 34.0337 23.5882C34.1053 23.6986 34.2526 23.73 34.3629 23.6584C34.4731 23.5867 34.5045 23.4392 34.433 23.3288C34.3614 23.2185 34.214 23.1871 34.1038 23.2587Z" fill="white"/>
<path d="M45.5882 16.1777C45.478 16.2493 45.4466 16.3968 45.5181 16.5072C45.5897 16.6176 45.7371 16.649 45.8473 16.5774C45.9576 16.5057 45.9889 16.3582 45.9174 16.2478C45.8458 16.1375 45.6985 16.1061 45.5882 16.1777Z" fill="white"/>
<path d="M35.5293 13.0578C35.4558 13.1055 35.4349 13.2038 35.4826 13.2773C35.5302 13.3509 35.6284 13.3718 35.7019 13.3241C35.7753 13.2763 35.7963 13.1781 35.7486 13.1045C35.7009 13.031 35.6027 13.0101 35.5293 13.0578Z" fill="white"/>
<path d="M6.5186 31.9025C6.44514 31.9503 6.42423 32.0486 6.47191 32.1221C6.51958 32.1956 6.61777 32.2166 6.69123 32.1688C6.76469 32.1211 6.7856 32.0228 6.73793 31.9493C6.69025 31.8758 6.59206 31.8548 6.5186 31.9025Z" fill="white"/>
<path opacity="0.11" d="M32.6845 8.08945C32.611 8.13718 32.5901 8.23547 32.6378 8.30901C32.6855 8.38254 32.7837 8.40346 32.8571 8.35574C32.9306 8.30802 32.9515 8.20973 32.9038 8.13619C32.8561 8.06266 32.758 8.04173 32.6845 8.08945Z" fill="white"/>
<path opacity="0.11" d="M8.00009 26.0192C7.92664 26.0669 7.90573 26.1652 7.9534 26.2388C8.00107 26.3123 8.09927 26.3332 8.17273 26.2855C8.24619 26.2378 8.26709 26.1395 8.21942 26.066C8.17175 25.9924 8.07355 25.9715 8.00009 26.0192Z" fill="white"/>
<path d="M31.7748 35.563C31.7014 35.6107 31.6805 35.709 31.7281 35.7826C31.7758 35.8561 31.874 35.877 31.9475 35.8293C32.0209 35.7816 32.0418 35.6833 31.9942 35.6097C31.9465 35.5362 31.8483 35.5153 31.7748 35.563Z" fill="white"/>
<path opacity="0.11" d="M16.6333 43.1275C16.5599 43.1753 16.539 43.2735 16.5866 43.3471C16.6343 43.4206 16.7325 43.4415 16.806 43.3938C16.8794 43.3461 16.9003 43.2478 16.8526 43.1743C16.805 43.1007 16.7068 43.0798 16.6333 43.1275Z" fill="white"/>
<path opacity="0.3" d="M24.4376 20.452C24.2906 20.5475 24.2487 20.7442 24.3441 20.8914C24.4396 21.0386 24.6361 21.0805 24.7832 20.985C24.9302 20.8895 24.972 20.6927 24.8766 20.5455C24.7812 20.3983 24.5846 20.3564 24.4376 20.452Z" fill="white"/>
<path opacity="0.11" d="M19.1767 29.5486C19.0297 29.6441 18.9879 29.8409 19.0833 29.9881C19.1787 30.1353 19.3753 30.1772 19.5223 30.0817C19.6693 29.9861 19.7112 29.7894 19.6158 29.6422C19.5203 29.495 19.3238 29.4531 19.1767 29.5486Z" fill="white"/>
<path d="M22.2647 34.1677C22.1544 34.2393 22.123 34.3869 22.1946 34.4972C22.2661 34.6076 22.4135 34.639 22.5238 34.5674C22.634 34.4957 22.6654 34.3482 22.5939 34.2379C22.5223 34.1275 22.3749 34.0961 22.2647 34.1677Z" fill="white"/>
<path d="M22.3789 14.2164C22.2686 14.288 22.2373 14.4355 22.3088 14.5459C22.3804 14.6563 22.5277 14.6877 22.638 14.6161C22.7482 14.5444 22.7796 14.3969 22.7081 14.2865C22.6365 14.1762 22.4891 14.1448 22.3789 14.2164Z" fill="white"/>
<path d="M26.9239 27.3541C26.8137 27.4257 26.7823 27.5732 26.8538 27.6836C26.9254 27.794 27.0728 27.8254 27.183 27.7537C27.2933 27.6821 27.3246 27.5346 27.2531 27.4242C27.1815 27.3139 27.0342 27.2825 26.9239 27.3541Z" fill="white"/>
<path d="M43.6885 2.45569C43.5782 2.52732 43.5469 2.67484 43.6184 2.7852C43.69 2.89556 43.8373 2.92698 43.9476 2.85535C44.0578 2.78373 44.0892 2.6362 44.0177 2.52584C43.9461 2.41547 43.7987 2.38407 43.6885 2.45569Z" fill="white"/>
<path d="M6.44111 18.5117C6.33086 18.5834 6.29949 18.7309 6.37104 18.8412C6.44259 18.9516 6.58996 18.983 6.70021 18.9114C6.81046 18.8398 6.84184 18.6922 6.77029 18.5819C6.69874 18.4715 6.55136 18.4401 6.44111 18.5117Z" fill="white"/>
<path opacity="0.3" d="M11.199 41.1667C11.052 41.2623 11.0101 41.459 11.1056 41.6062C11.201 41.7534 11.3975 41.7953 11.5446 41.6998C11.6916 41.6043 11.7335 41.4075 11.638 41.2603C11.5426 41.1131 11.3461 41.0712 11.199 41.1667Z" fill="white"/>
<path d="M2.44622 42.6878C2.33597 42.7594 2.3046 42.907 2.37615 43.0173C2.44769 43.1277 2.59507 43.1591 2.70532 43.0875C2.81557 43.0159 2.84694 42.8683 2.7754 42.758C2.70385 42.6476 2.55647 42.6162 2.44622 42.6878Z" fill="white"/>
<path opacity="0.11" d="M5.15533 18.083C5.08188 18.1307 5.06097 18.229 5.10864 18.3025C5.15631 18.376 5.25451 18.397 5.32797 18.3493C5.40142 18.3015 5.42233 18.2032 5.37466 18.1297C5.32699 18.0562 5.22879 18.0352 5.15533 18.083Z" fill="white"/>
<path opacity="0.11" d="M8.89044 11.3021C8.81698 11.3498 8.79607 11.4481 8.84375 11.5217C8.89142 11.5952 8.98961 11.6161 9.06307 11.5684C9.13653 11.5207 9.15744 11.4224 9.10976 11.3489C9.06209 11.2753 8.9639 11.2544 8.89044 11.3021Z" fill="white"/>
<path d="M6.20064 6.42345C6.09039 6.49507 6.05902 6.64261 6.13057 6.75297C6.20211 6.86333 6.34949 6.89473 6.45974 6.82311C6.56999 6.75149 6.60137 6.60397 6.52982 6.4936C6.45828 6.38324 6.31089 6.35183 6.20064 6.42345Z" fill="white"/>
<path opacity="0.3" d="M2.39286 13.8198C2.24582 13.9153 2.20398 14.1121 2.29941 14.2593C2.39483 14.4065 2.59139 14.4484 2.73843 14.3528C2.88547 14.2573 2.92732 14.0606 2.8319 13.9134C2.73647 13.7662 2.53991 13.7243 2.39286 13.8198Z" fill="white"/>
</g>
</g>
<path d="M13.6563 27.7188H16.4688C18.0156 27.7188 19.2813 26.4531 19.2813 24.9063V22.0938C19.2813 20.5469 18.0156 19.2813 16.4688 19.2813H13.6563C12.1094 19.2813 10.8438 20.5469 10.8438 22.0938V24.9063C10.8438 26.4531 12.1094 27.7188 13.6563 27.7188Z" fill="white"/>
<path d="M22.0935 19.2813H24.906C26.4529 19.2813 27.7185 18.0156 27.7185 16.4688V13.6563C27.7185 12.1094 26.4529 10.8438 24.906 10.8438H22.0935C20.5467 10.8438 19.281 12.1094 19.281 13.6563V16.4688C19.281 18.0156 20.5467 19.2813 22.0935 19.2813Z" fill="white"/>
<path d="M33.344 27.7188H30.5315C28.9846 27.7188 27.719 26.4531 27.719 24.9063V22.0938C27.719 20.5469 28.9846 19.2813 30.5315 19.2813H33.344C34.8908 19.2813 36.1565 20.5469 36.1565 22.0938V24.9063C36.1565 26.4531 34.8908 27.7188 33.344 27.7188Z" fill="white"/>
<path d="M24.906 27.7187H22.0935C20.5467 27.7187 19.281 28.9844 19.281 30.5312V33.3437C19.281 34.8906 20.5467 36.1562 22.0935 36.1562H24.906C26.4529 36.1562 27.7185 34.8906 27.7185 33.3437V30.5312C27.7185 28.9844 26.4529 27.7187 24.906 27.7187Z" fill="white"/>
<path d="M16.4689 19.2812C18.0158 19.2812 19.2814 18.0156 19.2814 16.4687C19.2814 18.0156 20.5471 19.2812 22.0939 19.2812C20.5471 19.2812 19.2814 20.5469 19.2814 22.0937C19.2814 20.5469 18.0158 19.2812 16.4689 19.2812Z" fill="white"/>
<path d="M24.9062 19.2812C26.4531 19.2812 27.7187 18.0156 27.7187 16.4687C27.7187 18.0156 28.9843 19.2812 30.5312 19.2812C28.9843 19.2812 27.7187 20.5469 27.7187 22.0937C27.7187 20.5469 26.4531 19.2812 24.9062 19.2812Z" fill="white"/>
<path d="M16.4689 27.7188C18.0158 27.7188 19.2814 26.4531 19.2814 24.9063C19.2814 26.4531 20.5471 27.7188 22.0939 27.7188C20.5471 27.7188 19.2814 28.9844 19.2814 30.5313C19.2814 28.9844 18.0158 27.7188 16.4689 27.7188Z" fill="white"/>
<path d="M24.9062 27.7188C26.4531 27.7188 27.7187 26.4531 27.7187 24.9063C27.7187 26.4531 28.9843 27.7188 30.5312 27.7188C28.9843 27.7188 27.7187 28.9844 27.7187 30.5313C27.7187 28.9844 26.4531 27.7188 24.9062 27.7188Z" fill="white"/>
</g>
<rect x="0.5" y="0.5" width="46.0002" height="46" rx="7.5" stroke="url(#paint1_linear_1_599)"/>
</g>
<path d="M125.829 29.8281C125.227 29.9406 124.636 29.9884 124.057 29.9716C123.483 29.9603 122.968 29.8562 122.513 29.6594C122.057 29.4569 121.711 29.1391 121.475 28.7059C121.267 28.3122 121.157 27.91 121.146 27.4994C121.135 27.0887 121.129 26.6247 121.129 26.1072V18.1844H123.154V25.9891C123.154 26.3547 123.157 26.6753 123.162 26.9509C123.174 27.2266 123.233 27.4516 123.34 27.6259C123.542 27.9634 123.865 28.1519 124.31 28.1912C124.754 28.2306 125.26 28.2081 125.829 28.1237V29.8281ZM119.475 22.3103V20.7156H125.829V22.3103H119.475Z" fill="white"/>
<path d="M114.903 29.8281V20.5722C114.903 20.3416 114.912 20.0884 114.929 19.8128C114.945 19.5315 114.993 19.2531 115.072 18.9775C115.151 18.7019 115.294 18.4515 115.502 18.2265C115.761 17.9397 116.039 17.7428 116.338 17.6359C116.641 17.5234 116.939 17.4615 117.232 17.4503C117.524 17.4334 117.78 17.425 118 17.425H119.139V19.0787H118.084C117.696 19.0787 117.406 19.1772 117.215 19.3741C117.029 19.5653 116.937 19.8184 116.937 20.1334V29.8281H114.903ZM113.435 22.3103V20.7156H119.139V22.3103H113.435Z" fill="white"/>
<path d="M106.935 30.0812C106.277 30.0812 105.72 29.9575 105.265 29.71C104.809 29.4569 104.463 29.1222 104.227 28.7059C103.996 28.2897 103.881 27.8312 103.881 27.3306C103.881 26.8919 103.954 26.4981 104.1 26.1494C104.247 25.795 104.472 25.4912 104.775 25.2381C105.079 24.9794 105.473 24.7684 105.957 24.6053C106.322 24.4872 106.75 24.3803 107.239 24.2847C107.734 24.189 108.268 24.1019 108.842 24.0231C109.422 23.9387 110.026 23.8487 110.656 23.7531L109.931 24.1665C109.936 23.5365 109.796 23.0725 109.509 22.7744C109.222 22.4762 108.738 22.3272 108.058 22.3272C107.647 22.3272 107.25 22.4228 106.868 22.614C106.485 22.8053 106.218 23.1344 106.066 23.6012L104.21 23.019C104.435 22.2484 104.862 21.6297 105.492 21.1628C106.128 20.6959 106.983 20.4625 108.058 20.4625C108.868 20.4625 109.579 20.5947 110.192 20.859C110.811 21.1234 111.269 21.5565 111.567 22.1584C111.731 22.479 111.829 22.8081 111.863 23.1456C111.897 23.4775 111.913 23.8403 111.913 24.234V29.8281H110.133V27.8537L110.428 28.1744C110.018 28.8325 109.537 29.3162 108.986 29.6256C108.44 29.9294 107.757 30.0812 106.935 30.0812ZM107.34 28.4612C107.802 28.4612 108.195 28.3797 108.522 28.2165C108.848 28.0534 109.107 27.8537 109.298 27.6175C109.495 27.3812 109.627 27.159 109.694 26.9509C109.801 26.6922 109.86 26.3969 109.872 26.065C109.888 25.7275 109.897 25.4547 109.897 25.2465L110.521 25.4322C109.908 25.5278 109.382 25.6122 108.943 25.6853C108.505 25.7584 108.128 25.8287 107.813 25.8962C107.498 25.9581 107.219 26.0284 106.977 26.1072C106.741 26.1915 106.542 26.29 106.378 26.4025C106.215 26.515 106.089 26.6444 105.999 26.7906C105.914 26.9369 105.872 27.1084 105.872 27.3053C105.872 27.5303 105.928 27.73 106.041 27.9044C106.153 28.0731 106.317 28.2081 106.53 28.3094C106.75 28.4106 107.02 28.4612 107.34 28.4612Z" fill="white"/>
<path d="M97.8613 29.8281V20.7156H99.6585V22.9347L99.4391 22.6478C99.5516 22.3441 99.7007 22.0684 99.8863 21.8209C100.078 21.5678 100.305 21.3597 100.57 21.1966C100.795 21.0447 101.042 20.9266 101.312 20.8422C101.588 20.7522 101.869 20.6987 102.156 20.6819C102.443 20.6594 102.721 20.6706 102.991 20.7156V22.6141C102.721 22.5353 102.409 22.51 102.055 22.5381C101.706 22.5662 101.391 22.6647 101.11 22.8334C100.829 22.9853 100.598 23.1794 100.418 23.4156C100.244 23.6519 100.114 23.9219 100.03 24.2256C99.9454 24.5237 99.9032 24.8472 99.9032 25.1959V29.8281H97.8613Z" fill="white"/>
<path d="M90.5413 30.0812C89.3263 30.0812 88.2856 29.8169 87.4194 29.2881C86.5531 28.7537 85.8866 28.0112 85.4197 27.0606C84.9584 26.11 84.7278 25.0075 84.7278 23.7531C84.7278 22.4987 84.9584 21.3962 85.4197 20.4456C85.8866 19.495 86.5531 18.7553 87.4194 18.2265C88.2856 17.6922 89.3263 17.425 90.5413 17.425C91.9419 17.425 93.1091 17.7766 94.0428 18.4797C94.9766 19.1772 95.6319 20.1194 96.0088 21.3062L93.9584 21.8716C93.7222 21.0784 93.32 20.4597 92.7519 20.0153C92.1838 19.5653 91.4469 19.3403 90.5413 19.3403C89.7256 19.3403 89.045 19.5231 88.4994 19.8887C87.9594 20.2544 87.5516 20.7691 87.2759 21.4328C87.0059 22.0909 86.8681 22.8644 86.8625 23.7531C86.8625 24.6419 86.9975 25.4181 87.2675 26.0819C87.5431 26.74 87.9538 27.2519 88.4994 27.6175C89.045 27.9831 89.7256 28.1659 90.5413 28.1659C91.4469 28.1659 92.1838 27.9409 92.7519 27.4909C93.32 27.0409 93.7222 26.4222 93.9584 25.6347L96.0088 26.2C95.6319 27.3869 94.9766 28.3319 94.0428 29.035C93.1091 29.7325 91.9419 30.0812 90.5413 30.0812Z" fill="white"/>
<path d="M78.5392 29.8281L75.2317 20.7156H77.2651L79.5601 27.3222L81.8467 20.7156H83.8886L80.5811 29.8281H78.5392Z" fill="white"/>
<path d="M70.3965 30.0812C69.474 30.0812 68.664 29.8815 67.9665 29.4822C67.269 29.0828 66.7233 28.5287 66.3296 27.82C65.9415 27.1112 65.7474 26.2956 65.7474 25.3731C65.7474 24.3775 65.9387 23.514 66.3212 22.7828C66.7037 22.0459 67.2352 21.475 67.9158 21.07C68.5965 20.665 69.384 20.4625 70.2783 20.4625C71.2233 20.4625 72.0249 20.6847 72.683 21.129C73.3468 21.5678 73.839 22.1894 74.1596 22.9937C74.4802 23.7981 74.6012 24.7459 74.5224 25.8372H72.5058V25.0947C72.5002 24.1047 72.3258 23.3819 71.9827 22.9262C71.6396 22.4706 71.0996 22.2428 70.3627 22.2428C69.5302 22.2428 68.9115 22.5015 68.5065 23.019C68.1015 23.5309 67.899 24.2819 67.899 25.2719C67.899 26.1944 68.1015 26.9087 68.5065 27.415C68.9115 27.9212 69.5021 28.1744 70.2783 28.1744C70.779 28.1744 71.2093 28.0647 71.5693 27.8453C71.9349 27.6203 72.2162 27.2969 72.413 26.875L74.4212 27.4825C74.0724 28.3037 73.5324 28.9422 72.8012 29.3978C72.0755 29.8534 71.274 30.0812 70.3965 30.0812ZM67.2577 25.8372V24.3015H73.5268V25.8372H67.2577Z" fill="white"/>
<path d="M54.4379 29.8281V17.6781H58.3107C58.4119 17.6781 58.6116 17.6809 58.9097 17.6866C59.2135 17.6922 59.506 17.7119 59.7872 17.7456C60.7491 17.8694 61.5619 18.2125 62.2257 18.775C62.895 19.3319 63.4013 20.0434 63.7444 20.9097C64.0875 21.7759 64.2591 22.7237 64.2591 23.7531C64.2591 24.7825 64.0875 25.7303 63.7444 26.5966C63.4013 27.4628 62.895 28.1772 62.2257 28.7397C61.5619 29.2966 60.7491 29.6369 59.7872 29.7606C59.5116 29.7944 59.2219 29.8141 58.9182 29.8197C58.6144 29.8253 58.4119 29.8281 58.3107 29.8281H54.4379ZM56.505 27.9128H58.3107C58.4794 27.9128 58.6932 27.9072 58.9519 27.8959C59.2163 27.8847 59.4497 27.8594 59.6522 27.82C60.226 27.7131 60.6929 27.4572 61.0529 27.0522C61.4129 26.6472 61.6772 26.155 61.846 25.5756C62.0204 24.9962 62.1075 24.3887 62.1075 23.7531C62.1075 23.095 62.0204 22.4762 61.846 21.8969C61.6716 21.3175 61.4016 20.8309 61.036 20.4372C60.676 20.0434 60.2147 19.7931 59.6522 19.6862C59.4497 19.6412 59.2163 19.6159 58.9519 19.6103C58.6932 19.5991 58.4794 19.5934 58.3107 19.5934H56.505V27.9128Z" fill="white"/>
<defs>
<filter id="filter0_i_1_599" x="0" y="0" width="47.0002" height="47" filterUnits="userSpaceOnUse" color-interpolation-filters="sRGB">
<feFlood flood-opacity="0" result="BackgroundImageFix"/>
<feBlend mode="normal" in="SourceGraphic" in2="BackgroundImageFix" result="shape"/>
<feColorMatrix in="SourceAlpha" type="matrix" values="0 0 0 0 0 0 0 0 0 0 0 0 0 0 0 0 0 0 127 0" result="hardAlpha"/>
<feMorphology radius="8" operator="erode" in="SourceAlpha" result="effect1_innerShadow_1_599"/>
<feOffset/>
<feGaussianBlur stdDeviation="6.5"/>
<feComposite in2="hardAlpha" operator="arithmetic" k2="-1" k3="1"/>
<feColorMatrix type="matrix" values="0 0 0 0 1 0 0 0 0 1 0 0 0 0 1 0 0 0 0.3 0"/>
<feBlend mode="normal" in2="shape" result="effect1_innerShadow_1_599"/>
</filter>
<radialGradient id="paint0_radial_1_599" cx="0" cy="0" r="1" gradientUnits="userSpaceOnUse" gradientTransform="translate(237.602 195.766) rotate(40.0904) scale(153.946 151.691)">
<stop/>
<stop offset="1" stop-opacity="0"/>
</radialGradient>
<linearGradient id="paint1_linear_1_599" x1="1" y1="-0.985294" x2="46" y2="46.0002" gradientUnits="userSpaceOnUse">
<stop stop-color="#EAE8FC"/>
<stop offset="1" stop-color="#D4D1FA" stop-opacity="0"/>
</linearGradient>
<clipPath id="clip0_1_599">
<rect x="1" y="1" width="45.0002" height="45" rx="7" fill="white"/>
</clipPath>
<clipPath id="clip1_1_599">
<rect width="100.547" height="84.375" fill="white" transform="matrix(-1 0 0 -1 73.4219 65.6875)"/>
</clipPath>
</defs>
</svg>
