<svg width="84" height="84" viewBox="0 0 84 84" fill="none" xmlns="http://www.w3.org/2000/svg">
<g filter="url(#filter0_i_1_408)">
<g clip-path="url(#clip0_1_408)">
<path d="M2 42C2 19.9086 19.9088 2 42.0002 2V2C64.0916 2 82.0004 19.9086 82.0004 42V42C82.0004 64.0914 64.0916 82 42.0002 82V82C19.9088 82 2 64.0914 2 42V42Z" fill="#5547EB"/>
<mask id="mask0_1_408" style="mask-type:alpha" maskUnits="userSpaceOnUse" x="-206" y="-181" width="420" height="353">
<rect x="213.25" y="172" width="418.75" height="352.5" transform="rotate(180 213.25 172)" fill="url(#paint0_radial_1_408)"/>
</mask>
<g mask="url(#mask0_1_408)">
</g>
<g clip-path="url(#clip1_1_408)">
<g opacity="0.7">
<path opacity="0.11" d="M68.6603 33.1334C68.3989 33.3032 68.3245 33.653 68.4942 33.9146C68.6638 34.1763 69.0133 34.2508 69.2747 34.081C69.5361 33.9112 69.6105 33.5614 69.4408 33.2997C69.2712 33.038 68.9217 32.9635 68.6603 33.1334Z" fill="white"/>
<path d="M65.435 31.5267C65.239 31.654 65.1832 31.9163 65.3104 32.1125C65.4376 32.3087 65.6996 32.3645 65.8956 32.2372C66.0916 32.1099 66.1474 31.8476 66.0202 31.6514C65.893 31.4552 65.631 31.3994 65.435 31.5267Z" fill="white"/>
<path d="M60.8513 41.571C60.6553 41.6983 60.5995 41.9606 60.7267 42.1568C60.8539 42.353 61.1159 42.4088 61.3119 42.2815C61.5079 42.1542 61.5637 41.8919 61.4365 41.6957C61.3093 41.4995 61.0473 41.4437 60.8513 41.571Z" fill="white"/>
<path d="M81.2681 28.9825C81.0721 29.1098 81.0163 29.3721 81.1435 29.5683C81.2707 29.7645 81.5327 29.8203 81.7287 29.693C81.9247 29.5657 81.9805 29.3034 81.8533 29.1072C81.7261 28.911 81.4641 28.8552 81.2681 28.9825Z" fill="white"/>
<path d="M63.3848 23.436C63.2542 23.5208 63.217 23.6956 63.3018 23.8263C63.3865 23.957 63.5611 23.9942 63.6917 23.9094C63.8223 23.8246 63.8595 23.6498 63.7747 23.5191C63.69 23.3884 63.5154 23.3512 63.3848 23.436Z" fill="white"/>
<path d="M11.8104 56.9377C11.6798 57.0225 11.6426 57.1972 11.7274 57.328C11.8121 57.4587 11.9867 57.4959 12.1173 57.4111C12.2479 57.3262 12.2851 57.1515 12.2003 57.0207C12.1156 56.89 11.941 56.8528 11.8104 56.9377Z" fill="white"/>
<path opacity="0.11" d="M58.3276 14.6034C58.197 14.6883 58.1599 14.863 58.2446 14.9937C58.3294 15.1245 58.5039 15.1617 58.6345 15.0768C58.7651 14.992 58.8023 14.8173 58.7175 14.6865C58.6328 14.5558 58.4582 14.5186 58.3276 14.6034Z" fill="white"/>
<path opacity="0.11" d="M14.4447 46.4785C14.3141 46.5634 14.277 46.7381 14.3617 46.8689C14.4465 46.9996 14.621 47.0368 14.7516 46.952C14.8822 46.8671 14.9194 46.6924 14.8346 46.5616C14.7499 46.4309 14.5753 46.3937 14.4447 46.4785Z" fill="white"/>
<path d="M56.7104 63.4454C56.5798 63.5302 56.5426 63.705 56.6273 63.8357C56.7121 63.9664 56.8867 64.0036 57.0173 63.9188C57.1479 63.834 57.185 63.6592 57.1003 63.5285C57.0155 63.3978 56.8409 63.3606 56.7104 63.4454Z" fill="white"/>
<path opacity="0.11" d="M29.7924 76.8933C29.6619 76.9782 29.6247 77.1529 29.7094 77.2837C29.7942 77.4144 29.9688 77.4516 30.0994 77.3667C30.2299 77.2819 30.2671 77.1072 30.1824 76.9764C30.0976 76.8457 29.923 76.8085 29.7924 76.8933Z" fill="white"/>
<path opacity="0.3" d="M43.6665 36.5811C43.4051 36.7509 43.3307 37.1007 43.5003 37.3624C43.67 37.6241 44.0194 37.6985 44.2808 37.5287C44.5422 37.3589 44.6166 37.0091 44.447 36.7474C44.2773 36.4858 43.9279 36.4113 43.6665 36.5811Z" fill="white"/>
<path opacity="0.11" d="M34.3144 52.753C34.053 52.9228 33.9786 53.2726 34.1482 53.5343C34.3179 53.796 34.6673 53.8704 34.9287 53.7006C35.1901 53.5308 35.2645 53.181 35.0949 52.9193C34.9252 52.6576 34.5758 52.5832 34.3144 52.753Z" fill="white"/>
<path d="M39.8037 60.9648C39.6077 61.0921 39.552 61.3544 39.6792 61.5506C39.8064 61.7468 40.0684 61.8026 40.2644 61.6753C40.4604 61.548 40.5162 61.2857 40.389 61.0895C40.2618 60.8933 39.9997 60.8375 39.8037 60.9648Z" fill="white"/>
<path d="M40.0067 25.4956C39.8107 25.623 39.7549 25.8852 39.8821 26.0814C40.0093 26.2776 40.2713 26.3335 40.4673 26.2061C40.6633 26.0788 40.7191 25.8165 40.5919 25.6203C40.4647 25.4241 40.2027 25.3683 40.0067 25.4956Z" fill="white"/>
<path d="M48.0869 48.8516C47.8909 48.979 47.8352 49.2412 47.9624 49.4374C48.0896 49.6336 48.3516 49.6895 48.5476 49.5622C48.7436 49.4348 48.7993 49.1725 48.6722 48.9763C48.545 48.7801 48.2829 48.7243 48.0869 48.8516Z" fill="white"/>
<path d="M77.8902 4.58785C77.6942 4.71518 77.6384 4.97744 77.7656 5.17364C77.8928 5.36984 78.1548 5.42569 78.3508 5.29836C78.5468 5.17103 78.6026 4.90875 78.4754 4.71255C78.3482 4.51635 78.0862 4.46053 77.8902 4.58785Z" fill="white"/>
<path d="M11.673 33.1319C11.477 33.2592 11.4212 33.5214 11.5484 33.7176C11.6756 33.9138 11.9376 33.9697 12.1336 33.8424C12.3296 33.715 12.3854 33.4528 12.2582 33.2566C12.131 33.0604 11.869 33.0045 11.673 33.1319Z" fill="white"/>
<path opacity="0.3" d="M20.1313 73.4074C19.8699 73.5772 19.7955 73.927 19.9652 74.1887C20.1348 74.4504 20.4843 74.5248 20.7457 74.355C21.0071 74.1852 21.0815 73.8354 20.9118 73.5737C20.7422 73.3121 20.3928 73.2376 20.1313 73.4074Z" fill="white"/>
<path d="M4.57133 76.1115C4.37533 76.2389 4.31956 76.5011 4.44675 76.6973C4.57395 76.8935 4.83594 76.9494 5.03195 76.822C5.22795 76.6947 5.28373 76.4324 5.15653 76.2362C5.02933 76.04 4.76733 75.9842 4.57133 76.1115Z" fill="white"/>
<path opacity="0.11" d="M9.38755 32.3697C9.25695 32.4546 9.21978 32.6293 9.30453 32.76C9.38928 32.8908 9.56385 32.928 9.69445 32.8431C9.82504 32.7583 9.8622 32.5835 9.77745 32.4528C9.6927 32.3221 9.51814 32.2849 9.38755 32.3697Z" fill="white"/>
<path opacity="0.11" d="M16.0272 20.3148C15.8966 20.3996 15.8594 20.5744 15.9442 20.7051C16.0289 20.8358 16.2035 20.873 16.3341 20.7882C16.4647 20.7034 16.5019 20.5286 16.4171 20.3979C16.3324 20.2672 16.1578 20.23 16.0272 20.3148Z" fill="white"/>
<path d="M11.2453 11.6417C11.0493 11.7691 10.9935 12.0314 11.1207 12.2276C11.2479 12.4238 11.5099 12.4796 11.7059 12.3523C11.9019 12.2249 11.9577 11.9627 11.8305 11.7665C11.7033 11.5703 11.4413 11.5144 11.2453 11.6417Z" fill="white"/>
<path opacity="0.3" d="M4.47538 24.7908C4.21398 24.9606 4.1396 25.3104 4.30924 25.5721C4.47888 25.8337 4.82831 25.9082 5.08972 25.7384C5.35113 25.5686 5.42553 25.2188 5.25589 24.9571C5.08624 24.6954 4.73679 24.621 4.47538 24.7908Z" fill="white"/>
</g>
</g>
<path d="M24.5 49.5H29.5C32.25 49.5 34.5 47.25 34.5 44.5V39.5C34.5 36.75 32.25 34.5 29.5 34.5H24.5C21.75 34.5 19.5 36.75 19.5 39.5V44.5C19.5 47.25 21.75 49.5 24.5 49.5Z" fill="white"/>
<path d="M39.499 34.5H44.499C47.249 34.5 49.499 32.25 49.499 29.5V24.5C49.499 21.75 47.249 19.5 44.499 19.5H39.499C36.749 19.5 34.499 21.75 34.499 24.5V29.5C34.499 32.25 36.749 34.5 39.499 34.5Z" fill="white"/>
<path d="M59.5005 49.5H54.5005C51.7505 49.5 49.5005 47.25 49.5005 44.5V39.5C49.5005 36.75 51.7505 34.5 54.5005 34.5H59.5005C62.2505 34.5 64.5005 36.75 64.5005 39.5V44.5C64.5005 47.25 62.2505 49.5 59.5005 49.5Z" fill="white"/>
<path d="M44.499 49.5H39.499C36.749 49.5 34.499 51.75 34.499 54.5V59.5C34.499 62.25 36.749 64.5 39.499 64.5H44.499C47.249 64.5 49.499 62.25 49.499 59.5V54.5C49.499 51.75 47.249 49.5 44.499 49.5Z" fill="white"/>
<path d="M29.5 34.5C32.25 34.5 34.5 32.25 34.5 29.5C34.5 32.25 36.75 34.5 39.5 34.5C36.75 34.5 34.5 36.75 34.5 39.5C34.5 36.75 32.25 34.5 29.5 34.5Z" fill="white"/>
<path d="M44.5 34.5C47.25 34.5 49.5 32.25 49.5 29.5C49.5 32.25 51.75 34.5 54.5 34.5C51.75 34.5 49.5 36.75 49.5 39.5C49.5 36.75 47.25 34.5 44.5 34.5Z" fill="white"/>
<path d="M29.5 49.5C32.25 49.5 34.5 47.25 34.5 44.5C34.5 47.25 36.75 49.5 39.5 49.5C36.75 49.5 34.5 51.75 34.5 54.5C34.5 51.75 32.25 49.5 29.5 49.5Z" fill="white"/>
<path d="M44.5 49.5C47.25 49.5 49.5 47.25 49.5 44.5C49.5 47.25 51.75 49.5 54.5 49.5C51.75 49.5 49.5 51.75 49.5 54.5C49.5 51.75 47.25 49.5 44.5 49.5Z" fill="white"/>
</g>
<path d="M1.22656 42C1.22656 64.5186 19.4816 82.7734 42.0002 82.7734C64.5187 82.7734 82.7738 64.5186 82.7738 42C82.7738 19.4814 64.5187 1.22656 42.0002 1.22656C19.4816 1.22656 1.22656 19.4814 1.22656 42Z" stroke="url(#paint1_linear_1_408)" stroke-width="1.54688"/>
</g>
<defs>
<filter id="filter0_i_1_408" x="0.453125" y="0.453125" width="83.0941" height="83.0938" filterUnits="userSpaceOnUse" color-interpolation-filters="sRGB">
<feFlood flood-opacity="0" result="BackgroundImageFix"/>
<feBlend mode="normal" in="SourceGraphic" in2="BackgroundImageFix" result="shape"/>
<feColorMatrix in="SourceAlpha" type="matrix" values="0 0 0 0 0 0 0 0 0 0 0 0 0 0 0 0 0 0 127 0" result="hardAlpha"/>
<feMorphology radius="12.375" operator="erode" in="SourceAlpha" result="effect1_innerShadow_1_408"/>
<feOffset/>
<feGaussianBlur stdDeviation="10.0547"/>
<feComposite in2="hardAlpha" operator="arithmetic" k2="-1" k3="1"/>
<feColorMatrix type="matrix" values="0 0 0 0 1 0 0 0 0 1 0 0 0 0 1 0 0 0 0.3 0"/>
<feBlend mode="normal" in2="shape" result="effect1_innerShadow_1_408"/>
</filter>
<radialGradient id="paint0_radial_1_408" cx="0" cy="0" r="1" gradientUnits="userSpaceOnUse" gradientTransform="translate(422.625 348.25) rotate(40.0904) scale(273.682 269.673)">
<stop/>
<stop offset="1" stop-opacity="0"/>
</radialGradient>
<linearGradient id="paint1_linear_1_408" x1="2" y1="-1.52941" x2="82" y2="82.0004" gradientUnits="userSpaceOnUse">
<stop stop-color="#EAE8FC"/>
<stop offset="1" stop-color="#D4D1FA" stop-opacity="0"/>
</linearGradient>
<clipPath id="clip0_1_408">
<path d="M2 42C2 19.9086 19.9088 2 42.0002 2V2C64.0916 2 82.0004 19.9086 82.0004 42V42C82.0004 64.0914 64.0916 82 42.0002 82V82C19.9088 82 2 64.0914 2 42V42Z" fill="white"/>
</clipPath>
<clipPath id="clip1_1_408">
<rect width="178.75" height="150" fill="white" transform="matrix(-1 0 0 -1 130.75 117)"/>
</clipPath>
</defs>
</svg>
