<svg width="25" height="14" viewBox="0 0 25 14" fill="none" xmlns="http://www.w3.org/2000/svg">
<path d="M19.2994 5.49985C19.4735 5.69274 19.5148 6.02396 19.4238 6.49313C19.3287 6.9818 19.1456 7.33041 18.8743 7.53938C18.6027 7.74835 18.1898 7.85283 17.6353 7.85283H16.7986L17.3122 5.21049H18.2545C18.7772 5.21049 19.1253 5.307 19.2994 5.49985ZM7.51972 5.21049H6.57739L6.06373 7.85283H6.90036C7.45475 7.85283 7.86781 7.74835 8.13936 7.53938C8.41072 7.33041 8.59377 6.98175 8.68888 6.49313C8.77991 6.02391 8.73856 5.69274 8.56452 5.49985C8.39047 5.307 8.04233 5.21049 7.51972 5.21049ZM24.4766 6.99985C24.4766 10.4793 19.1144 13.3 12.5 13.3C5.88561 13.3 0.523438 10.4793 0.523438 6.99985C0.523438 3.52041 5.88561 0.699707 12.5 0.699707C19.1144 0.699707 24.4766 3.52041 24.4766 6.99985ZM9.80666 7.43513C9.94916 7.17975 10.0505 6.89789 10.1105 6.58964C10.256 5.84119 10.1462 5.25825 9.7813 4.8406C9.41656 4.42294 8.83606 4.21421 8.04055 4.21421H5.39572L4.16867 10.5277H5.54408L5.87023 8.84935H7.04839C7.56809 8.84935 7.99573 8.79479 8.33145 8.68543C8.66712 8.57625 8.97219 8.39325 9.24683 8.1361C9.47722 7.92422 9.66373 7.69069 9.80666 7.43513ZM14.6475 8.84935L15.2185 5.91113C15.3347 5.31361 15.2475 4.88124 14.9573 4.61438C14.6669 4.34775 14.1394 4.21421 13.3745 4.21421H12.1588L12.4851 2.53561H11.1206L9.89333 8.8493H11.2579L11.9608 5.23219H13.0514C13.4006 5.23219 13.6288 5.28994 13.736 5.40554C13.8432 5.52118 13.866 5.73793 13.8042 6.05564L13.2613 8.8493H14.6475V8.84935ZM20.5161 4.84064C20.1515 4.42299 19.571 4.21425 18.7754 4.21425H16.1306L14.9035 10.5278H16.2789L16.605 8.84939H17.7832C18.3029 8.84939 18.7306 8.79483 19.0662 8.68547C19.4019 8.5763 19.707 8.3933 19.9816 8.13614C20.2122 7.92422 20.3986 7.69074 20.5415 7.43517C20.6841 7.1798 20.7853 6.89794 20.8453 6.58969C20.9908 5.84119 20.8811 5.25825 20.5161 4.84064Z" fill="white"/>
</svg>
