<svg width="25" height="24" viewBox="0 0 25 24" fill="none" xmlns="http://www.w3.org/2000/svg">
<g clip-path="url(#clip0_1_2788)">
<path fill-rule="evenodd" clip-rule="evenodd" d="M15.7928 22.1496C15.2144 22.1496 14.7464 21.6793 14.7464 21.0979C14.7464 20.5164 15.2144 20.0473 15.7928 20.0473C16.3712 20.0473 16.8392 20.5164 16.8392 21.0979C16.8392 21.6793 16.3712 22.1496 15.7928 22.1496ZM12.5864 24C18.68 24 18.2996 21.3439 18.2996 21.3439L18.2924 18.5924H12.4784V17.7662H20.6012C20.6012 17.7662 24.5 18.2114 24.5 12.0316C24.5 5.8519 21.098 6.06973 21.098 6.06973H19.0664V8.93848C19.0664 8.93848 19.1756 12.358 15.7184 12.358H9.95121C9.95121 12.358 6.71119 12.3066 6.71119 15.5068V20.7973C6.71119 20.7973 6.21919 24 12.5864 24ZM9.20839 1.85039C9.78679 1.85039 10.2536 2.32072 10.2536 2.90215C10.2536 3.48357 9.78679 3.95273 9.20839 3.95273C8.62999 3.95273 8.16201 3.48357 8.16201 2.90215C8.16201 2.32072 8.62999 1.85039 9.20839 1.85039ZM12.4136 0C6.32121 0 6.7016 2.65605 6.7016 2.65605L6.70881 5.40762H12.5228V6.23379H4.39879C4.39879 6.23379 0.5 5.78864 0.5 11.9684C0.5 18.1481 3.9032 17.9303 3.9032 17.9303H5.93362V15.0615C5.93362 15.0615 5.8244 11.642 9.2828 11.642H15.0488C15.0488 11.642 18.2888 11.6934 18.2888 8.49316V3.20273C18.2888 3.20273 18.7808 0 12.4136 0Z" fill="white"/>
</g>
<defs>
<clipPath id="clip0_1_2788">
<rect width="24" height="24" fill="white" transform="translate(0.5)"/>
</clipPath>
</defs>
</svg>
