<svg width="74" height="74" viewBox="0 0 74 74" fill="none" xmlns="http://www.w3.org/2000/svg">
<g filter="url(#filter0_i_1_2512)">
<rect x="2.33325" y="2" width="70" height="70" rx="35" fill="#713CF7"/>
<rect x="1.55981" y="1.22656" width="71.5469" height="71.5469" rx="35.7734" stroke="url(#paint0_linear_1_2512)" stroke-width="1.54688"/>
<path d="M37.068 55.6932C26.5255 55.6932 17.9771 47.1447 17.9771 36.6023H37.068V55.6932Z" fill="white"/>
<path d="M17.9771 17.5115C28.5195 17.5115 37.068 26.06 37.068 36.6024H17.9771V17.5115Z" fill="white"/>
<path d="M37.068 55.6932C47.6104 55.6932 56.1589 47.1447 56.1589 36.6023H37.068V55.6932Z" fill="white"/>
<path d="M56.1589 36.6024C56.1589 26.06 47.6104 17.5115 37.068 17.5115V36.6024H56.1589Z" fill="white"/>
</g>
<defs>
<filter id="filter0_i_1_2512" x="0.786377" y="0.453125" width="73.0938" height="73.0938" filterUnits="userSpaceOnUse" color-interpolation-filters="sRGB">
<feFlood flood-opacity="0" result="BackgroundImageFix"/>
<feBlend mode="normal" in="SourceGraphic" in2="BackgroundImageFix" result="shape"/>
<feColorMatrix in="SourceAlpha" type="matrix" values="0 0 0 0 0 0 0 0 0 0 0 0 0 0 0 0 0 0 127 0" result="hardAlpha"/>
<feMorphology radius="12.375" operator="erode" in="SourceAlpha" result="effect1_innerShadow_1_2512"/>
<feOffset/>
<feGaussianBlur stdDeviation="10.0547"/>
<feComposite in2="hardAlpha" operator="arithmetic" k2="-1" k3="1"/>
<feColorMatrix type="matrix" values="0 0 0 0 1 0 0 0 0 1 0 0 0 0 1 0 0 0 0.3 0"/>
<feBlend mode="normal" in2="shape" result="effect1_innerShadow_1_2512"/>
</filter>
<linearGradient id="paint0_linear_1_2512" x1="2.33325" y1="-1.08823" x2="72.3333" y2="72" gradientUnits="userSpaceOnUse">
<stop stop-color="#EAE8FC"/>
<stop offset="1" stop-color="#D4D1FA" stop-opacity="0"/>
</linearGradient>
</defs>
</svg>
