<svg width="25" height="24" viewBox="0 0 25 24" fill="none" xmlns="http://www.w3.org/2000/svg">
<g clip-path="url(#clip0_1_2752)">
<path d="M7.77483 3.55812C7.39842 3.77544 7.00232 4.37474 6.95636 5.68197C6.93452 6.30291 6.41345 6.78858 5.79252 6.76674C5.17158 6.7449 4.68591 6.22385 4.70774 5.60291C4.76409 4.00029 5.2709 2.40569 6.64983 1.60956C8.03268 0.811179 9.67226 1.17373 11.0919 1.9311C11.6401 2.22356 11.8474 2.90504 11.555 3.45321C11.2625 4.0014 10.581 4.20872 10.0329 3.91628C8.8727 3.29735 8.15237 3.34014 7.77483 3.55812ZM13.8071 5.50946C14.2855 5.11307 14.9947 5.17959 15.3911 5.65805C16.2227 6.66174 17.0204 7.80627 17.7444 9.06047C19.3049 11.7631 20.267 14.532 20.5263 16.8545C20.6558 18.0139 20.6162 19.1171 20.3454 20.0633C20.0726 21.0167 19.5411 21.8797 18.6498 22.3941C17.5715 23.0168 16.3263 22.9284 15.1867 22.5135C14.043 22.0971 12.8659 21.3086 11.7438 20.2844C11.2849 19.8654 11.2525 19.1538 11.6713 18.695C12.0902 18.2361 12.8018 18.2036 13.2607 18.6225C14.2494 19.525 15.1785 20.1159 15.9564 20.3993C16.7385 20.684 17.2305 20.6156 17.5248 20.4456C17.7714 20.3033 18.0195 20.0132 18.1823 19.4443C18.3471 18.8682 18.3992 18.0795 18.2903 17.1041C18.0728 15.1569 17.2386 12.6843 15.7959 10.1855C15.1324 9.03614 14.4062 7.99602 13.6585 7.09349C13.2621 6.61503 13.3286 5.90583 13.8071 5.50946Z" fill="white"/>
<path d="M22.25 12.3085C22.25 11.8739 21.929 11.2312 20.8199 10.5378C20.2931 10.2084 20.1331 9.51429 20.4625 8.98746C20.7918 8.46063 21.4859 8.30056 22.0127 8.62993C23.3724 9.48004 24.5 10.7163 24.5 12.3085C24.5 13.9053 23.3663 15.1438 22.0005 15.9946C21.4732 16.3231 20.7792 16.162 20.4508 15.6346C20.1222 15.1072 20.2835 14.4135 20.8107 14.0849C21.9269 13.3897 22.25 12.7444 22.25 12.3085ZM17.5439 16.5568C17.648 17.1694 17.2358 17.7504 16.6232 17.8545C15.3383 18.0727 13.9482 18.1912 12.5 18.1912C9.37931 18.1912 6.50027 17.6401 4.35929 16.7034C3.29048 16.2358 2.35489 15.6499 1.67079 14.9424C0.981466 14.2294 0.5 13.3376 0.5 12.3085C0.5 11.0634 1.19912 10.0291 2.12822 9.24969C3.06068 8.46742 4.33206 7.84227 5.78019 7.38261C6.37241 7.19464 7.00486 7.52233 7.19284 8.11453C7.3808 8.70673 7.05311 9.33919 6.46091 9.52717C5.18501 9.93216 4.2086 10.4413 3.57431 10.9734C2.93663 11.5084 2.75 11.9686 2.75 12.3085C2.75 12.5932 2.87714 12.9531 3.28842 13.3785C3.70495 13.8093 4.36196 14.2487 5.26114 14.6421C7.05614 15.4273 9.61458 15.9412 12.5 15.9412C13.8271 15.9412 15.091 15.8325 16.2464 15.6361C16.859 15.5322 17.44 15.9444 17.5439 16.5568Z" fill="white"/>
<path d="M7.80787 20.4454C8.18428 20.6627 8.90134 20.7061 10.0564 20.0923C10.6051 19.8007 11.2862 20.0092 11.5778 20.5577C11.8693 21.1064 11.6609 21.7876 11.1123 22.0792C9.69618 22.8316 8.06181 23.1901 6.68287 22.3939C5.30004 21.5956 4.79422 19.9943 4.7403 18.3862C4.71948 17.7652 5.20599 17.245 5.82696 17.2241C6.44793 17.2033 6.96822 17.6897 6.98904 18.3107C7.03311 19.625 7.43034 20.2274 7.80787 20.4454ZM6.48166 14.2456C5.89915 14.0294 5.60217 13.382 5.81833 12.7995C6.27178 11.5775 6.8641 10.3144 7.58821 9.06018C9.14856 6.35758 11.0654 4.13985 12.9471 2.75404C13.8865 2.06221 14.8616 1.54489 15.8165 1.30626C16.7786 1.06579 17.7917 1.0947 18.6828 1.60927C19.7612 2.23183 20.3073 3.35442 20.5178 4.54876C20.729 5.74743 20.6348 7.16104 20.3087 8.64501C20.1753 9.25185 19.5753 9.63573 18.9686 9.50242C18.3617 9.3691 17.9778 8.76909 18.1112 8.16223C18.3983 6.85479 18.4455 5.75461 18.302 4.93923C18.1575 4.11951 17.8521 3.72777 17.5578 3.55783C17.3114 3.41548 16.9361 3.34564 16.362 3.48912C15.7806 3.63442 15.0716 3.98373 14.2813 4.56573C12.7038 5.7276 10.9795 7.68633 9.53677 10.1852C8.8732 11.3345 8.33553 12.4834 7.92777 13.5823C7.7116 14.1648 7.06416 14.4617 6.48166 14.2456Z" fill="white"/>
<path d="M14.6889 12.0991C14.6889 13.2253 13.7759 14.1382 12.6498 14.1382C11.5237 14.1382 10.6107 13.2253 10.6107 12.0991C10.6107 10.973 11.5237 10.0601 12.6498 10.0601C13.7759 10.0601 14.6889 10.973 14.6889 12.0991Z" fill="white"/>
</g>
<defs>
<clipPath id="clip0_1_2752">
<rect width="24" height="24" fill="white" transform="translate(0.5)"/>
</clipPath>
</defs>
</svg>
