<svg width="24" height="24" viewBox="0 0 24 24" fill="none" xmlns="http://www.w3.org/2000/svg">
<path d="M22.8 12.1807C22.8 10.7953 21.7371 9.67085 20.4274 9.67085C19.7821 9.67085 19.2127 9.93188 18.7951 10.3736C17.1817 9.14881 14.942 8.34566 12.4745 8.24526L13.5564 2.88424L17.0678 3.66731C17.1058 4.61101 17.8461 5.374 18.7571 5.374C19.6872 5.374 20.4464 4.57086 20.4464 3.587C20.4464 2.60314 19.6872 1.79999 18.7571 1.79999C18.0928 1.79999 17.5234 2.20156 17.2577 2.80392L13.3287 1.92046C13.2148 1.90038 13.1009 1.92046 13.006 1.9807C12.9111 2.04093 12.8541 2.14133 12.8162 2.2618L11.6204 8.24526C9.09597 8.32558 6.83727 9.10865 5.20493 10.3736C4.78736 9.95196 4.19896 9.67085 3.5726 9.67085C2.26293 9.67085 1.20001 10.7953 1.20001 12.1807C1.20001 13.2047 1.76943 14.0681 2.60458 14.4697C2.56662 14.7106 2.54764 14.9716 2.54764 15.2327C2.54764 19.0878 6.78033 22.2 12.019 22.2C17.2577 22.2 21.4903 19.0878 21.4903 15.2327C21.4903 14.9716 21.4714 14.7307 21.4334 14.4898C22.2116 14.0882 22.8 13.2047 22.8 12.1807ZM6.57154 13.9677C6.57154 12.9838 7.33077 12.1807 8.26082 12.1807C9.19087 12.1807 9.9501 12.9838 9.9501 13.9677C9.9501 14.9516 9.19087 15.7547 8.26082 15.7547C7.33077 15.7547 6.57154 14.9516 6.57154 13.9677ZM16.0049 18.6862C14.8471 19.911 12.6454 19.9913 12 19.9913C11.3547 19.9913 9.13393 19.8909 7.99509 18.6862C7.82426 18.5055 7.82426 18.2043 7.99509 18.0236C8.16592 17.8429 8.45063 17.8429 8.62145 18.0236C9.34272 18.7866 10.8991 19.0677 12.019 19.0677C13.1389 19.0677 14.6763 18.7866 15.4165 18.0236C15.5874 17.8429 15.8721 17.8429 16.0429 18.0236C16.1758 18.2244 16.1758 18.5055 16.0049 18.6862ZM15.7012 15.7547C14.7712 15.7547 14.012 14.9516 14.012 13.9677C14.012 12.9838 14.7712 12.1807 15.7012 12.1807C16.6313 12.1807 17.3905 12.9838 17.3905 13.9677C17.3905 14.9516 16.6313 15.7547 15.7012 15.7547Z" fill="white"/>
</svg>
