<svg width="74" height="74" viewBox="0 0 74 74" fill="none" xmlns="http://www.w3.org/2000/svg">
<g filter="url(#filter0_i_1_2483)">
<rect x="1.66667" y="2" width="70" height="70" rx="35" fill="#BA1212"/>
<rect x="0.893234" y="1.22656" width="71.5469" height="71.5469" rx="35.7734" stroke="url(#paint0_linear_1_2483)" stroke-width="1.54688"/>
<path d="M42.2349 33.8183L47.803 37.0001L53.3712 33.8183V27.4546L47.803 30.6365L42.2349 27.4546V33.8183Z" fill="white"/>
<path d="M47.803 49.7274L42.2349 46.5455V40.1819L47.803 37.0001V43.3637L53.3712 46.5455L47.803 49.7274Z" fill="white"/>
<path d="M36.6667 43.3637L31.0985 46.5455V52.9092L36.6667 56.091V49.7274L42.2349 46.5455L36.6667 43.3637Z" fill="white"/>
<path d="M19.9621 40.1819L25.5303 37.0001L31.0985 40.1819V46.5455L25.5303 43.3637L19.9621 46.5455L19.9621 40.1819Z" fill="white"/>
<path d="M25.5303 24.2728L31.0985 27.4546V33.8183L25.5303 37.0001L25.5303 30.6365L19.9621 27.4546L25.5303 24.2728Z" fill="white"/>
<path d="M36.6667 30.6365L42.2349 27.4546V21.091L36.6667 17.9092V24.2728L31.0985 27.4546L36.6667 30.6365Z" fill="white"/>
</g>
<defs>
<filter id="filter0_i_1_2483" x="0.119797" y="0.453125" width="73.0938" height="73.0938" filterUnits="userSpaceOnUse" color-interpolation-filters="sRGB">
<feFlood flood-opacity="0" result="BackgroundImageFix"/>
<feBlend mode="normal" in="SourceGraphic" in2="BackgroundImageFix" result="shape"/>
<feColorMatrix in="SourceAlpha" type="matrix" values="0 0 0 0 0 0 0 0 0 0 0 0 0 0 0 0 0 0 127 0" result="hardAlpha"/>
<feMorphology radius="12.375" operator="erode" in="SourceAlpha" result="effect1_innerShadow_1_2483"/>
<feOffset/>
<feGaussianBlur stdDeviation="10.0547"/>
<feComposite in2="hardAlpha" operator="arithmetic" k2="-1" k3="1"/>
<feColorMatrix type="matrix" values="0 0 0 0 1 0 0 0 0 1 0 0 0 0 1 0 0 0 0.3 0"/>
<feBlend mode="normal" in2="shape" result="effect1_innerShadow_1_2483"/>
</filter>
<linearGradient id="paint0_linear_1_2483" x1="1.66667" y1="-1.08823" x2="71.6667" y2="72" gradientUnits="userSpaceOnUse">
<stop stop-color="#EAE8FC"/>
<stop offset="1" stop-color="#D4D1FA" stop-opacity="0"/>
</linearGradient>
</defs>
</svg>
