<svg width="121" height="121" viewBox="0 0 121 121" fill="none" xmlns="http://www.w3.org/2000/svg">
<line x1="61.5" y1="90.5" x2="61.5" y2="120.5" stroke="url(#paint0_linear_2047_1937)" stroke-opacity="0.15"/>
<line y1="60" x2="30" y2="60" stroke="url(#paint1_linear_2047_1937)" stroke-opacity="0.15"/>
<line x1="61.5" y1="0.5" x2="61.5" y2="30.5" stroke="url(#paint2_linear_2047_1937)" stroke-opacity="0.15"/>
<line x1="91" y1="60.5" x2="121" y2="60.5" stroke="url(#paint3_linear_2047_1937)" stroke-opacity="0.15"/>
<rect x="30.2266" y="29.7266" width="61.5469" height="61.5469" rx="30.7734" stroke="white" stroke-opacity="0.15" stroke-width="1.54688"/>
<rect x="39" y="38.5" width="44" height="44" rx="22" fill="url(#paint4_linear_2047_1937)" fill-opacity="0.15"/>
<rect x="39.5" y="39" width="43" height="43" rx="21.5" stroke="url(#paint5_linear_2047_1937)" stroke-opacity="0.2"/>
<rect x="39.5" y="39" width="43" height="43" rx="21.5" stroke="url(#paint6_linear_2047_1937)" stroke-opacity="0.3"/>
<path fill-rule="evenodd" clip-rule="evenodd" d="M52 54.5C52 52.8431 53.3431 51.5 55 51.5H57.25C58.9069 51.5 60.25 52.8431 60.25 54.5V56.75C60.25 58.4069 58.9069 59.75 57.25 59.75H55C53.3431 59.75 52 58.4069 52 56.75V54.5ZM61.75 54.5C61.75 52.8431 63.0931 51.5 64.75 51.5H67C68.6569 51.5 70 52.8431 70 54.5V56.75C70 58.4069 68.6569 59.75 67 59.75H64.75C63.0931 59.75 61.75 58.4069 61.75 56.75V54.5ZM52 64.25C52 62.5931 53.3431 61.25 55 61.25H57.25C58.9069 61.25 60.25 62.5931 60.25 64.25V66.5C60.25 68.1569 58.9069 69.5 57.25 69.5H55C53.3431 69.5 52 68.1569 52 66.5V64.25ZM61.75 64.25C61.75 62.5931 63.0931 61.25 64.75 61.25H67C68.6569 61.25 70 62.5931 70 64.25V66.5C70 68.1569 68.6569 69.5 67 69.5H64.75C63.0931 69.5 61.75 68.1569 61.75 66.5V64.25Z" fill="white"/>
<defs>
<linearGradient id="paint0_linear_2047_1937" x1="61" y1="90.5" x2="61" y2="120.5" gradientUnits="userSpaceOnUse">
<stop stop-color="white"/>
<stop offset="1" stop-color="white" stop-opacity="0"/>
</linearGradient>
<linearGradient id="paint1_linear_2047_1937" x1="0" y1="60.5" x2="30" y2="60.5" gradientUnits="userSpaceOnUse">
<stop stop-color="white" stop-opacity="0"/>
<stop offset="1" stop-color="white"/>
</linearGradient>
<linearGradient id="paint2_linear_2047_1937" x1="61" y1="0.5" x2="61" y2="30.5" gradientUnits="userSpaceOnUse">
<stop stop-color="white" stop-opacity="0"/>
<stop offset="1" stop-color="white"/>
</linearGradient>
<linearGradient id="paint3_linear_2047_1937" x1="91" y1="61" x2="121" y2="61" gradientUnits="userSpaceOnUse">
<stop stop-color="white"/>
<stop offset="1" stop-color="white" stop-opacity="0"/>
</linearGradient>
<linearGradient id="paint4_linear_2047_1937" x1="97.0345" y1="24.8448" x2="39" y2="82.5" gradientUnits="userSpaceOnUse">
<stop offset="0.545273" stop-color="white" stop-opacity="0"/>
<stop offset="1" stop-color="white"/>
</linearGradient>
<linearGradient id="paint5_linear_2047_1937" x1="83" y1="38.5" x2="39" y2="82.5" gradientUnits="userSpaceOnUse">
<stop stop-color="white"/>
<stop offset="0.419845" stop-color="white" stop-opacity="0"/>
</linearGradient>
<linearGradient id="paint6_linear_2047_1937" x1="83" y1="38.5" x2="39" y2="82.5" gradientUnits="userSpaceOnUse">
<stop offset="0.710304" stop-color="white" stop-opacity="0"/>
<stop offset="0.89681" stop-color="white"/>
</linearGradient>
</defs>
</svg>
