<svg width="21" height="21" viewBox="0 0 21 21" fill="none" xmlns="http://www.w3.org/2000/svg">
<path fill-rule="evenodd" clip-rule="evenodd" d="M2.375 3.9375C2.375 3.07456 3.07456 2.375 3.9375 2.375H8.3125C9.17545 2.375 9.875 3.07456 9.875 3.9375V14.875C9.875 16.9461 8.19607 18.625 6.125 18.625C4.05393 18.625 2.375 16.9461 2.375 14.875V3.9375ZM6.125 15.8125C6.64277 15.8125 7.0625 15.3928 7.0625 14.875C7.0625 14.3572 6.64277 13.9375 6.125 13.9375C5.60723 13.9375 5.1875 14.3572 5.1875 14.875C5.1875 15.3928 5.60723 15.8125 6.125 15.8125Z" fill="white"/>
<path d="M9.4325 18.625H17.0626C17.9255 18.625 18.6251 17.9254 18.6251 17.0625V12.6875C18.6251 11.8246 17.9255 11.125 17.0626 11.125H16.9461L9.66058 18.4105C9.58626 18.4849 9.51019 18.5563 9.4325 18.625Z" fill="white"/>
<path d="M11.1152 15.1879L16.5104 9.79267C17.1206 9.18248 17.1206 8.19315 16.5104 7.58296L13.4169 4.48937C12.8067 3.87917 11.8173 3.87917 11.2071 4.48937L11.1249 4.57165V14.875C11.1249 14.9801 11.1216 15.0844 11.1152 15.1879Z" fill="white"/>
</svg>
