<svg width="121" height="121" viewBox="0 0 121 121" fill="none" xmlns="http://www.w3.org/2000/svg">
<line x1="61.5" y1="90.5" x2="61.5" y2="120.5" stroke="url(#paint0_linear_2047_1908)" stroke-opacity="0.15"/>
<line y1="60" x2="30" y2="60" stroke="url(#paint1_linear_2047_1908)" stroke-opacity="0.15"/>
<line x1="61.5" y1="0.5" x2="61.5" y2="30.5" stroke="url(#paint2_linear_2047_1908)" stroke-opacity="0.15"/>
<line x1="91" y1="60.5" x2="121" y2="60.5" stroke="url(#paint3_linear_2047_1908)" stroke-opacity="0.15"/>
<rect x="30.2266" y="29.7266" width="61.5469" height="61.5469" rx="30.7734" stroke="white" stroke-opacity="0.15" stroke-width="1.54688"/>
<rect x="39" y="38.5" width="44" height="44" rx="22" fill="url(#paint4_linear_2047_1908)" fill-opacity="0.15"/>
<rect x="39.5" y="39" width="43" height="43" rx="21.5" stroke="url(#paint5_linear_2047_1908)" stroke-opacity="0.2"/>
<rect x="39.5" y="39" width="43" height="43" rx="21.5" stroke="url(#paint6_linear_2047_1908)" stroke-opacity="0.3"/>
<path d="M66.0039 58.9067C66.1423 59.3417 65.7882 59.7491 65.3317 59.7491H61.8667C61.5988 59.7491 61.3512 59.6062 61.2172 59.3742L59.4845 56.3732C59.2561 55.9776 59.4321 55.4671 59.8784 55.37C60.2398 55.2913 60.6151 55.2499 61 55.2499C63.344 55.2499 65.3293 56.7861 66.0039 58.9067Z" fill="white"/>
<path d="M57.1194 56.9638C57.4273 56.6261 57.9577 56.7288 58.1862 57.1245L59.9182 60.1241C60.0522 60.3562 60.0522 60.6421 59.9182 60.8742L58.1858 63.8748C57.9573 64.2706 57.4268 64.3732 57.1189 64.0354C56.2685 63.1025 55.75 61.8617 55.75 60.4999C55.75 59.1378 56.2687 57.8969 57.1194 56.9638Z" fill="white"/>
<path d="M59.8778 65.6297C59.4315 65.5325 59.2555 65.022 59.4839 64.6264L61.2172 61.6241C61.3512 61.3921 61.5988 61.2491 61.8668 61.2491H65.3322C65.7886 61.2491 66.1426 61.6564 66.0044 62.0914C65.3304 64.2129 63.3447 65.7499 61 65.7499C60.6148 65.7499 60.2393 65.7084 59.8778 65.6297Z" fill="white"/>
<path fill-rule="evenodd" clip-rule="evenodd" d="M70.0007 61.2491C70.4149 61.2491 70.7507 60.9134 70.7507 60.4991C70.7507 60.0849 70.4149 59.7491 70.0007 59.7491H69.2171C69.1753 59.285 69.095 58.8319 68.9795 58.3932L69.7143 58.1257C70.1035 57.9841 70.3042 57.5537 70.1625 57.1644C70.0209 56.7752 69.5905 56.5745 69.2012 56.7162L68.4664 56.9837C68.2695 56.5662 68.0386 56.168 67.7773 55.7925L68.3771 55.2892C68.6944 55.023 68.7358 54.5499 68.4695 54.2326C68.2033 53.9153 67.7302 53.8739 67.4129 54.1401L66.8126 54.6438C66.4869 54.3206 66.1344 54.0243 65.7588 53.7586L66.1502 53.0807C66.3573 52.722 66.2344 52.2633 65.8756 52.0562C65.5169 51.8491 65.0582 51.972 64.8511 52.3307L64.4604 53.0074C64.0465 52.8159 63.614 52.6578 63.1664 52.5363L63.3021 51.7668C63.374 51.3589 63.1016 50.9699 62.6937 50.898C62.2858 50.8261 61.8968 51.0984 61.8249 51.5064L61.6889 52.2774C61.462 52.2587 61.2325 52.2491 61.0007 52.2491C60.769 52.2491 60.5394 52.2587 60.3124 52.2775L60.1764 51.5064C60.1045 51.0985 59.7155 50.8261 59.3076 50.898C58.8997 50.97 58.6273 51.359 58.6992 51.7669L58.8349 52.5366C58.3875 52.658 57.9551 52.8161 57.5411 53.0076L57.1502 52.3305C56.9431 51.9718 56.4844 51.8489 56.1257 52.056C55.7669 52.2631 55.6441 52.7218 55.8512 53.0806L56.2427 53.7587C55.8672 54.0242 55.5148 54.3204 55.1892 54.6436L54.5884 54.1395C54.2711 53.8733 53.7981 53.9147 53.5318 54.232C53.2656 54.5493 53.307 55.0223 53.6243 55.2886L54.2245 55.7922C53.9631 56.1678 53.7321 56.5662 53.5351 56.9839L52.8001 56.7163C52.4108 56.5747 51.9804 56.7754 51.8388 57.1646C51.6971 57.5538 51.8978 57.9842 52.287 58.1259L53.022 58.3934C52.9065 58.8321 52.8262 59.285 52.7844 59.7491H52.0007C51.5865 59.7491 51.2507 60.0849 51.2507 60.4991C51.2507 60.9134 51.5865 61.2491 52.0007 61.2491H52.7844C52.8262 61.7132 52.9064 62.1663 53.0219 62.605L52.2868 62.8725C51.8975 63.0142 51.6969 63.4446 51.8385 63.8338C51.9802 64.2231 52.4106 64.4238 52.7998 64.2821L53.535 64.0145C53.732 64.4322 53.9631 64.8307 54.2246 65.2064L53.6241 65.7103C53.3068 65.9766 53.2654 66.4496 53.5317 66.7669C53.7979 67.0842 54.271 67.1256 54.5883 66.8594L55.1894 66.355C55.5151 66.6782 55.8675 66.9744 56.2432 67.24L55.8511 67.9191C55.644 68.2779 55.7669 68.7366 56.1256 68.9437C56.4844 69.1508 56.943 69.0279 57.1502 68.6691L57.5416 67.9911C57.9554 68.1825 58.3877 68.3406 58.8351 68.462L58.6992 69.2329C58.6273 69.6408 58.8996 70.0298 59.3076 70.1017C59.7155 70.1737 60.1045 69.9013 60.1764 69.4934L60.3126 68.7208C60.5395 68.7396 60.769 68.7491 61.0007 68.7491C61.2324 68.7491 61.4618 68.7396 61.6887 68.7209L61.8249 69.4934C61.8968 69.9013 62.2858 70.1737 62.6937 70.1018C63.1016 70.0299 63.374 69.6409 63.3021 69.2329L63.1662 68.462C63.6136 68.3406 64.046 68.1825 64.4598 67.9911L64.8512 68.669C65.0583 69.0277 65.517 69.1506 65.8757 68.9435C66.2344 68.7364 66.3573 68.2777 66.1502 67.919L65.7582 67.2401C66.134 66.9744 66.4866 66.678 66.8123 66.3547L67.4131 66.8588C67.7304 67.125 68.2034 67.0836 68.4697 66.7663C68.7359 66.449 68.6946 65.9759 68.3772 65.7097L67.7771 65.2061C68.0385 64.8305 68.2694 64.4322 68.4664 64.0147L69.2015 64.2822C69.5907 64.4239 70.0211 64.2232 70.1628 63.834C70.3044 63.4448 70.1038 63.0144 69.7145 62.8727L68.9795 62.6052C69.095 62.1664 69.1753 61.7133 69.2171 61.2491H70.0007ZM67.3435 58.1905C67.3374 58.1739 67.332 58.1572 67.3272 58.1404C67.0593 57.4224 66.6728 56.7622 66.1913 56.1837C66.1846 56.1763 66.1779 56.1687 66.1714 56.1609C66.165 56.1533 66.1588 56.1456 66.1528 56.1379C65.6625 55.5593 65.0766 55.0644 64.4194 54.6776C64.4046 54.6704 64.3901 54.6626 64.3756 54.6542C64.3608 54.6457 64.3464 54.6367 64.3324 54.6273C63.6882 54.261 62.9778 53.9976 62.2236 53.8596C62.2067 53.8578 62.1897 53.8554 62.1728 53.8524C62.1563 53.8495 62.1401 53.8461 62.1241 53.8422C61.7588 53.781 61.3835 53.7491 61.0007 53.7491C60.6183 53.7491 60.2435 53.7809 59.8788 53.8418C59.8623 53.8459 59.8455 53.8495 59.8285 53.8525C59.8109 53.8556 59.7934 53.858 59.7759 53.8599C59.005 54.0011 58.2804 54.2732 57.6255 54.6522C56.9476 55.0444 56.3444 55.5509 55.8423 56.1452C55.8383 56.1503 55.8342 56.1553 55.83 56.1603C55.8278 56.1629 55.8257 56.1654 55.8235 56.1679C55.8213 56.1705 55.819 56.1731 55.8167 56.1757C55.332 56.7563 54.9431 57.4194 54.6741 58.1408C54.6693 58.1575 54.6639 58.1741 54.6579 58.1907C54.6518 58.2072 54.6453 58.2234 54.6382 58.2393C54.3873 58.9459 54.2507 59.7066 54.2507 60.4991C54.2507 61.2935 54.3879 62.0558 54.64 62.7637C54.6463 62.7781 54.6521 62.7928 54.6576 62.8078C54.663 62.8227 54.668 62.8378 54.6724 62.8528C55.22 64.3244 56.2661 65.5534 57.6055 66.3344C57.6093 66.3364 57.6131 66.3385 57.6169 66.3406C57.6198 66.3422 57.6227 66.3439 57.6256 66.3456C57.6327 66.3496 57.6396 66.3538 57.6464 66.358C58.3043 66.7355 59.0318 67.0053 59.8049 67.1435C59.8128 67.1447 59.8207 67.1459 59.8285 67.1473C59.8358 67.1486 59.8431 67.15 59.8504 67.1515C60.2242 67.2157 60.6086 67.2491 61.0007 67.2491C61.3929 67.2491 61.7773 67.2157 62.1512 67.1515C62.1584 67.15 62.1655 67.1486 62.1728 67.1474C62.1805 67.146 62.1883 67.1448 62.1961 67.1436C62.9675 67.0058 63.6935 66.7369 64.3503 66.3608C64.3586 66.3555 64.3671 66.3504 64.3757 66.3454C64.3839 66.3407 64.3922 66.3361 64.4006 66.3317C65.07 65.9406 65.666 65.4376 66.163 64.8484L66.1716 64.838L66.1808 64.8272C66.6679 64.2448 67.0587 63.579 67.3285 62.8543C67.333 62.8388 67.3381 62.8233 67.3437 62.8079C67.3493 62.7925 67.3554 62.7773 67.3619 62.7625C67.6137 62.055 67.7507 61.2931 67.7507 60.4991C67.7507 59.7066 67.6141 58.9459 67.3632 58.2394C67.3561 58.2235 67.3495 58.2072 67.3435 58.1905Z" fill="white"/>
<defs>
<linearGradient id="paint0_linear_2047_1908" x1="61" y1="90.5" x2="61" y2="120.5" gradientUnits="userSpaceOnUse">
<stop stop-color="white"/>
<stop offset="1" stop-color="white" stop-opacity="0"/>
</linearGradient>
<linearGradient id="paint1_linear_2047_1908" x1="0" y1="60.5" x2="30" y2="60.5" gradientUnits="userSpaceOnUse">
<stop stop-color="white" stop-opacity="0"/>
<stop offset="1" stop-color="white"/>
</linearGradient>
<linearGradient id="paint2_linear_2047_1908" x1="61" y1="0.5" x2="61" y2="30.5" gradientUnits="userSpaceOnUse">
<stop stop-color="white" stop-opacity="0"/>
<stop offset="1" stop-color="white"/>
</linearGradient>
<linearGradient id="paint3_linear_2047_1908" x1="91" y1="61" x2="121" y2="61" gradientUnits="userSpaceOnUse">
<stop stop-color="white"/>
<stop offset="1" stop-color="white" stop-opacity="0"/>
</linearGradient>
<linearGradient id="paint4_linear_2047_1908" x1="97.0345" y1="24.8448" x2="39" y2="82.5" gradientUnits="userSpaceOnUse">
<stop offset="0.545273" stop-color="white" stop-opacity="0"/>
<stop offset="1" stop-color="white"/>
</linearGradient>
<linearGradient id="paint5_linear_2047_1908" x1="83" y1="38.5" x2="39" y2="82.5" gradientUnits="userSpaceOnUse">
<stop stop-color="white"/>
<stop offset="0.419845" stop-color="white" stop-opacity="0"/>
</linearGradient>
<linearGradient id="paint6_linear_2047_1908" x1="83" y1="38.5" x2="39" y2="82.5" gradientUnits="userSpaceOnUse">
<stop offset="0.710304" stop-color="white" stop-opacity="0"/>
<stop offset="0.89681" stop-color="white"/>
</linearGradient>
</defs>
</svg>
