<svg width="80" height="20" viewBox="0 0 80 20" fill="none" xmlns="http://www.w3.org/2000/svg">
<path d="M25.6674 15.749L26.6547 13.4559C27.7216 14.2521 29.1389 14.6661 30.5402 14.6661C31.5753 14.6661 32.2282 14.268 32.2282 13.6629C32.2123 11.9749 26.0337 13.2966 25.9859 9.06078C25.97 6.911 27.8809 5.25488 30.588 5.25488C32.1964 5.25488 33.8047 5.65299 34.9512 6.56067L34.0276 8.90153C32.9766 8.23272 31.6709 7.75499 30.4288 7.75499C29.5848 7.75499 29.0274 8.15309 29.0274 8.66267C29.0434 10.3188 35.2697 9.41111 35.3334 13.4559C35.3334 15.6534 33.4703 17.1981 30.795 17.1981C28.8363 17.1981 27.0369 16.7363 25.6674 15.749Z" fill="white"/>
<path d="M63.5512 12.6278C63.0575 13.4877 62.1339 14.0769 61.067 14.0769C59.4905 14.0769 58.2165 12.803 58.2165 11.2265C58.2165 9.64997 59.4905 8.37603 61.067 8.37603C62.1339 8.37603 63.0575 8.96523 63.5512 9.82514L66.2742 8.31234C65.2551 6.49697 63.2964 5.25488 61.067 5.25488C57.7707 5.25488 55.0954 7.93016 55.0954 11.2265C55.0954 14.5228 57.7707 17.1981 61.067 17.1981C63.3123 17.1981 65.2551 15.9719 66.2742 14.1406L63.5512 12.6278Z" fill="white"/>
<path d="M40.1107 0.30249H36.7029V16.9752H40.1107V0.30249Z" fill="white"/>
<path d="M67.6119 0.30249V16.9752H71.0197V11.975L75.0645 16.9752H79.4277L74.2842 11.0354L79.0455 5.49379H74.8734L71.0197 10.0959V0.30249H67.6119Z" fill="white"/>
<path d="M50.2386 12.6597C49.745 13.4718 48.7258 14.0769 47.5793 14.0769C46.0028 14.0769 44.7288 12.803 44.7288 11.2265C44.7288 9.64997 46.0028 8.37603 47.5793 8.37603C48.7258 8.37603 49.745 9.013 50.2386 9.84106V12.6597ZM50.2386 5.49375V6.84731C49.6813 5.90778 48.2959 5.25488 46.8468 5.25488C43.853 5.25488 41.4962 7.89831 41.4962 11.2105C41.4962 14.5228 43.853 17.1981 46.8468 17.1981C48.2959 17.1981 49.6813 16.5452 50.2386 15.6056V16.9592H53.6464V5.49375H50.2386Z" fill="white"/>
<path d="M4.59987 12.643C4.59987 13.8055 3.66034 14.745 2.49787 14.745C1.3354 14.745 0.395874 13.8055 0.395874 12.643C0.395874 11.4805 1.3354 10.541 2.49787 10.541H4.59987V12.643Z" fill="white"/>
<path d="M5.65088 12.643C5.65088 11.4805 6.59041 10.541 7.75288 10.541C8.91535 10.541 9.85488 11.4805 9.85488 12.643V17.898C9.85488 19.0605 8.91535 20 7.75288 20C6.59041 20 5.65088 19.0605 5.65088 17.898V12.643Z" fill="white"/>
<path d="M7.75251 4.204C6.59004 4.204 5.65051 3.26447 5.65051 2.102C5.65051 0.939531 6.59004 0 7.75251 0C8.91498 0 9.85451 0.939531 9.85451 2.102V4.204H7.75251Z" fill="white"/>
<path d="M7.75256 5.27087C8.91503 5.27087 9.85456 6.2104 9.85456 7.37287C9.85456 8.53534 8.91503 9.47487 7.75256 9.47487H2.48164C1.31917 9.47487 0.379639 8.53534 0.379639 7.37287C0.379639 6.2104 1.31917 5.27087 2.48164 5.27087H7.75256Z" fill="white"/>
<path d="M16.1768 7.37287C16.1768 6.2104 17.1163 5.27087 18.2788 5.27087C19.4412 5.27087 20.3808 6.2104 20.3808 7.37287C20.3808 8.53534 19.4412 9.47487 18.2788 9.47487H16.1768V7.37287Z" fill="white"/>
<path d="M15.1258 7.37292C15.1258 8.53539 14.1862 9.47492 13.0238 9.47492C11.8613 9.47492 10.9218 8.53539 10.9218 7.37292V2.102C10.9218 0.939531 11.8613 0 13.0238 0C14.1862 0 15.1258 0.939531 15.1258 2.102V7.37292Z" fill="white"/>
<path d="M13.0238 15.796C14.1862 15.796 15.1258 16.7355 15.1258 17.898C15.1258 19.0605 14.1862 20 13.0238 20C11.8613 20 10.9218 19.0605 10.9218 17.898V15.796H13.0238Z" fill="white"/>
<path d="M13.0238 14.745C11.8613 14.745 10.9218 13.8055 10.9218 12.643C10.9218 11.4805 11.8613 10.541 13.0238 10.541H18.2947C19.4571 10.541 20.3967 11.4805 20.3967 12.643C20.3967 13.8055 19.4571 14.745 18.2947 14.745H13.0238Z" fill="white"/>
</svg>
