<svg width="24" height="20" viewBox="0 0 24 20" fill="none" xmlns="http://www.w3.org/2000/svg">
<path d="M21.057 5.18075C21.0663 5.39195 21.0663 5.59355 21.0663 5.80475C21.0755 12.208 16.3711 19.6 7.76781 19.6C5.23036 19.6 2.73921 18.8416 0.599976 17.4208C0.970406 17.4688 1.34084 17.488 1.71127 17.488C3.81346 17.488 5.86009 16.7584 7.51777 15.4048C5.51744 15.3664 3.7579 14.0128 3.14669 12.0352C3.8505 12.1792 4.57284 12.1504 5.25814 11.9488C3.08186 11.5072 1.51679 9.51996 1.50753 7.20635C1.50753 7.18715 1.50753 7.16795 1.50753 7.14875C2.15578 7.52316 2.88738 7.73436 3.62825 7.75356C1.58162 6.33275 0.942624 3.50074 2.18357 1.28314C4.56358 4.31675 8.06415 6.15035 11.824 6.35195C11.4443 4.67195 11.9629 2.90554 13.1761 1.71514C15.056 -0.118469 18.0195 -0.022469 19.7975 1.92634C20.844 1.71514 21.8534 1.31194 22.7702 0.745533C22.4183 1.86874 21.6867 2.81914 20.7144 3.42394C21.6404 3.30874 22.548 3.04954 23.4 2.66554C22.7702 3.64474 21.9738 4.48955 21.057 5.18075Z" fill="white"/>
</svg>
