<svg width="81" height="20" viewBox="0 0 81 20" fill="none" xmlns="http://www.w3.org/2000/svg">
<g clip-path="url(#clip0_1_1013)">
<path d="M26.6406 7.82095C26.6406 6.39449 25.2535 4.87949 22.8531 4.87949C20.1576 4.87949 17.1965 6.85686 16.7439 10.8018C16.2816 14.786 18.7607 16.5568 21.2594 16.5568C23.7582 16.5568 25.0666 15.5829 26.4045 14.2843C25.2535 12.8382 23.768 13.5071 23.4827 13.6547C23.1679 13.8121 22.7646 14.0285 21.9382 14.0285C20.9741 14.0285 19.9904 13.5957 19.9904 11.7954C26.1684 11.1854 26.6406 9.24742 26.6406 7.82095ZM23.5811 8.05706C23.5418 8.49975 23.3647 9.25726 20.2363 9.68027C20.8954 7.33891 22.1547 7.16183 22.7351 7.16183C23.2761 7.16183 23.6205 7.58485 23.5811 8.05706ZM13.1138 8.44073C13.1138 8.44073 11.7857 12.6119 11.6775 12.9562C11.6382 12.6021 10.6642 5.11559 10.6642 5.11559C8.40158 5.11559 7.19154 6.72897 6.55209 8.43089C6.55209 8.43089 4.93872 12.6119 4.80099 12.9661C4.79115 12.6414 4.55505 8.48008 4.55505 8.48008C4.41732 6.39449 2.50881 5.12543 0.964294 5.12543L2.83345 16.4683C5.20433 16.4584 6.48323 14.8549 7.15219 13.153C7.15219 13.153 8.57866 9.46385 8.63768 9.29661C8.64752 9.45401 9.6608 16.4683 9.6608 16.4683C12.0415 16.4683 13.3204 14.9631 14.0091 13.3202L17.344 5.12543C14.9928 5.12543 13.7533 6.72897 13.1138 8.44073ZM35.3765 4.85981C33.9107 4.85981 32.7892 5.65666 31.8448 6.82735V6.81751L32.6908 0C30.7429 0 29.1591 1.69208 28.8541 4.21053L27.3785 16.3797C28.5 16.3797 29.6903 16.0551 30.3298 15.2287C30.9003 15.9666 31.7562 16.5568 33.0253 16.5568C36.3111 16.5568 38.5639 12.7398 38.5639 9.15888C38.5442 5.89277 36.9604 4.85981 35.3765 4.85981ZM35.0715 10.7132C34.7272 12.7103 33.6155 14.0679 32.5432 14.0679C31.4611 14.0679 30.9987 13.5858 30.9987 13.5858C31.2053 11.8347 31.3332 10.7624 31.7267 9.83768C32.1202 8.91294 33.0548 7.43728 34.0287 7.43728C34.983 7.43728 35.4158 8.70635 35.0715 10.7132ZM46.7685 5.12543H44.4763L44.4862 5.00738C44.6436 3.51205 44.9977 2.72504 46.1684 2.59715C46.9653 2.51845 47.3194 2.10526 47.408 1.65273C47.4768 1.29857 47.6933 0.0688637 47.6933 0.0688637C43.0892 0.0393507 41.6431 2.02656 41.2693 5.05657L41.2594 5.12543H41.2102C40.4626 5.12543 39.6362 5.97147 39.4985 7.04378L39.4493 7.43728H40.984L39.6952 18.0817L39.3017 19.9902C39.3509 19.9902 39.4099 20 39.4591 20C41.6136 19.9213 42.9909 18.2194 43.2958 15.7501L44.2993 7.43728H45.0174C45.7257 7.43728 46.5521 6.72897 46.6997 5.54845L46.7685 5.12543ZM58.6918 4.92868C56.0454 4.92868 53.5467 6.87654 52.7793 9.93606C52.012 12.9956 53.1728 16.6158 57.0686 16.6158C60.9544 16.6158 63.1974 12.848 63.1974 9.70979C63.1974 6.59124 61.0823 4.92868 58.6918 4.92868ZM59.7641 10.6149C59.6264 12.002 59.0164 14.1072 57.344 14.1072C55.6618 14.1072 55.8979 11.6478 56.0651 10.4771C56.2422 9.22774 56.9407 7.44712 58.4458 7.44712C59.7936 7.44712 59.9215 9.05066 59.7641 10.6149ZM76.2717 8.44073C76.2717 8.44073 74.9436 12.6119 74.8354 12.9562C74.7961 12.6021 73.8221 5.11559 73.8221 5.11559C71.5595 5.11559 70.3494 6.72897 69.71 8.43089C69.71 8.43089 68.0966 12.6119 67.9589 12.9661C67.949 12.6414 67.7129 8.48008 67.7129 8.48008C67.5752 6.39449 65.6667 5.12543 64.1222 5.12543L65.9815 16.4683C68.3524 16.4584 69.6313 14.8549 70.3002 13.153C70.3002 13.153 71.7267 9.46385 71.7759 9.29661C71.7857 9.45401 72.799 16.4683 72.799 16.4683C75.1797 16.4683 76.4586 14.9631 77.1473 13.3202L80.4822 5.12543C78.1409 5.12543 76.9013 6.72897 76.2717 8.44073ZM48.9328 0.0688637L47.0046 15.6222L46.6111 17.5406C46.6603 17.5406 46.7193 17.5504 46.7685 17.5504C48.8443 17.5209 50.3199 15.7009 50.5954 13.4088L51.707 4.48598C52.0415 1.76094 50.4183 0.0688637 48.9328 0.0688637Z" fill="white"/>
</g>
<defs>
<clipPath id="clip0_1_1013">
<rect width="79.5179" height="20" fill="white" transform="translate(0.964294)"/>
</clipPath>
</defs>
</svg>
