<svg width="25" height="24" viewBox="0 0 25 24" fill="none" xmlns="http://www.w3.org/2000/svg">
<g clip-path="url(#clip0_1_2784)">
<path d="M14.631 0.046875C14.458 0.046875 14.297 0.083875 14.148 0.133875C14.464 0.343875 14.638 0.623875 14.724 0.939875C14.731 0.982875 14.743 1.01387 14.749 1.05687C14.7564 1.09378 14.7607 1.13125 14.762 1.16887C14.786 1.71387 14.619 1.78287 14.502 2.10487C14.322 2.51988 14.372 2.96587 14.588 3.32487C14.6078 3.37302 14.6326 3.41894 14.662 3.46187C14.427 1.89387 15.735 1.65887 15.976 1.16887C15.995 0.740875 15.642 0.455875 15.363 0.257875C15.1437 0.120104 14.8899 0.0472907 14.631 0.047875V0.046875ZM16.602 0.399875C16.578 0.542875 16.596 0.505875 16.59 0.579875C16.584 0.629875 16.584 0.691875 16.578 0.740875C16.565 0.790875 16.553 0.840875 16.534 0.889875C16.522 0.939875 16.504 0.989875 16.484 1.03887L16.417 1.18087C16.397 1.20587 16.386 1.23087 16.367 1.25587L16.33 1.31087C16.3005 1.35331 16.2695 1.39467 16.237 1.43487C16.2 1.47287 16.169 1.51587 16.125 1.54687V1.55287C16.088 1.58387 16.051 1.62087 16.007 1.65287C15.877 1.75187 15.729 1.82587 15.592 1.91887C15.549 1.94887 15.505 1.97487 15.468 2.01187C15.4259 2.04147 15.3864 2.07459 15.35 2.11087C15.307 2.14788 15.276 2.18488 15.239 2.22887C15.208 2.26588 15.171 2.30887 15.146 2.35287C15.1148 2.39475 15.0858 2.43813 15.059 2.48287C15.034 2.53288 15.016 2.57587 14.991 2.62487C14.972 2.67488 14.954 2.71787 14.941 2.76787C14.9246 2.81895 14.9102 2.87065 14.898 2.92287C14.892 2.94788 14.892 2.97887 14.886 3.00287C14.879 3.02787 14.879 3.05288 14.873 3.07787C14.873 3.12787 14.867 3.18287 14.867 3.23287C14.867 3.26987 14.867 3.30687 14.873 3.34387C14.873 3.39387 14.879 3.44387 14.892 3.49887C14.898 3.54887 14.91 3.59887 14.922 3.64887C14.942 3.69787 14.954 3.74687 14.972 3.79687C14.985 3.82687 15.003 3.85887 15.016 3.88387L13.59 3.33187C13.349 3.26388 13.113 3.20187 12.871 3.14587L12.481 3.05287C12.109 2.97887 11.731 2.92287 11.353 2.88587C11.34 2.88587 11.334 2.87987 11.322 2.87987C10.6832 2.81589 10.0402 2.80753 9.39997 2.85487C9.02198 2.87987 8.64398 2.92887 8.26598 2.99087C7.98507 3.03928 7.7059 3.09731 7.42898 3.16487L7.14998 3.23887C7.05798 3.27587 6.96998 3.31888 6.88398 3.35687L6.67898 3.44987C6.66698 3.45587 6.65498 3.45587 6.64898 3.46187C6.58598 3.49287 6.53098 3.51787 6.47498 3.54887C6.39446 3.58439 6.3157 3.62377 6.23898 3.66687C6.19598 3.68488 6.15298 3.70987 6.11498 3.72887C6.09722 3.7399 6.07886 3.74991 6.05998 3.75887C6.00398 3.79087 5.94798 3.82187 5.89798 3.85287C5.84694 3.88108 5.79753 3.91213 5.74998 3.94587C5.70598 3.97587 5.66298 4.00087 5.62598 4.03187C5.61998 4.03887 5.61298 4.03887 5.60698 4.04487C5.56998 4.06987 5.52698 4.10087 5.48898 4.13187L5.47698 4.14387L5.38398 4.21787C5.37198 4.22487 5.35898 4.23688 5.34698 4.24287C5.31598 4.26787 5.28498 4.29887 5.25398 4.32287C5.24798 4.33587 5.23498 4.34288 5.22898 4.34787C5.19198 4.38587 5.15498 4.41687 5.11798 4.45387C5.11098 4.45387 5.11098 4.45988 5.10498 4.46587C5.06644 4.49956 5.0294 4.53493 4.99398 4.57187C4.98698 4.57787 4.98698 4.58387 4.98098 4.58387C4.94843 4.61573 4.91739 4.6491 4.88798 4.68387C4.87598 4.69587 4.85798 4.70787 4.84498 4.71987C4.81177 4.75916 4.77638 4.79656 4.73898 4.83187C4.73298 4.84387 4.72098 4.85087 4.71498 4.86187C4.66498 4.91187 4.62198 4.96187 4.57198 5.01187L4.55398 5.02987C4.45398 5.13587 4.34898 5.24087 4.23698 5.33387C4.12598 5.43388 4.00798 5.52587 3.88998 5.60687C3.65305 5.77611 3.39735 5.91738 3.12798 6.02787C2.99798 6.08387 2.86098 6.13387 2.72498 6.17687C2.46498 6.23287 2.19798 6.33787 1.96898 6.35687C1.91898 6.35687 1.86398 6.36887 1.81398 6.37487L1.65898 6.41187L1.50998 6.46787C1.45998 6.48687 1.41098 6.51187 1.36198 6.53587C1.31798 6.56687 1.26898 6.59187 1.22498 6.62287C1.18086 6.65481 1.13939 6.69026 1.10098 6.72887C1.05798 6.75887 1.01398 6.80288 0.976976 6.83987C0.939976 6.88287 0.902976 6.91987 0.871976 6.96387C0.840976 7.01388 0.803976 7.05687 0.778976 7.10687C0.746404 7.15192 0.71732 7.1994 0.691976 7.24887C0.666976 7.30487 0.641976 7.35487 0.623976 7.40987C0.604976 7.45987 0.586976 7.51587 0.567976 7.57087C0.555976 7.62087 0.542976 7.67087 0.537976 7.72087C0.537976 7.72587 0.530976 7.73287 0.530976 7.73887C0.518976 7.79487 0.518976 7.86887 0.511976 7.90587C0.505976 7.94987 0.499976 7.98587 0.499976 8.02987C0.498826 8.13772 0.52424 8.24418 0.573976 8.33987V8.34587C0.592976 8.38287 0.617976 8.42087 0.642976 8.45787C0.666976 8.49487 0.692976 8.53187 0.722976 8.56887C0.753976 8.59987 0.790976 8.63787 0.828976 8.66887C0.86511 8.70512 0.90425 8.73824 0.945976 8.76787C1.09498 8.89787 1.13198 8.94087 1.32398 9.03987C1.35498 9.05887 1.38598 9.07087 1.42398 9.08987C1.42998 9.08987 1.43598 9.09587 1.44198 9.09587C1.44198 9.10887 1.44198 9.11487 1.44798 9.12687C1.46245 9.22909 1.48932 9.32916 1.52798 9.42487C1.54798 9.46187 1.55998 9.49887 1.57798 9.53587C1.58498 9.54887 1.59098 9.56087 1.59798 9.56687C1.62198 9.61687 1.64698 9.65987 1.67098 9.70387L1.76398 9.83387C1.79498 9.87087 1.83298 9.91387 1.86998 9.95187C1.90698 9.98887 1.94398 10.0199 1.98798 10.0569C1.98798 10.0569 1.99398 10.0629 1.99998 10.0629C2.03698 10.0939 2.07398 10.1249 2.11198 10.1499C2.1551 10.1801 2.20058 10.2069 2.24798 10.2299C2.29098 10.2549 2.34098 10.2799 2.38998 10.2989C2.42993 10.3169 2.47144 10.3313 2.51398 10.3419C2.52098 10.3479 2.52698 10.3479 2.53898 10.3539C2.56398 10.3609 2.59498 10.3669 2.61898 10.3729C2.60098 10.7079 2.59498 11.0229 2.64498 11.1349C2.69998 11.2589 2.97298 10.8809 3.24498 10.4469C3.20898 10.8749 3.18398 11.3769 3.24498 11.5259C3.31398 11.6809 3.68498 11.1969 4.00798 10.6639C8.40298 9.64787 12.413 12.6839 12.834 16.9739C12.754 16.3039 11.929 15.9329 11.551 16.0259C11.365 16.4839 11.049 17.0729 10.541 17.4389C10.584 17.0289 10.566 16.6089 10.479 16.1989C10.3402 16.7696 10.0776 17.3028 9.70998 17.7609C9.12198 17.8039 8.53298 17.5189 8.22298 17.0909C8.19798 17.0729 8.19198 17.0359 8.17298 17.0109C8.15498 16.9679 8.13598 16.9239 8.12298 16.8809C8.10498 16.8394 8.09254 16.7956 8.08598 16.7509C8.07998 16.7069 8.07998 16.6639 8.07998 16.6139V16.5209C8.08737 16.4769 8.09773 16.4335 8.11098 16.3909C8.12398 16.3479 8.13598 16.3049 8.15498 16.2609C8.17898 16.2179 8.19798 16.1739 8.22898 16.1309C8.33398 15.8329 8.33398 15.5909 8.14198 15.4489C8.10469 15.4245 8.06518 15.4038 8.02398 15.3869C7.99998 15.3809 7.96898 15.3689 7.94398 15.3619L7.89398 15.3439C7.85153 15.3301 7.80806 15.3198 7.76398 15.3129C7.72174 15.3005 7.67798 15.2941 7.63398 15.2939C7.58896 15.2868 7.54353 15.2828 7.49798 15.2819C7.46698 15.2819 7.43598 15.2879 7.40498 15.2879C7.35864 15.2876 7.3125 15.294 7.26798 15.3069C7.22498 15.3129 7.18198 15.3189 7.13798 15.3309C7.09374 15.3427 7.05032 15.3574 7.00798 15.3749C6.96498 15.3929 6.92798 15.4119 6.88398 15.4309C6.84698 15.4489 6.80998 15.4739 6.76598 15.4929C5.32198 16.4349 6.18398 18.6409 7.16898 19.2799C6.79698 19.3479 6.41898 19.4279 6.31398 19.5089L6.30098 19.5209C6.56798 19.6819 6.84698 19.8189 7.13798 19.9369C7.53498 20.0669 7.95598 20.1839 8.14198 20.2339V20.2399C8.65551 20.3453 9.18065 20.383 9.70398 20.3519C12.45 20.1599 14.7 18.0709 15.109 15.3189L15.146 15.4799C15.165 15.5919 15.189 15.7099 15.202 15.8269V15.8329C15.214 15.8889 15.22 15.9449 15.227 15.9949V16.0189C15.233 16.0749 15.239 16.1309 15.239 16.1809C15.245 16.2489 15.251 16.3169 15.251 16.3849V16.4849C15.251 16.5149 15.258 16.5519 15.258 16.5829C15.258 16.6209 15.251 16.6579 15.251 16.6949V16.7819C15.251 16.8249 15.245 16.8619 15.245 16.9059C15.245 16.9309 15.245 16.9559 15.239 16.9859C15.239 17.0299 15.233 17.0729 15.233 17.1229C15.227 17.1409 15.227 17.1599 15.227 17.1779L15.207 17.3209C15.207 17.3399 15.207 17.3579 15.202 17.3769C15.195 17.4389 15.183 17.4949 15.177 17.5569V17.5689L15.14 17.7429V17.7609L15.103 17.9279C15.103 17.9349 15.096 17.9479 15.096 17.9529C15.0846 18.0096 15.0702 18.0657 15.053 18.1209V18.1389C15.034 18.2009 15.016 18.2569 15.003 18.3129C14.997 18.3189 14.997 18.3249 14.997 18.3249L14.941 18.5109C14.917 18.5729 14.898 18.6289 14.873 18.6909C14.848 18.7529 14.83 18.8149 14.805 18.8709C14.78 18.9329 14.755 18.9879 14.731 19.0509H14.724C14.7 19.1059 14.674 19.1679 14.644 19.2239C14.6388 19.2387 14.6324 19.2531 14.625 19.2669C14.619 19.2729 14.619 19.2799 14.613 19.2859C14.2031 20.1065 13.6064 20.8196 12.871 21.3679C12.821 21.3989 12.772 21.4369 12.722 21.4739C12.71 21.4859 12.692 21.4919 12.679 21.5039C12.6346 21.5366 12.5893 21.568 12.543 21.5979L12.561 21.6349H12.568L12.828 21.5979H12.834C12.995 21.5729 13.156 21.5419 13.317 21.5109C13.361 21.5049 13.41 21.4919 13.454 21.4799L13.541 21.4609C13.584 21.4549 13.627 21.4429 13.671 21.4369C13.708 21.4239 13.745 21.4169 13.782 21.4059C14.402 21.2559 15.003 21.0519 15.58 20.8109C14.5838 22.1677 13.259 23.2489 11.73 23.9529C12.444 23.9029 13.156 23.7859 13.844 23.5869C16.3342 22.8547 18.4374 21.1742 19.701 18.9069C19.4458 20.3421 18.8765 21.7033 18.034 22.8929C18.6347 22.4966 19.1897 22.0352 19.689 21.5169C21.0763 20.0685 21.9871 18.2301 22.299 16.2489C22.509 17.2289 22.571 18.2389 22.479 19.2359C26.953 12.9949 22.85 6.52387 21.133 4.81987C21.127 4.80687 21.121 4.80087 21.121 4.78887C21.115 4.79487 21.115 4.79487 21.115 4.80087C21.115 4.79487 21.115 4.79487 21.108 4.78887C21.108 4.86287 21.102 4.93687 21.096 5.01187C21.0788 5.15071 21.0581 5.28908 21.034 5.42687C21.004 5.56287 20.966 5.69987 20.929 5.83687C20.885 5.96687 20.836 6.10287 20.779 6.23287C20.7223 6.36126 20.6606 6.48736 20.594 6.61087C20.4556 6.85384 20.296 7.08407 20.117 7.29887C20.024 7.40987 19.925 7.50887 19.825 7.60887C19.7665 7.66231 19.7065 7.714 19.645 7.76387L19.503 7.88787C19.3923 7.9752 19.2764 8.05569 19.156 8.12887C19.0375 8.20517 18.9154 8.27559 18.79 8.33987C18.66 8.40187 18.53 8.45787 18.4 8.51387C18.1352 8.61458 17.8612 8.68927 17.582 8.73687C17.439 8.76188 17.297 8.77387 17.16 8.78687C17.0611 8.79387 16.9621 8.79787 16.863 8.79887C16.722 8.79693 16.5812 8.78859 16.441 8.77387C16.2994 8.76276 16.1587 8.74205 16.02 8.71187C15.8794 8.68637 15.7408 8.65129 15.605 8.60687H15.598C15.735 8.59387 15.871 8.58187 16.008 8.55687C16.2871 8.50849 16.5609 8.43383 16.826 8.33387C16.962 8.28387 17.092 8.22187 17.216 8.15987C17.346 8.09787 17.464 8.02987 17.588 7.95587C17.706 7.87587 17.823 7.79487 17.935 7.70787C18.047 7.62087 18.152 7.52787 18.251 7.42887C18.356 7.33587 18.449 7.23087 18.542 7.12487C18.635 7.01387 18.722 6.90187 18.802 6.79087C18.815 6.77187 18.828 6.74687 18.84 6.72887C18.902 6.62887 18.964 6.52987 19.02 6.43087C19.1566 6.1842 19.2685 5.9246 19.354 5.65587C19.398 5.52588 19.429 5.38987 19.46 5.25287C19.485 5.11087 19.51 4.97487 19.522 4.83787C19.534 4.69587 19.547 4.55287 19.547 4.41687C19.547 4.31687 19.54 4.21788 19.534 4.11887C19.5216 3.98006 19.5049 3.84166 19.484 3.70387C19.4599 3.56417 19.4292 3.42568 19.392 3.28887C19.348 3.15887 19.305 3.02187 19.255 2.89187C19.205 2.76187 19.144 2.63187 19.082 2.50787C19.013 2.38387 18.945 2.25987 18.871 2.14187C18.7918 2.02603 18.7091 1.91264 18.623 1.80187C18.53 1.69587 18.437 1.58987 18.338 1.48487C18.2858 1.43167 18.2321 1.37998 18.177 1.32987C17.897 1.11287 17.607 0.908875 17.315 0.722875C17.2749 0.699742 17.2335 0.679038 17.191 0.660875C17.0071 0.548308 16.809 0.459865 16.602 0.399875Z" fill="white"/>
</g>
<defs>
<clipPath id="clip0_1_2784">
<rect width="24" height="24" fill="white" transform="translate(0.5)"/>
</clipPath>
</defs>
</svg>
